<?xml version="1.0" encoding="UTF-8"?>
<svg xmlns="http://www.w3.org/2000/svg" xmlns:xlink="http://www.w3.org/1999/xlink" width="436px" height="400px" viewBox="0 0 435 400" version="1.1">
<g id="surface1">
<path style=" stroke:none;fill-rule:nonzero;fill:rgb(94.117647%,94.117647%,94.117647%);fill-opacity:1;" d="M 30.355469 356 C 23.230469 360.917969 15.941406 365.992188 11.007812 373.113281 C 6.074219 380.238281 3.921875 389.960938 7.882812 397.667969 L 7.78125 398.148438 C 13.894531 400.300781 20.683594 399.101562 25.691406 394.984375 C 31.964844 389.710938 33.929688 381.015625 35.53125 372.96875 L 40.265625 349.164062 Z M 30.355469 356 "/>
<path style=" stroke:none;fill-rule:nonzero;fill:rgb(94.117647%,94.117647%,94.117647%);fill-opacity:1;" d="M 37.21875 380.007812 C 32.464844 381.0625 27.59375 382.164062 23.519531 384.832031 C 19.441406 387.5 16.265625 392.113281 16.707031 396.972656 L 16.554688 397.199219 C 19.285156 399.617188 23.078125 400.433594 26.558594 399.347656 C 30.945312 397.925781 33.804688 393.808594 36.335938 389.953125 L 43.828125 378.542969 Z M 37.21875 380.007812 "/>
<path style=" stroke:none;fill-rule:nonzero;fill:rgb(79.215686%,79.215686%,79.215686%);fill-opacity:1;" d="M 434.058594 21.25 L 28.183594 21.25 C 27.859375 21.25 27.597656 20.988281 27.597656 20.660156 C 27.597656 20.335938 27.859375 20.070312 28.183594 20.070312 L 434.058594 20.070312 C 434.382812 20.070312 434.648438 20.335938 434.648438 20.660156 C 434.648438 20.988281 434.382812 21.25 434.058594 21.25 Z M 434.058594 21.25 "/>
<path style=" stroke:none;fill-rule:nonzero;fill:rgb(24.705882%,23.921569%,33.72549%);fill-opacity:1;" d="M 47.921875 6.492188 C 47.921875 10.078125 45.023438 12.988281 41.441406 12.988281 C 37.863281 12.988281 34.964844 10.078125 34.964844 6.492188 C 34.964844 2.90625 37.863281 0 41.441406 0 C 45.023438 0 47.921875 2.90625 47.921875 6.492188 Z M 47.921875 6.492188 "/>
<path style=" stroke:none;fill-rule:nonzero;fill:rgb(24.705882%,23.921569%,33.72549%);fill-opacity:1;" d="M 70.308594 6.492188 C 70.308594 10.078125 67.40625 12.988281 63.828125 12.988281 C 60.25 12.988281 57.347656 10.078125 57.347656 6.492188 C 57.347656 2.90625 60.25 0 63.828125 0 C 67.40625 0 70.308594 2.90625 70.308594 6.492188 Z M 70.308594 6.492188 "/>
<path style=" stroke:none;fill-rule:nonzero;fill:rgb(24.705882%,23.921569%,33.72549%);fill-opacity:1;" d="M 92.691406 6.492188 C 92.691406 10.078125 89.792969 12.988281 86.214844 12.988281 C 82.632812 12.988281 79.734375 10.078125 79.734375 6.492188 C 79.734375 2.90625 82.632812 0 86.214844 0 C 89.792969 0 92.691406 2.90625 92.691406 6.492188 Z M 92.691406 6.492188 "/>
<path style=" stroke:none;fill-rule:nonzero;fill:rgb(24.705882%,23.921569%,33.72549%);fill-opacity:1;" d="M 420.648438 3.972656 L 404.742188 3.972656 C 404.089844 3.972656 403.5625 3.441406 403.5625 2.792969 C 403.5625 2.140625 404.089844 1.609375 404.742188 1.609375 L 420.648438 1.609375 C 421.296875 1.609375 421.824219 2.140625 421.824219 2.792969 C 421.824219 3.441406 421.296875 3.972656 420.648438 3.972656 Z M 420.648438 3.972656 "/>
<path style=" stroke:none;fill-rule:nonzero;fill:rgb(24.705882%,23.921569%,33.72549%);fill-opacity:1;" d="M 420.648438 8.398438 L 404.742188 8.398438 C 404.089844 8.398438 403.5625 7.871094 403.5625 7.21875 C 403.5625 6.566406 404.089844 6.039062 404.742188 6.039062 L 420.648438 6.039062 C 421.296875 6.039062 421.824219 6.566406 421.824219 7.21875 C 421.824219 7.871094 421.296875 8.398438 420.648438 8.398438 Z M 420.648438 8.398438 "/>
<path style=" stroke:none;fill-rule:nonzero;fill:rgb(24.705882%,23.921569%,33.72549%);fill-opacity:1;" d="M 420.648438 12.828125 L 404.742188 12.828125 C 404.089844 12.828125 403.5625 12.296875 403.5625 11.644531 C 403.5625 10.992188 404.089844 10.464844 404.742188 10.464844 L 420.648438 10.464844 C 421.296875 10.46875 421.820312 10.996094 421.820312 11.644531 C 421.820312 12.296875 421.296875 12.824219 420.648438 12.828125 Z M 420.648438 12.828125 "/>
<path style=" stroke:none;fill-rule:nonzero;fill:rgb(94.117647%,94.117647%,94.117647%);fill-opacity:1;" d="M 34.800781 46.566406 L 304.011719 46.566406 L 304.011719 208.3125 L 34.800781 208.3125 Z M 34.800781 46.566406 "/>
<path style=" stroke:none;fill-rule:nonzero;fill:rgb(94.117647%,94.117647%,94.117647%);fill-opacity:1;" d="M 337 46.566406 L 421.824219 46.566406 L 421.824219 97.53125 L 337 97.53125 Z M 337 46.566406 "/>
<path style=" stroke:none;fill-rule:nonzero;fill:rgb(89.411765%,89.411765%,89.411765%);fill-opacity:1;" d="M 404.902344 120.945312 L 354.429688 120.945312 C 353.117188 120.945312 352.054688 119.878906 352.054688 118.5625 C 352.054688 117.246094 353.117188 116.179688 354.429688 116.179688 L 404.902344 116.179688 C 406.214844 116.179688 407.28125 117.246094 407.28125 118.5625 C 407.28125 119.878906 406.214844 120.945312 404.902344 120.945312 Z M 404.902344 120.945312 "/>
<path style=" stroke:none;fill-rule:nonzero;fill:rgb(89.411765%,89.411765%,89.411765%);fill-opacity:1;" d="M 396.765625 112.789062 L 362.566406 112.789062 C 361.253906 112.789062 360.191406 111.722656 360.191406 110.410156 C 360.191406 109.09375 361.253906 108.027344 362.566406 108.027344 L 396.765625 108.027344 C 398.078125 108.027344 399.140625 109.09375 399.140625 110.410156 C 399.140625 111.722656 398.078125 112.789062 396.765625 112.789062 Z M 396.765625 112.789062 "/>
<path style=" stroke:none;fill-rule:nonzero;fill:rgb(94.117647%,94.117647%,94.117647%);fill-opacity:1;" d="M 337 139.246094 L 421.824219 139.246094 L 421.824219 190.210938 L 337 190.210938 Z M 337 139.246094 "/>
<path style=" stroke:none;fill-rule:nonzero;fill:rgb(89.411765%,89.411765%,89.411765%);fill-opacity:1;" d="M 404.902344 213.625 L 354.429688 213.625 C 353.117188 213.625 352.054688 212.558594 352.054688 211.242188 C 352.054688 209.925781 353.117188 208.859375 354.429688 208.859375 L 404.902344 208.859375 C 406.214844 208.859375 407.28125 209.925781 407.28125 211.242188 C 407.28125 212.558594 406.214844 213.625 404.902344 213.625 Z M 404.902344 213.625 "/>
<path style=" stroke:none;fill-rule:nonzero;fill:rgb(89.411765%,89.411765%,89.411765%);fill-opacity:1;" d="M 396.765625 205.472656 L 362.566406 205.472656 C 361.253906 205.472656 360.191406 204.402344 360.191406 203.089844 C 360.191406 201.773438 361.253906 200.707031 362.566406 200.707031 L 396.765625 200.707031 C 398.074219 200.707031 399.136719 201.773438 399.136719 203.089844 C 399.136719 204.402344 398.074219 205.46875 396.765625 205.472656 Z M 396.765625 205.472656 "/>
<path style=" stroke:none;fill-rule:nonzero;fill:rgb(61.960784%,38.039216%,41.568627%);fill-opacity:1;" d="M 194.171875 113.449219 C 194.171875 124.566406 185.179688 133.578125 174.082031 133.578125 C 162.988281 133.578125 153.996094 124.566406 153.996094 113.449219 C 153.996094 102.328125 162.988281 93.316406 174.082031 93.316406 C 185.179688 93.316406 194.171875 102.328125 194.171875 113.449219 Z M 194.171875 113.449219 "/>
<path style=" stroke:none;fill-rule:nonzero;fill:rgb(24.705882%,44.313725%,79.607843%);fill-opacity:1;" d="M 207.929688 208.3125 L 157.558594 208.3125 L 160.386719 144.480469 L 160.734375 144.117188 L 165.734375 138.824219 L 181.640625 138.824219 L 187.542969 144.550781 L 188.007812 145.007812 L 200.566406 157.066406 Z M 207.929688 208.3125 "/>
<path style=" stroke:none;fill-rule:nonzero;fill:rgb(18.431373%,18.039216%,25.490196%);fill-opacity:1;" d="M 171.503906 208.3125 L 133.21875 208.3125 C 132.964844 183.886719 132.765625 165.457031 132.765625 165.457031 L 134.71875 164.261719 L 134.730469 164.257812 L 156.203125 151.195312 L 160.710938 143.855469 L 160.734375 144.117188 L 162.058594 159.582031 C 162.058594 159.582031 169.265625 182.90625 171.503906 208.3125 Z M 171.503906 208.3125 "/>
<path style=" stroke:none;fill-rule:nonzero;fill:rgb(18.431373%,18.039216%,25.490196%);fill-opacity:1;" d="M 223.59375 208.3125 L 189.527344 208.3125 C 187.707031 200.035156 186.757812 192.15625 187.171875 185.585938 C 188.84375 158.742188 184.988281 143.855469 186.660156 143.855469 L 187.542969 144.550781 L 198.050781 152.871094 L 211.890625 157.953125 L 221.492188 161.484375 L 223.164062 162.097656 L 223.164062 162.90625 C 223.171875 166.96875 223.210938 185.828125 223.59375 208.3125 Z M 223.59375 208.3125 "/>
<path style=" stroke:none;fill-rule:nonzero;fill:rgb(18.431373%,18.039216%,25.490196%);fill-opacity:1;" d="M 155.078125 119.746094 C 155.078125 119.746094 156.785156 116.742188 156.386719 106.707031 C 155.992188 96.671875 171.238281 102.347656 183.980469 101.390625 C 196.722656 100.433594 194.027344 118.144531 194.027344 118.144531 C 194.027344 118.144531 194.945312 117.089844 196.914062 108.542969 C 198.878906 99.996094 194.414062 91.480469 194.414062 91.480469 C 193.097656 82.496094 186.003906 85.375 186.003906 85.375 C 189.417969 86.707031 188.761719 89.558594 188.761719 89.558594 C 185.871094 84.476562 178.78125 87.355469 178.78125 87.355469 C 169.320312 81.40625 159.734375 89.242188 159.734375 89.242188 C 148.304688 91.839844 155.007812 100.945312 155.007812 100.945312 C 143.515625 106.765625 155.078125 119.746094 155.078125 119.746094 Z M 155.078125 119.746094 "/>
<path style=" stroke:none;fill-rule:nonzero;fill:rgb(18.431373%,18.039216%,25.490196%);fill-opacity:1;" d="M 122.125 208.3125 C 123.105469 188.71875 123.851562 173.347656 123.558594 172.160156 C 122.734375 168.863281 134.367188 164.394531 134.71875 164.261719 L 134.726562 164.257812 L 134.730469 164.257812 L 136.953125 165.457031 L 138.578125 208.3125 Z M 122.125 208.3125 "/>
<path style=" stroke:none;fill-rule:nonzero;fill:rgb(18.431373%,18.039216%,25.490196%);fill-opacity:1;" d="M 231.605469 208.3125 L 214.316406 208.3125 L 209.367188 159.335938 L 211.40625 157.839844 C 211.40625 157.839844 211.582031 157.882812 211.890625 157.953125 C 213.472656 158.347656 218.585938 159.6875 221.492188 161.484375 C 222.132812 161.847656 222.703125 162.328125 223.164062 162.90625 C 223.449219 163.246094 223.589844 163.679688 223.558594 164.121094 C 223.414062 165.507812 227.183594 185.117188 231.605469 208.3125 Z M 231.605469 208.3125 "/>
<path style=" stroke:none;fill-rule:nonzero;fill:rgb(79.215686%,79.215686%,79.215686%);fill-opacity:1;" d="M 260.710938 228.089844 L 78.097656 228.089844 C 76.636719 228.089844 75.453125 229.28125 75.453125 230.746094 C 75.453125 232.210938 76.636719 233.398438 78.097656 233.402344 L 260.710938 233.402344 C 261.660156 233.402344 262.539062 232.898438 263.011719 232.074219 C 263.488281 231.25 263.488281 230.238281 263.011719 229.414062 C 262.539062 228.59375 261.660156 228.085938 260.710938 228.089844 Z M 260.710938 228.089844 "/>
<path style=" stroke:none;fill-rule:nonzero;fill:rgb(24.705882%,23.921569%,33.72549%);fill-opacity:1;" d="M 211.230469 228.089844 L 211.230469 233.402344 L 78.097656 233.402344 C 76.636719 233.398438 75.453125 232.210938 75.453125 230.746094 C 75.453125 229.28125 76.636719 228.089844 78.097656 228.089844 Z M 211.230469 228.089844 "/>
<path style=" stroke:none;fill-rule:nonzero;fill:rgb(24.705882%,23.921569%,33.72549%);fill-opacity:1;" d="M 216.53125 230.746094 C 216.53125 233.679688 214.15625 236.058594 211.230469 236.058594 C 208.300781 236.058594 205.929688 233.679688 205.929688 230.746094 C 205.929688 227.8125 208.300781 225.433594 211.230469 225.433594 C 214.15625 225.433594 216.53125 227.8125 216.53125 230.746094 Z M 216.53125 230.746094 "/>
<path style=" stroke:none;fill-rule:nonzero;fill:rgb(24.705882%,44.313725%,79.607843%);fill-opacity:1;" d="M 169.40625 275.019531 C 163.359375 275.019531 158.460938 270.109375 158.460938 264.050781 C 158.460938 257.996094 163.359375 253.085938 169.40625 253.085938 C 175.449219 253.085938 180.347656 257.996094 180.347656 264.050781 C 180.34375 270.105469 175.445312 275.011719 169.40625 275.019531 Z M 169.40625 253.929688 C 163.828125 253.929688 159.304688 258.460938 159.304688 264.050781 C 159.304688 269.644531 163.828125 274.175781 169.40625 274.175781 C 174.984375 274.175781 179.507812 269.644531 179.507812 264.050781 C 179.5 258.464844 174.980469 253.933594 169.40625 253.929688 Z M 169.40625 253.929688 "/>
<path style=" stroke:none;fill-rule:nonzero;fill:rgb(24.705882%,44.313725%,79.607843%);fill-opacity:1;" d="M 167.960938 269.957031 C 167.726562 269.957031 167.539062 269.769531 167.539062 269.535156 L 167.539062 258.566406 C 167.539062 258.417969 167.617188 258.277344 167.75 258.199219 C 167.878906 258.121094 168.039062 258.121094 168.171875 258.199219 C 168.300781 258.277344 168.382812 258.417969 168.382812 258.566406 L 168.382812 269.535156 C 168.382812 269.769531 168.191406 269.957031 167.960938 269.957031 Z M 167.960938 269.957031 "/>
<path style=" stroke:none;fill-rule:nonzero;fill:rgb(24.705882%,44.313725%,79.607843%);fill-opacity:1;" d="M 170.851562 269.957031 C 170.617188 269.957031 170.429688 269.769531 170.429688 269.535156 L 170.429688 258.566406 C 170.429688 258.417969 170.507812 258.277344 170.640625 258.199219 C 170.769531 258.125 170.929688 258.125 171.0625 258.199219 C 171.191406 258.277344 171.273438 258.417969 171.273438 258.566406 L 171.273438 269.535156 C 171.273438 269.769531 171.082031 269.957031 170.851562 269.957031 Z M 170.851562 269.957031 "/>
<path style=" stroke:none;fill-rule:nonzero;fill:rgb(24.705882%,23.921569%,33.72549%);fill-opacity:1;" d="M 119.277344 264.050781 C 119.277344 257.996094 124.179688 253.085938 130.222656 253.085938 C 136.265625 253.085938 141.167969 257.996094 141.167969 264.050781 C 141.167969 270.109375 136.265625 275.019531 130.222656 275.019531 C 124.183594 275.011719 119.285156 270.105469 119.277344 264.050781 Z M 120.121094 264.050781 C 120.121094 269.644531 124.644531 274.175781 130.222656 274.175781 C 135.800781 274.175781 140.324219 269.644531 140.324219 264.050781 C 140.324219 258.460938 135.800781 253.929688 130.222656 253.929688 C 124.644531 253.933594 120.128906 258.464844 120.121094 264.050781 Z M 120.121094 264.050781 "/>
<path style=" stroke:none;fill-rule:nonzero;fill:rgb(24.705882%,23.921569%,33.72549%);fill-opacity:1;" d="M 134.949219 267.742188 C 135.109375 267.746094 135.246094 267.636719 135.289062 267.484375 C 135.328125 267.332031 135.261719 267.167969 135.125 267.089844 L 129.875 264.050781 L 135.125 261.015625 C 135.292969 260.917969 135.351562 260.703125 135.253906 260.535156 C 135.15625 260.367188 134.941406 260.308594 134.777344 260.40625 L 129 263.746094 C 128.890625 263.808594 128.824219 263.925781 128.824219 264.050781 C 128.824219 264.175781 128.890625 264.292969 129 264.355469 L 134.777344 267.695312 C 134.828125 267.726562 134.890625 267.742188 134.949219 267.742188 Z M 134.949219 267.742188 "/>
<path style=" stroke:none;fill-rule:nonzero;fill:rgb(24.705882%,23.921569%,33.72549%);fill-opacity:1;" d="M 127.207031 268.960938 C 127.398438 268.960938 127.554688 268.804688 127.554688 268.613281 L 127.554688 259.492188 C 127.554688 259.296875 127.398438 259.140625 127.207031 259.140625 C 127.011719 259.140625 126.855469 259.296875 126.855469 259.492188 L 126.855469 268.613281 C 126.855469 268.804688 127.011719 268.960938 127.207031 268.960938 Z M 127.207031 268.960938 "/>
<path style=" stroke:none;fill-rule:nonzero;fill:rgb(24.705882%,23.921569%,33.72549%);fill-opacity:1;" d="M 208.585938 275.019531 C 202.542969 275.019531 197.644531 270.109375 197.644531 264.050781 C 197.644531 257.996094 202.542969 253.085938 208.585938 253.085938 C 214.632812 253.085938 219.53125 257.996094 219.53125 264.050781 C 219.523438 270.105469 214.628906 275.011719 208.585938 275.019531 Z M 208.585938 253.929688 C 203.007812 253.929688 198.484375 258.460938 198.484375 264.050781 C 198.484375 269.644531 203.007812 274.175781 208.585938 274.175781 C 214.167969 274.175781 218.691406 269.644531 218.691406 264.050781 C 218.683594 258.464844 214.164062 253.933594 208.585938 253.929688 Z M 208.585938 253.929688 "/>
<path style=" stroke:none;fill-rule:nonzero;fill:rgb(24.705882%,23.921569%,33.72549%);fill-opacity:1;" d="M 203.859375 267.742188 C 203.703125 267.742188 203.5625 267.636719 203.523438 267.484375 C 203.480469 267.332031 203.546875 267.167969 203.683594 267.089844 L 208.9375 264.050781 L 203.683594 261.015625 C 203.519531 260.917969 203.460938 260.703125 203.558594 260.535156 C 203.65625 260.367188 203.867188 260.308594 204.035156 260.40625 L 209.8125 263.746094 C 209.917969 263.808594 209.984375 263.925781 209.984375 264.050781 C 209.984375 264.175781 209.917969 264.292969 209.8125 264.355469 L 204.035156 267.695312 C 203.984375 267.726562 203.921875 267.742188 203.859375 267.742188 Z M 203.859375 267.742188 "/>
<path style=" stroke:none;fill-rule:nonzero;fill:rgb(24.705882%,23.921569%,33.72549%);fill-opacity:1;" d="M 211.605469 268.960938 C 211.410156 268.960938 211.253906 268.804688 211.253906 268.613281 L 211.253906 259.492188 C 211.253906 259.296875 211.410156 259.140625 211.605469 259.140625 C 211.796875 259.140625 211.957031 259.296875 211.957031 259.492188 L 211.957031 268.613281 C 211.957031 268.804688 211.796875 268.960938 211.605469 268.960938 Z M 211.605469 268.960938 "/>
<path style=" stroke:none;fill-rule:nonzero;fill:rgb(100%,71.372549%,71.372549%);fill-opacity:1;" d="M 64.121094 272.316406 C 62.949219 271.140625 62.359375 269.507812 62.507812 267.851562 C 62.652344 266.199219 63.523438 264.695312 64.886719 263.746094 L 59.5 244.542969 L 69.355469 247.695312 L 72.957031 265.445312 C 74.429688 267.898438 73.839844 271.0625 71.585938 272.816406 C 69.328125 274.566406 66.125 274.355469 64.121094 272.316406 Z M 64.121094 272.316406 "/>
<path style=" stroke:none;fill-rule:nonzero;fill:rgb(24.705882%,44.313725%,79.607843%);fill-opacity:1;" d="M 61.488281 176.648438 L 59.445312 174.519531 C 59.445312 174.519531 53.136719 178.863281 54.472656 192.328125 C 55.457031 202.273438 52.339844 206.492188 52.691406 235.398438 L 61.488281 261.871094 L 71.664062 256.523438 L 64.300781 223.859375 Z M 61.488281 176.648438 "/>
<path style=" stroke:none;fill-rule:nonzero;fill:rgb(100%,71.372549%,71.372549%);fill-opacity:1;" d="M 69.121094 391.5 L 76.417969 391.5 L 79.890625 363.296875 L 69.121094 363.296875 Z M 69.121094 391.5 "/>
<path style=" stroke:none;fill-rule:nonzero;fill:rgb(18.431373%,18.039216%,25.490196%);fill-opacity:1;" d="M 67.261719 389.113281 L 81.628906 389.113281 C 86.6875 389.113281 90.789062 393.222656 90.789062 398.289062 L 90.789062 398.585938 L 67.261719 398.589844 Z M 67.261719 389.113281 "/>
<path style=" stroke:none;fill-rule:nonzero;fill:rgb(100%,71.372549%,71.372549%);fill-opacity:1;" d="M 90.402344 388.910156 L 97.644531 389.800781 L 104.515625 362.230469 L 93.824219 360.917969 Z M 90.402344 388.910156 "/>
<path style=" stroke:none;fill-rule:nonzero;fill:rgb(18.431373%,18.039216%,25.490196%);fill-opacity:1;" d="M 88.84375 386.3125 L 103.105469 388.066406 C 108.125 388.683594 111.695312 393.261719 111.082031 398.292969 L 111.042969 398.589844 L 87.691406 395.71875 Z M 88.84375 386.3125 "/>
<path style=" stroke:none;fill-rule:nonzero;fill:rgb(18.431373%,18.039216%,25.490196%);fill-opacity:1;" d="M 65.339844 246.898438 C 65.339844 246.898438 51.285156 256.523438 58.3125 282.582031 L 67.816406 383.71875 L 79.105469 383.640625 L 83.886719 333.734375 L 87.136719 298.601562 L 98 334.929688 L 89.066406 379.511719 L 102.25 380.902344 L 118.042969 329.058594 L 110.425781 255.246094 Z M 65.339844 246.898438 "/>
<path style=" stroke:none;fill-rule:nonzero;fill:rgb(24.705882%,44.313725%,79.607843%);fill-opacity:1;" d="M 99.253906 171.789062 L 92.105469 166.027344 L 73.152344 165.246094 L 59.445312 174.519531 C 59.445312 174.519531 58.03125 207.546875 67.308594 236.964844 L 62.445312 249.253906 L 111.066406 255.367188 Z M 99.253906 171.789062 "/>
<path style=" stroke:none;fill-rule:nonzero;fill:rgb(100%,71.372549%,71.372549%);fill-opacity:1;" d="M 100.1875 141.886719 C 100.1875 150.882812 92.910156 158.179688 83.929688 158.179688 C 74.953125 158.179688 67.671875 150.882812 67.671875 141.886719 C 67.671875 132.890625 74.953125 125.59375 83.929688 125.59375 C 92.910156 125.59375 100.1875 132.890625 100.1875 141.886719 Z M 100.1875 141.886719 "/>
<path style=" stroke:none;fill-rule:nonzero;fill:rgb(18.431373%,18.039216%,25.490196%);fill-opacity:1;" d="M 88.195312 121.746094 L 84.582031 121.746094 C 79.476562 120.222656 73.953125 121.203125 69.683594 124.394531 C 65.414062 127.582031 62.894531 132.605469 62.894531 137.945312 L 57.269531 156.550781 C 56.941406 157.640625 57.144531 158.820312 57.820312 159.734375 C 58.496094 160.644531 59.5625 161.183594 60.699219 161.183594 L 63.445312 161.183594 C 64.59375 159.542969 65.097656 157.53125 64.851562 155.542969 C 65.363281 156.789062 65.722656 158.089844 65.917969 159.425781 C 65.984375 160.011719 65.96875 160.601562 65.882812 161.183594 L 89.777344 161.183594 C 89.929688 158.835938 89.15625 156.519531 87.617188 154.742188 C 89.542969 156.671875 91.214844 158.835938 92.59375 161.183594 L 93.042969 161.183594 C 95.023438 161.183594 96.628906 159.578125 96.628906 157.59375 L 96.628906 139.351562 L 105.761719 139.351562 C 105.761719 129.628906 97.898438 121.746094 88.195312 121.746094 Z M 88.195312 121.746094 "/>
<path style=" stroke:none;fill-rule:nonzero;fill:rgb(100%,71.372549%,71.372549%);fill-opacity:1;" d="M 106.285156 270.910156 C 105.113281 269.734375 104.523438 268.097656 104.671875 266.445312 C 104.820312 264.789062 105.691406 263.285156 107.050781 262.335938 L 101.667969 243.136719 L 111.519531 246.289062 L 115.121094 264.039062 C 116.59375 266.488281 116.003906 269.652344 113.75 271.40625 C 111.496094 273.160156 108.289062 272.945312 106.285156 270.910156 Z M 106.285156 270.910156 "/>
<path style=" stroke:none;fill-rule:nonzero;fill:rgb(24.705882%,44.313725%,79.607843%);fill-opacity:1;" d="M 93.089844 175.433594 L 99.253906 171.789062 C 99.253906 171.789062 108.949219 170.074219 109.984375 183.019531 C 111.015625 195.960938 112.507812 229.554688 112.507812 229.554688 L 115.53125 257.878906 L 104.3125 260.273438 L 91.414062 221.546875 Z M 93.089844 175.433594 "/>
<path style=" stroke:none;fill-rule:nonzero;fill:rgb(79.215686%,79.215686%,79.215686%);fill-opacity:1;" d="M 149.683594 399.917969 L 0.703125 399.917969 C 0.316406 399.917969 0 399.601562 0 399.210938 C 0 398.824219 0.316406 398.507812 0.703125 398.507812 L 149.683594 398.507812 C 150.074219 398.507812 150.386719 398.824219 150.386719 399.210938 C 150.386719 399.601562 150.074219 399.917969 149.683594 399.917969 Z M 149.683594 399.917969 "/>
</g>
</svg>
