<?xml version="1.0" encoding="UTF-8"?>
<svg xmlns="http://www.w3.org/2000/svg" xmlns:xlink="http://www.w3.org/1999/xlink" width="150px" height="127px" viewBox="0 0 150 127" version="1.1">
<g id="surface1">
<path style=" stroke:none;fill-rule:nonzero;fill:rgb(94.901961%,94.901961%,94.901961%);fill-opacity:1;" d="M 124.351562 102.46875 L 74.597656 79.65625 L 100.214844 23.292969 L 149.96875 46.105469 Z M 124.351562 102.46875 "/>
<path style=" stroke:none;fill-rule:nonzero;fill:rgb(100%,100%,100%);fill-opacity:1;" d="M 131.929688 69.722656 L 94.265625 52.453125 C 94.117188 52.386719 94.050781 52.210938 94.117188 52.0625 C 94.1875 51.917969 94.359375 51.847656 94.507812 51.917969 L 132.175781 69.1875 C 132.324219 69.253906 132.386719 69.429688 132.320312 69.578125 C 132.25 69.726562 132.078125 69.792969 131.929688 69.722656 Z M 131.929688 69.722656 "/>
<path style=" stroke:none;fill-rule:nonzero;fill:rgb(100%,100%,100%);fill-opacity:1;" d="M 134.023438 65.117188 L 96.359375 47.847656 C 96.210938 47.777344 96.144531 47.605469 96.210938 47.457031 C 96.28125 47.308594 96.453125 47.242188 96.601562 47.308594 L 134.269531 64.578125 C 134.417969 64.644531 134.480469 64.820312 134.414062 64.972656 C 134.347656 65.121094 134.171875 65.183594 134.023438 65.117188 Z M 134.023438 65.117188 "/>
<path style=" stroke:none;fill-rule:nonzero;fill:rgb(100%,100%,100%);fill-opacity:1;" d="M 136.117188 60.507812 L 98.453125 43.238281 C 98.304688 43.171875 98.238281 42.996094 98.308594 42.847656 C 98.375 42.699219 98.546875 42.632812 98.695312 42.703125 L 136.363281 59.96875 C 136.511719 60.039062 136.574219 60.214844 136.507812 60.363281 C 136.441406 60.511719 136.265625 60.574219 136.117188 60.507812 Z M 136.117188 60.507812 "/>
<path style=" stroke:none;fill-rule:nonzero;fill:rgb(100%,100%,100%);fill-opacity:1;" d="M 138.214844 55.898438 L 100.550781 38.628906 C 100.402344 38.5625 100.332031 38.386719 100.402344 38.238281 C 100.46875 38.09375 100.644531 38.027344 100.792969 38.09375 L 138.457031 55.363281 C 138.605469 55.429688 138.671875 55.605469 138.601562 55.757812 C 138.535156 55.902344 138.359375 55.96875 138.214844 55.898438 Z M 138.214844 55.898438 "/>
<path style=" stroke:none;fill-rule:nonzero;fill:rgb(100%,100%,100%);fill-opacity:1;" d="M 130.039062 73.886719 L 92.371094 56.621094 C 92.222656 56.550781 92.15625 56.375 92.226562 56.226562 C 92.292969 56.078125 92.46875 56.015625 92.613281 56.082031 L 130.28125 73.351562 C 130.429688 73.417969 130.492188 73.59375 130.425781 73.742188 C 130.359375 73.890625 130.183594 73.957031 130.039062 73.886719 Z M 130.039062 73.886719 "/>
<path style=" stroke:none;fill-rule:nonzero;fill:rgb(100%,100%,100%);fill-opacity:1;" d="M 136.328125 49.140625 L 106.90625 35.652344 C 106.5625 35.503906 106.386719 35.121094 106.492188 34.761719 C 106.554688 34.570312 106.699219 34.417969 106.878906 34.335938 C 107.066406 34.257812 107.273438 34.261719 107.457031 34.34375 L 136.871094 47.828125 C 137.21875 47.976562 137.398438 48.367188 137.289062 48.730469 C 137.222656 48.917969 137.078125 49.070312 136.898438 49.152344 C 136.714844 49.226562 136.507812 49.226562 136.328125 49.140625 Z M 136.328125 49.140625 "/>
<path style=" stroke:none;fill-rule:nonzero;fill:rgb(94.901961%,94.901961%,94.901961%);fill-opacity:1;" d="M 23.117188 46.105469 L 72.875 23.292969 L 98.496094 79.65625 L 48.738281 102.46875 Z M 23.117188 46.105469 "/>
<path style=" stroke:none;fill-rule:nonzero;fill:rgb(100%,100%,100%);fill-opacity:1;" d="M 41.160156 69.722656 L 78.824219 52.453125 C 78.972656 52.386719 79.039062 52.210938 78.96875 52.0625 C 78.902344 51.917969 78.726562 51.847656 78.582031 51.917969 L 40.914062 69.1875 C 40.769531 69.253906 40.703125 69.429688 40.769531 69.578125 C 40.835938 69.726562 41.011719 69.792969 41.160156 69.722656 Z M 41.160156 69.722656 "/>
<path style=" stroke:none;fill-rule:nonzero;fill:rgb(100%,100%,100%);fill-opacity:1;" d="M 39.066406 65.117188 L 76.730469 47.847656 C 76.878906 47.777344 76.941406 47.605469 76.875 47.457031 C 76.808594 47.308594 76.632812 47.242188 76.484375 47.308594 L 38.820312 64.578125 C 38.675781 64.644531 38.609375 64.820312 38.675781 64.972656 C 38.742188 65.121094 38.917969 65.183594 39.066406 65.117188 Z M 39.066406 65.117188 "/>
<path style=" stroke:none;fill-rule:nonzero;fill:rgb(100%,100%,100%);fill-opacity:1;" d="M 36.972656 60.507812 L 74.636719 43.238281 C 74.785156 43.171875 74.847656 42.996094 74.78125 42.847656 C 74.714844 42.699219 74.539062 42.632812 74.390625 42.703125 L 36.726562 59.96875 C 36.578125 60.039062 36.511719 60.214844 36.582031 60.363281 C 36.648438 60.511719 36.824219 60.574219 36.972656 60.507812 Z M 36.972656 60.507812 "/>
<path style=" stroke:none;fill-rule:nonzero;fill:rgb(100%,100%,100%);fill-opacity:1;" d="M 34.875 55.898438 L 72.542969 38.628906 C 72.691406 38.5625 72.753906 38.386719 72.6875 38.238281 C 72.621094 38.09375 72.445312 38.027344 72.296875 38.09375 L 34.632812 55.363281 C 34.484375 55.429688 34.417969 55.605469 34.484375 55.757812 C 34.554688 55.902344 34.730469 55.96875 34.875 55.898438 Z M 34.875 55.898438 "/>
<path style=" stroke:none;fill-rule:nonzero;fill:rgb(100%,100%,100%);fill-opacity:1;" d="M 43.054688 73.886719 L 80.71875 56.621094 C 80.867188 56.550781 80.929688 56.375 80.863281 56.226562 C 80.796875 56.078125 80.621094 56.015625 80.472656 56.082031 L 42.808594 73.351562 C 42.660156 73.417969 42.59375 73.59375 42.664062 73.742188 C 42.730469 73.890625 42.90625 73.957031 43.054688 73.886719 Z M 43.054688 73.886719 "/>
<path style=" stroke:none;fill-rule:nonzero;fill:rgb(100%,100%,100%);fill-opacity:1;" d="M 36.761719 49.140625 L 66.183594 35.652344 C 66.527344 35.503906 66.707031 35.121094 66.597656 34.761719 C 66.535156 34.570312 66.390625 34.417969 66.207031 34.335938 C 66.027344 34.257812 65.816406 34.261719 65.636719 34.34375 L 36.222656 47.828125 C 35.871094 47.976562 35.691406 48.367188 35.800781 48.730469 C 35.867188 48.917969 36.007812 49.070312 36.191406 49.152344 C 36.375 49.226562 36.582031 49.226562 36.761719 49.140625 Z M 36.761719 49.140625 "/>
<path style=" stroke:none;fill-rule:nonzero;fill:rgb(94.117647%,94.117647%,94.117647%);fill-opacity:1;" d="M 4.972656 112.65625 C 5.289062 107.769531 8 102.8125 12.511719 100.957031 C 10.992188 106.058594 11.316406 111.535156 13.425781 116.421875 C 14.246094 118.304688 15.359375 120.308594 14.808594 122.289062 C 14.464844 123.515625 13.503906 124.503906 12.40625 125.144531 C 11.304688 125.789062 10.066406 126.140625 8.839844 126.484375 L 8.605469 126.703125 C 6.371094 122.347656 4.660156 117.542969 4.972656 112.65625 Z M 4.972656 112.65625 "/>
<path style=" stroke:none;fill-rule:nonzero;fill:rgb(100%,100%,100%);fill-opacity:1;" d="M 12.5625 101.046875 C 10.058594 104.226562 8.617188 108.117188 8.4375 112.167969 C 8.382812 113.039062 8.46875 113.910156 8.683594 114.757812 C 8.925781 115.574219 9.375 116.308594 9.992188 116.890625 C 10.558594 117.445312 11.203125 117.945312 11.621094 118.628906 C 12.046875 119.34375 12.152344 120.203125 11.902344 120.996094 C 11.628906 121.984375 11.011719 122.808594 10.382812 123.597656 C 9.683594 124.472656 8.949219 125.367188 8.691406 126.488281 C 8.664062 126.621094 8.457031 126.570312 8.484375 126.433594 C 8.925781 124.484375 10.710938 123.289062 11.492188 121.511719 C 11.855469 120.683594 11.972656 119.738281 11.535156 118.914062 C 11.15625 118.191406 10.496094 117.671875 9.917969 117.117188 C 9.304688 116.558594 8.839844 115.859375 8.5625 115.078125 C 8.300781 114.246094 8.183594 113.378906 8.214844 112.507812 C 8.253906 110.542969 8.597656 108.601562 9.238281 106.75 C 9.957031 104.632812 11.027344 102.648438 12.414062 100.894531 C 12.496094 100.785156 12.648438 100.941406 12.5625 101.046875 Z M 12.5625 101.046875 "/>
<path style=" stroke:none;fill-rule:nonzero;fill:rgb(100%,100%,100%);fill-opacity:1;" d="M 8.417969 110.859375 C 7.03125 110.605469 6.027344 109.382812 6.050781 107.964844 C 6.050781 107.90625 6.097656 107.859375 6.160156 107.859375 C 6.214844 107.859375 6.265625 107.902344 6.265625 107.960938 C 6.242188 109.28125 7.179688 110.421875 8.476562 110.652344 C 8.609375 110.671875 8.554688 110.882812 8.417969 110.859375 Z M 8.417969 110.859375 "/>
<path style=" stroke:none;fill-rule:nonzero;fill:rgb(100%,100%,100%);fill-opacity:1;" d="M 9.667969 116.648438 C 10.824219 115.859375 11.640625 114.664062 11.957031 113.296875 C 11.988281 113.160156 12.195312 113.214844 12.164062 113.351562 C 11.832031 114.773438 10.980469 116.015625 9.777344 116.835938 C 9.664062 116.914062 9.554688 116.726562 9.667969 116.648438 Z M 9.667969 116.648438 "/>
<path style=" stroke:none;fill-rule:nonzero;fill:rgb(100%,100%,100%);fill-opacity:1;" d="M 10.167969 104.820312 C 10.675781 105.027344 11.253906 104.964844 11.703125 104.652344 C 11.816406 104.570312 11.925781 104.761719 11.8125 104.839844 C 11.3125 105.183594 10.675781 105.253906 10.113281 105.03125 C 10.054688 105.011719 10.023438 104.957031 10.035156 104.898438 C 10.050781 104.84375 10.109375 104.808594 10.167969 104.820312 Z M 10.167969 104.820312 "/>
<path style=" stroke:none;fill-rule:nonzero;fill:rgb(94.117647%,94.117647%,94.117647%);fill-opacity:1;" d="M 27.066406 108.785156 C 26.996094 108.839844 26.929688 108.890625 26.855469 108.945312 C 25.925781 109.640625 25.050781 110.414062 24.242188 111.257812 C 24.179688 111.320312 24.117188 111.386719 24.054688 111.453125 C 22.132812 113.5 20.601562 115.886719 19.546875 118.492188 C 19.125 119.53125 18.785156 120.597656 18.527344 121.6875 C 18.171875 123.191406 17.90625 124.855469 17.097656 126.113281 C 17.015625 126.25 16.921875 126.375 16.828125 126.496094 L 8.890625 126.96875 C 8.871094 126.960938 8.851562 126.957031 8.832031 126.949219 L 8.515625 126.980469 C 8.527344 126.921875 8.535156 126.863281 8.546875 126.804688 C 8.550781 126.773438 8.558594 126.738281 8.5625 126.707031 C 8.570312 126.683594 8.574219 126.664062 8.578125 126.644531 C 8.578125 126.636719 8.578125 126.628906 8.578125 126.621094 C 8.582031 126.601562 8.585938 126.582031 8.589844 126.566406 C 8.652344 126.234375 8.710938 125.902344 8.777344 125.574219 C 8.777344 125.570312 8.777344 125.570312 8.777344 125.570312 C 9.285156 123.054688 10 120.554688 11.074219 118.246094 C 11.105469 118.175781 11.136719 118.109375 11.171875 118.039062 C 11.660156 117 12.234375 116.003906 12.886719 115.058594 C 13.242188 114.542969 13.628906 114.046875 14.035156 113.566406 C 15.089844 112.339844 16.332031 111.285156 17.714844 110.441406 C 20.472656 108.761719 23.734375 107.988281 26.828125 108.730469 C 26.910156 108.746094 26.988281 108.765625 27.066406 108.785156 Z M 27.066406 108.785156 "/>
<path style=" stroke:none;fill-rule:nonzero;fill:rgb(100%,100%,100%);fill-opacity:1;" d="M 27.054688 108.890625 C 23.148438 109.910156 19.664062 112.148438 17.097656 115.273438 C 16.53125 115.933594 16.074219 116.683594 15.738281 117.488281 C 15.441406 118.285156 15.359375 119.148438 15.503906 119.984375 C 15.621094 120.769531 15.835938 121.558594 15.761719 122.359375 C 15.675781 123.183594 15.242188 123.933594 14.570312 124.421875 C 13.757812 125.039062 12.769531 125.328125 11.796875 125.578125 C 10.714844 125.851562 9.585938 126.121094 8.714844 126.859375 C 8.609375 126.949219 8.476562 126.78125 8.582031 126.691406 C 10.097656 125.402344 12.242188 125.527344 13.929688 124.582031 C 14.71875 124.136719 15.378906 123.457031 15.523438 122.53125 C 15.652344 121.726562 15.433594 120.914062 15.308594 120.121094 C 15.15625 119.304688 15.203125 118.460938 15.445312 117.671875 C 15.738281 116.851562 16.167969 116.085938 16.710938 115.410156 C 17.917969 113.867188 19.359375 112.523438 20.980469 111.429688 C 22.824219 110.171875 24.867188 109.238281 27.023438 108.675781 C 27.160156 108.640625 27.1875 108.855469 27.054688 108.890625 Z M 27.054688 108.890625 "/>
<path style=" stroke:none;fill-rule:nonzero;fill:rgb(100%,100%,100%);fill-opacity:1;" d="M 17.863281 114.21875 C 16.90625 113.175781 16.839844 111.589844 17.710938 110.472656 C 17.792969 110.363281 17.964844 110.492188 17.882812 110.601562 C 17.070312 111.640625 17.136719 113.121094 18.03125 114.085938 C 18.128906 114.1875 17.957031 114.316406 17.863281 114.21875 Z M 17.863281 114.21875 "/>
<path style=" stroke:none;fill-rule:nonzero;fill:rgb(100%,100%,100%);fill-opacity:1;" d="M 15.394531 119.597656 C 16.785156 119.664062 18.15625 119.203125 19.226562 118.300781 C 19.332031 118.210938 19.464844 118.378906 19.359375 118.46875 C 18.242188 119.40625 16.816406 119.882812 15.367188 119.8125 C 15.226562 119.804688 15.253906 119.589844 15.394531 119.597656 Z M 15.394531 119.597656 "/>
<path style=" stroke:none;fill-rule:nonzero;fill:rgb(100%,100%,100%);fill-opacity:1;" d="M 22.878906 110.453125 C 23.160156 110.925781 23.660156 111.222656 24.207031 111.246094 C 24.347656 111.253906 24.320312 111.46875 24.183594 111.460938 C 23.578125 111.433594 23.023438 111.105469 22.707031 110.585938 C 22.671875 110.539062 22.679688 110.472656 22.726562 110.433594 C 22.773438 110.398438 22.839844 110.40625 22.878906 110.453125 Z M 22.878906 110.453125 "/>
<path style=" stroke:none;fill-rule:nonzero;fill:rgb(100%,100%,100%);fill-opacity:1;" d="M 123.5625 102.941406 L 49.164062 102.941406 L 49.164062 18.664062 L 123.5625 18.664062 Z M 123.5625 102.941406 "/>
<path style=" stroke:none;fill-rule:nonzero;fill:rgb(79.215686%,79.215686%,79.215686%);fill-opacity:1;" d="M 123.5625 102.941406 L 49.164062 102.941406 L 49.164062 18.664062 L 123.5625 18.664062 Z M 49.566406 102.539062 L 123.164062 102.539062 L 123.164062 19.066406 L 49.566406 19.066406 Z M 49.566406 102.539062 "/>
<path style=" stroke:none;fill-rule:nonzero;fill:rgb(89.411765%,89.411765%,89.411765%);fill-opacity:1;" d="M 114.523438 58.125 L 58.203125 58.125 C 57.984375 58.125 57.800781 57.945312 57.800781 57.722656 C 57.800781 57.5 57.984375 57.320312 58.203125 57.320312 L 114.523438 57.320312 C 114.746094 57.320312 114.925781 57.5 114.925781 57.722656 C 114.925781 57.945312 114.746094 58.125 114.523438 58.125 Z M 114.523438 58.125 "/>
<path style=" stroke:none;fill-rule:nonzero;fill:rgb(89.411765%,89.411765%,89.411765%);fill-opacity:1;" d="M 114.523438 51.234375 L 58.203125 51.234375 C 57.984375 51.234375 57.800781 51.054688 57.800781 50.832031 C 57.800781 50.613281 57.984375 50.429688 58.203125 50.429688 L 114.523438 50.429688 C 114.746094 50.429688 114.925781 50.613281 114.925781 50.832031 C 114.925781 51.054688 114.746094 51.234375 114.523438 51.234375 Z M 114.523438 51.234375 "/>
<path style=" stroke:none;fill-rule:nonzero;fill:rgb(89.411765%,89.411765%,89.411765%);fill-opacity:1;" d="M 114.523438 44.34375 L 58.203125 44.34375 C 57.984375 44.34375 57.800781 44.164062 57.800781 43.941406 C 57.800781 43.722656 57.984375 43.539062 58.203125 43.539062 L 114.523438 43.539062 C 114.746094 43.539062 114.925781 43.722656 114.925781 43.941406 C 114.925781 44.164062 114.746094 44.34375 114.523438 44.34375 Z M 114.523438 44.34375 "/>
<path style=" stroke:none;fill-rule:nonzero;fill:rgb(89.411765%,89.411765%,89.411765%);fill-opacity:1;" d="M 114.523438 37.453125 L 58.203125 37.453125 C 57.984375 37.453125 57.800781 37.273438 57.800781 37.054688 C 57.800781 36.828125 57.984375 36.652344 58.203125 36.652344 L 114.523438 36.652344 C 114.746094 36.652344 114.925781 36.828125 114.925781 37.054688 C 114.925781 37.273438 114.746094 37.453125 114.523438 37.453125 Z M 114.523438 37.453125 "/>
<path style=" stroke:none;fill-rule:nonzero;fill:rgb(89.411765%,89.411765%,89.411765%);fill-opacity:1;" d="M 114.523438 64.351562 L 58.203125 64.351562 C 57.984375 64.351562 57.800781 64.171875 57.800781 63.949219 C 57.800781 63.726562 57.984375 63.546875 58.203125 63.546875 L 114.523438 63.546875 C 114.746094 63.546875 114.925781 63.726562 114.925781 63.949219 C 114.925781 64.171875 114.746094 64.351562 114.523438 64.351562 Z M 114.523438 64.351562 "/>
<path style=" stroke:none;fill-rule:nonzero;fill:rgb(89.411765%,89.411765%,89.411765%);fill-opacity:1;" d="M 114.523438 95.261719 L 58.203125 95.261719 C 57.984375 95.261719 57.800781 95.082031 57.800781 94.859375 C 57.800781 94.640625 57.984375 94.457031 58.203125 94.457031 L 114.523438 94.457031 C 114.746094 94.457031 114.925781 94.640625 114.925781 94.859375 C 114.925781 95.082031 114.746094 95.261719 114.523438 95.261719 Z M 114.523438 95.261719 "/>
<path style=" stroke:none;fill-rule:nonzero;fill:rgb(100%,100%,100%);fill-opacity:1;" d="M 101.035156 88.816406 L 71.695312 88.816406 C 71.285156 88.8125 70.957031 88.480469 70.957031 88.070312 L 70.957031 70.738281 C 70.957031 70.328125 71.285156 69.996094 71.695312 69.996094 L 101.035156 69.996094 C 101.441406 69.996094 101.773438 70.328125 101.773438 70.738281 L 101.773438 88.070312 C 101.773438 88.480469 101.441406 88.8125 101.035156 88.816406 Z M 101.035156 88.816406 "/>
<path style=" stroke:none;fill-rule:nonzero;fill:rgb(24.705882%,44.313725%,79.607843%);fill-opacity:1;" d="M 91.234375 78.914062 C 90.933594 78.589844 90.515625 78.398438 90.070312 78.394531 C 89.632812 78.386719 89.203125 78.554688 88.890625 78.871094 L 80.632812 87.164062 C 80.179688 87.617188 79.445312 87.621094 78.992188 87.167969 L 77.765625 85.941406 C 77.132812 85.300781 76.101562 85.300781 75.464844 85.941406 L 73.097656 88.320312 L 99.628906 88.320312 L 99.628906 87.980469 Z M 91.234375 78.914062 "/>
<path style=" stroke:none;fill-rule:nonzero;fill:rgb(24.705882%,23.921569%,33.72549%);fill-opacity:1;" d="M 101.035156 88.816406 L 71.695312 88.816406 C 71.285156 88.8125 70.957031 88.480469 70.957031 88.070312 L 70.957031 70.738281 C 70.957031 70.328125 71.285156 69.996094 71.695312 69.996094 L 101.035156 69.996094 C 101.441406 69.996094 101.773438 70.328125 101.773438 70.738281 L 101.773438 88.070312 C 101.773438 88.480469 101.441406 88.8125 101.035156 88.816406 Z M 71.695312 70.492188 C 71.558594 70.492188 71.449219 70.601562 71.449219 70.738281 L 71.449219 88.070312 C 71.449219 88.207031 71.558594 88.320312 71.695312 88.320312 L 101.035156 88.320312 C 101.167969 88.320312 101.277344 88.207031 101.28125 88.070312 L 101.28125 70.738281 C 101.277344 70.601562 101.167969 70.492188 101.035156 70.492188 Z M 71.695312 70.492188 "/>
<path style=" stroke:none;fill-rule:nonzero;fill:rgb(100%,71.372549%,71.372549%);fill-opacity:1;" d="M 30.304688 85.917969 C 30.453125 85.386719 30.363281 84.8125 30.050781 84.351562 C 29.742188 83.894531 29.246094 83.597656 28.695312 83.542969 L 27.160156 77.070312 L 24.800781 79.589844 L 26.625 85.351562 C 26.59375 86.304688 27.273438 87.132812 28.214844 87.273438 C 29.152344 87.421875 30.050781 86.835938 30.304688 85.917969 Z M 30.304688 85.917969 "/>
<path style=" stroke:none;fill-rule:nonzero;fill:rgb(89.411765%,89.411765%,89.411765%);fill-opacity:1;" d="M 26.195312 83.570312 C 25.96875 83.496094 25.785156 83.328125 25.691406 83.109375 L 22.433594 75.101562 C 21.601562 73.179688 21.496094 71.023438 22.128906 69.03125 L 24.214844 62.460938 C 24.304688 61.5 24.894531 60.65625 25.765625 60.253906 C 26.640625 59.847656 27.660156 59.941406 28.445312 60.5 C 29.230469 61.054688 29.65625 61.992188 29.570312 62.953125 L 26.800781 73.53125 L 28.652344 81.839844 C 28.714844 82.191406 28.550781 82.539062 28.246094 82.714844 L 26.871094 83.503906 C 26.722656 83.585938 26.554688 83.625 26.382812 83.609375 C 26.320312 83.605469 26.257812 83.589844 26.195312 83.570312 Z M 26.195312 83.570312 "/>
<path style=" stroke:none;fill-rule:nonzero;fill:rgb(100%,71.372549%,71.372549%);fill-opacity:1;" d="M 37.785156 124.59375 L 40.0625 124.59375 L 41.140625 115.789062 L 37.785156 115.789062 Z M 37.785156 124.59375 "/>
<path style=" stroke:none;fill-rule:nonzero;fill:rgb(18.431373%,18.039216%,25.490196%);fill-opacity:1;" d="M 37.207031 123.851562 L 41.683594 123.851562 C 43.261719 123.851562 44.535156 125.132812 44.535156 126.714844 L 44.535156 126.804688 L 37.207031 126.804688 Z M 37.207031 123.851562 "/>
<path style=" stroke:none;fill-rule:nonzero;fill:rgb(100%,71.372549%,71.372549%);fill-opacity:1;" d="M 24.992188 124.59375 L 27.265625 124.59375 L 28.347656 115.789062 L 24.992188 115.789062 Z M 24.992188 124.59375 "/>
<path style=" stroke:none;fill-rule:nonzero;fill:rgb(18.431373%,18.039216%,25.490196%);fill-opacity:1;" d="M 24.414062 123.851562 L 28.890625 123.851562 C 30.464844 123.851562 31.746094 125.132812 31.746094 126.714844 L 31.746094 126.804688 L 24.414062 126.804688 Z M 24.414062 123.851562 "/>
<path style=" stroke:none;fill-rule:nonzero;fill:rgb(18.431373%,18.039216%,25.490196%);fill-opacity:1;" d="M 39.15625 80.179688 L 25.824219 79 C 25.824219 79 24.507812 87.441406 24.695312 90.792969 C 24.878906 94.144531 25.0625 99.359375 25.0625 99.359375 L 23.582031 122.078125 L 29.328125 121.332031 L 30.070312 102.523438 L 32.480469 92.285156 L 35.261719 105.316406 L 37.117188 122.078125 L 42.125 121.519531 L 40.453125 101.21875 C 40.453125 101.21875 41.9375 82.972656 39.15625 80.179688 Z M 39.15625 80.179688 "/>
<path style=" stroke:none;fill-rule:nonzero;fill:rgb(100%,72.156863%,72.156863%);fill-opacity:1;" d="M 37.488281 51.6875 C 37.488281 53.746094 35.828125 55.410156 33.777344 55.410156 C 31.730469 55.410156 30.070312 53.746094 30.070312 51.6875 C 30.070312 49.628906 31.730469 47.960938 33.777344 47.960938 C 35.828125 47.960938 37.488281 49.628906 37.488281 51.6875 Z M 37.488281 51.6875 "/>
<path style=" stroke:none;fill-rule:nonzero;fill:rgb(89.411765%,89.411765%,89.411765%);fill-opacity:1;" d="M 37.839844 60.003906 L 35.191406 57.886719 C 35.191406 57.886719 32.324219 55.664062 30.640625 57.304688 L 29.886719 58.390625 C 29.886719 58.390625 25.601562 60.003906 25.601562 62.050781 L 25.804688 73.289062 C 25.804688 73.289062 24.324219 79.058594 26.546875 79.433594 L 39.507812 80.484375 L 39.34375 69.75 Z M 37.839844 60.003906 "/>
<path style=" stroke:none;fill-rule:nonzero;fill:rgb(18.431373%,18.039216%,25.490196%);fill-opacity:1;" d="M 30.902344 54.949219 C 30.902344 54.949219 27.011719 52.152344 29.050781 48.800781 C 30.464844 46.476562 33.398438 46.660156 35.058594 46.988281 C 35.96875 47.160156 36.738281 47.765625 37.117188 48.613281 C 37.394531 49.265625 37.394531 49.917969 36.28125 49.917969 C 34.054688 49.917969 35.167969 51.59375 35.167969 51.59375 C 35.167969 51.59375 33.683594 51.964844 34.054688 53.269531 C 34.425781 54.574219 30.902344 54.949219 30.902344 54.949219 Z M 30.902344 54.949219 "/>
<path style=" stroke:none;fill-rule:nonzero;fill:rgb(100%,71.372549%,71.372549%);fill-opacity:1;" d="M 51.21875 79.628906 C 51.078125 79.09375 50.710938 78.644531 50.210938 78.410156 C 49.710938 78.171875 49.132812 78.167969 48.632812 78.402344 L 44.035156 73.609375 L 43.28125 76.984375 L 47.761719 81.015625 C 48.21875 81.855469 49.222656 82.21875 50.105469 81.867188 C 50.988281 81.511719 51.464844 80.546875 51.21875 79.628906 Z M 51.21875 79.628906 "/>
<path style=" stroke:none;fill-rule:nonzero;fill:rgb(89.411765%,89.411765%,89.411765%);fill-opacity:1;" d="M 46.492188 79.699219 C 46.257812 79.753906 46.015625 79.699219 45.828125 79.5625 L 38.972656 74.324219 C 37.28125 73.09375 36.097656 71.292969 35.636719 69.25 L 34.117188 62.523438 C 33.703125 61.652344 33.785156 60.625 34.332031 59.832031 C 34.878906 59.039062 35.804688 58.597656 36.765625 58.675781 C 37.726562 58.757812 38.566406 59.34375 38.976562 60.21875 L 41.9375 70.746094 L 47.738281 76.960938 C 47.964844 77.226562 48 77.609375 47.828125 77.917969 L 47.039062 79.296875 C 46.957031 79.445312 46.828125 79.5625 46.675781 79.636719 C 46.617188 79.664062 46.554688 79.6875 46.492188 79.699219 Z M 46.492188 79.699219 "/>
<path style=" stroke:none;fill-rule:nonzero;fill:rgb(79.215686%,79.215686%,79.215686%);fill-opacity:1;" d="M 140.664062 5.617188 L 33.578125 5.617188 C 33.492188 5.617188 33.421875 5.546875 33.421875 5.464844 C 33.421875 5.378906 33.492188 5.308594 33.578125 5.308594 L 140.664062 5.308594 C 140.75 5.308594 140.820312 5.378906 140.820312 5.464844 C 140.820312 5.546875 140.75 5.617188 140.664062 5.617188 Z M 140.664062 5.617188 "/>
<path style=" stroke:none;fill-rule:nonzero;fill:rgb(24.705882%,23.921569%,33.72549%);fill-opacity:1;" d="M 38.785156 1.714844 C 38.785156 2.667969 38.023438 3.433594 37.078125 3.433594 C 36.132812 3.433594 35.367188 2.667969 35.367188 1.714844 C 35.367188 0.769531 36.132812 0 37.078125 0 C 38.023438 0 38.785156 0.769531 38.785156 1.714844 Z M 38.785156 1.714844 "/>
<path style=" stroke:none;fill-rule:nonzero;fill:rgb(24.705882%,23.921569%,33.72549%);fill-opacity:1;" d="M 44.691406 1.714844 C 44.691406 2.667969 43.929688 3.433594 42.984375 3.433594 C 42.039062 3.433594 41.273438 2.667969 41.273438 1.714844 C 41.273438 0.769531 42.039062 0 42.984375 0 C 43.929688 0 44.691406 0.769531 44.691406 1.714844 Z M 44.691406 1.714844 "/>
<path style=" stroke:none;fill-rule:nonzero;fill:rgb(24.705882%,23.921569%,33.72549%);fill-opacity:1;" d="M 50.597656 1.714844 C 50.597656 2.667969 49.835938 3.433594 48.890625 3.433594 C 47.945312 3.433594 47.179688 2.667969 47.179688 1.714844 C 47.179688 0.769531 47.945312 0 48.890625 0 C 49.835938 0 50.597656 0.769531 50.597656 1.714844 Z M 50.597656 1.714844 "/>
<path style=" stroke:none;fill-rule:nonzero;fill:rgb(24.705882%,23.921569%,33.72549%);fill-opacity:1;" d="M 137.125 1.050781 L 132.929688 1.050781 C 132.757812 1.050781 132.621094 0.910156 132.621094 0.738281 C 132.621094 0.566406 132.757812 0.425781 132.929688 0.425781 L 137.125 0.425781 C 137.296875 0.425781 137.4375 0.566406 137.4375 0.738281 C 137.4375 0.910156 137.296875 1.050781 137.125 1.050781 Z M 137.125 1.050781 "/>
<path style=" stroke:none;fill-rule:nonzero;fill:rgb(24.705882%,23.921569%,33.72549%);fill-opacity:1;" d="M 137.125 2.21875 L 132.929688 2.21875 C 132.757812 2.21875 132.621094 2.082031 132.621094 1.910156 C 132.621094 1.734375 132.757812 1.597656 132.929688 1.597656 L 137.125 1.597656 C 137.296875 1.597656 137.4375 1.734375 137.4375 1.910156 C 137.4375 2.082031 137.296875 2.21875 137.125 2.21875 Z M 137.125 2.21875 "/>
<path style=" stroke:none;fill-rule:nonzero;fill:rgb(24.705882%,23.921569%,33.72549%);fill-opacity:1;" d="M 137.125 3.390625 L 132.929688 3.390625 C 132.757812 3.390625 132.621094 3.25 132.621094 3.082031 C 132.621094 2.90625 132.757812 2.769531 132.929688 2.769531 L 137.125 2.769531 C 137.296875 2.769531 137.4375 2.90625 137.4375 3.082031 C 137.4375 3.25 137.296875 3.390625 137.125 3.390625 Z M 137.125 3.390625 "/>
<path style=" stroke:none;fill-rule:nonzero;fill:rgb(79.215686%,79.215686%,79.215686%);fill-opacity:1;" d="M 70.828125 126.855469 L 0.183594 126.855469 C 0.0859375 126.855469 0 126.773438 0 126.671875 C 0 126.566406 0.0859375 126.480469 0.183594 126.480469 L 70.828125 126.480469 C 70.929688 126.480469 71.015625 126.566406 71.015625 126.671875 C 71.015625 126.773438 70.929688 126.855469 70.828125 126.855469 Z M 70.828125 126.855469 "/>
<path style=" stroke:none;fill-rule:nonzero;fill:rgb(24.705882%,44.313725%,79.607843%);fill-opacity:1;" d="M 108.386719 30.160156 L 64.394531 30.160156 C 63.886719 30.171875 63.453125 29.796875 63.382812 29.292969 C 63.351562 29.023438 63.441406 28.75 63.625 28.546875 C 63.808594 28.34375 64.066406 28.226562 64.339844 28.226562 L 108.320312 28.226562 C 108.835938 28.214844 109.277344 28.59375 109.347656 29.109375 C 109.371094 29.378906 109.28125 29.648438 109.097656 29.847656 C 108.917969 30.046875 108.65625 30.160156 108.386719 30.160156 Z M 108.386719 30.160156 "/>
</g>
</svg>
