<?xml version="1.0" encoding="UTF-8"?>
<svg xmlns="http://www.w3.org/2000/svg" xmlns:xlink="http://www.w3.org/1999/xlink" width="150px" height="106px" viewBox="0 0 150 106" version="1.1">
<g id="surface1">
<path style=" stroke:none;fill-rule:nonzero;fill:rgb(24.705882%,44.313725%,79.607843%);fill-opacity:1;" d="M 79.539062 43.96875 C 79.539062 46.613281 77.410156 48.761719 74.777344 48.761719 C 72.148438 48.761719 70.015625 46.613281 70.015625 43.96875 C 70.015625 41.320312 72.148438 39.175781 74.777344 39.175781 C 77.410156 39.175781 79.539062 41.320312 79.539062 43.96875 Z M 79.539062 43.96875 "/>
<path style=" stroke:none;fill-rule:nonzero;fill:rgb(24.705882%,23.921569%,33.72549%);fill-opacity:1;" d="M 22.757812 6.300781 L 22.757812 51.949219 C 22.757812 54.261719 24.621094 56.128906 26.914062 56.132812 L 145.542969 56.132812 C 147.835938 56.128906 149.695312 54.261719 149.699219 51.949219 L 149.699219 6.300781 C 149.695312 3.992188 147.835938 2.121094 145.542969 2.121094 L 26.914062 2.121094 C 24.621094 2.121094 22.757812 3.992188 22.757812 6.300781 Z M 23.125 6.300781 C 23.125 4.195312 24.820312 2.488281 26.914062 2.488281 L 120.816406 2.488281 C 136.566406 2.488281 149.332031 15.335938 149.332031 31.1875 L 149.332031 51.949219 C 149.332031 54.058594 147.636719 55.765625 145.542969 55.765625 L 26.914062 55.765625 C 24.820312 55.765625 23.125 54.058594 23.125 51.949219 Z M 23.125 6.300781 "/>
<path style=" stroke:none;fill-rule:nonzero;fill:rgb(100%,71.372549%,71.372549%);fill-opacity:1;" d="M 24.125 102.472656 L 26.78125 102.472656 L 28.046875 92.160156 L 24.125 92.160156 Z M 24.125 102.472656 "/>
<path style=" stroke:none;fill-rule:nonzero;fill:rgb(18.431373%,18.039216%,25.490196%);fill-opacity:1;" d="M 24.03125 105.265625 L 32.203125 105.265625 L 32.203125 105.160156 C 32.203125 103.394531 30.777344 101.960938 29.023438 101.960938 L 27.527344 100.820312 L 24.742188 101.960938 L 24.03125 101.960938 Z M 24.03125 105.265625 "/>
<path style=" stroke:none;fill-rule:nonzero;fill:rgb(100%,71.372549%,71.372549%);fill-opacity:1;" d="M 12.535156 102.472656 L 15.191406 102.472656 L 16.453125 92.160156 L 12.53125 92.160156 Z M 12.535156 102.472656 "/>
<path style=" stroke:none;fill-rule:nonzero;fill:rgb(18.431373%,18.039216%,25.490196%);fill-opacity:1;" d="M 12.4375 105.265625 L 20.609375 105.265625 L 20.609375 105.160156 C 20.609375 103.394531 19.1875 101.960938 17.429688 101.960938 L 15.9375 100.820312 L 13.152344 101.960938 L 12.4375 101.960938 Z M 12.4375 105.265625 "/>
<path style=" stroke:none;fill-rule:nonzero;fill:rgb(18.431373%,18.039216%,25.490196%);fill-opacity:1;" d="M 30.742188 46.269531 C 30.742188 46.269531 33.296875 54.171875 32.828125 55.214844 C 32.355469 56.253906 31.550781 55.441406 32.355469 56.253906 C 33.160156 57.0625 33.863281 56.203125 33.109375 57.578125 C 32.355469 58.953125 31.210938 70.28125 30.710938 70.828125 C 30.207031 71.378906 29.515625 71.394531 30.128906 71.925781 C 30.742188 72.457031 31.550781 71.378906 30.742188 72.457031 C 29.9375 73.539062 27.800781 98.464844 27.800781 98.464844 L 23.628906 98.464844 C 23.628906 98.464844 22.589844 97.257812 23.175781 96.472656 C 23.765625 95.6875 23.125 95.386719 23.175781 94.863281 C 23.230469 94.339844 23.03125 93.207031 22.996094 92.691406 C 22.960938 92.175781 22.253906 79.894531 23.949219 72.800781 L 20.859375 59.292969 L 17.117188 75.621094 C 17.117188 75.621094 18.839844 89.3125 17.117188 93.71875 C 17.117188 93.71875 18.503906 94.878906 17.890625 95.554688 C 17.273438 96.226562 16.738281 95.6875 17.273438 96.226562 C 17.808594 96.769531 16.46875 98.660156 16.46875 98.660156 L 11.90625 98.390625 L 9.324219 72.800781 C 9.324219 72.800781 8.886719 70.132812 9.324219 69.675781 C 9.757812 69.21875 9.757812 70.835938 9.757812 69.21875 L 9.757812 67.058594 C 9.757812 67.058594 10.011719 53.765625 10.042969 52.984375 C 10.078125 52.199219 13.300781 46.527344 13.300781 46.527344 Z M 30.742188 46.269531 "/>
<path style=" stroke:none;fill-rule:nonzero;fill:rgb(24.705882%,44.313725%,79.607843%);fill-opacity:1;" d="M 30.703125 18.972656 L 30.703125 34.558594 C 30.203125 36.066406 29.945312 37.648438 29.9375 39.238281 C 29.953125 41.886719 30.535156 44.9375 30.53125 46.273438 C 30.539062 46.449219 30.519531 46.628906 30.476562 46.800781 C 27.914062 54.273438 14.351562 47.480469 13.121094 46.84375 C 13.0625 46.816406 13.03125 46.800781 13.03125 46.800781 L 13.296875 38.425781 L 13.25 36.015625 L 12.9375 19.503906 L 13.21875 19.273438 L 15.707031 17.277344 L 15.949219 17.082031 L 16.695312 18.179688 L 23.359375 17.71875 L 25.902344 17.007812 L 26.695312 17.335938 L 30.269531 18.796875 Z M 30.703125 18.972656 "/>
<path style=" stroke:none;fill-rule:nonzero;fill:rgb(100%,71.372549%,71.372549%);fill-opacity:1;" d="M 53.921875 31.21875 L 49.253906 29.667969 L 48 32.226562 L 52.992188 33.691406 C 53.445312 34.417969 54.371094 34.671875 55.132812 34.285156 C 55.890625 33.898438 56.230469 32.996094 55.914062 32.199219 C 55.601562 31.402344 54.738281 30.976562 53.921875 31.21875 Z M 53.921875 31.21875 "/>
<path style=" stroke:none;fill-rule:nonzero;fill:rgb(24.705882%,44.313725%,79.607843%);fill-opacity:1;" d="M 26.179688 17.457031 L 26.160156 17.539062 C 25.796875 19.003906 25.332031 23.203125 26.328125 24.335938 C 27.609375 25.789062 37.964844 30.238281 40.019531 29.875 C 41.617188 29.59375 41.289062 29.6875 42.050781 30.488281 C 42.8125 31.285156 41.546875 31.472656 43.25 31.613281 C 44.953125 31.753906 44.984375 31.097656 45.351562 31.824219 C 45.714844 32.550781 45.390625 32.992188 46.550781 32.949219 C 47.707031 32.910156 47.996094 33.128906 48.398438 33.199219 C 48.796875 33.269531 51.296875 34.464844 51.296875 34.464844 C 51.296875 34.464844 52.304688 31.582031 53.566406 30.484375 C 53.566406 30.484375 50.667969 30.128906 50.449219 29.511719 C 50.230469 28.890625 50.40625 28.34375 49.648438 28.457031 C 48.886719 28.566406 48.492188 29.410156 48.597656 28.351562 C 48.703125 27.292969 43.226562 25.234375 43.226562 25.234375 C 39.921875 21.960938 33.132812 19.6875 26.179688 17.457031 Z M 26.179688 17.457031 "/>
<path style=" stroke:none;fill-rule:nonzero;fill:rgb(100%,71.372549%,71.372549%);fill-opacity:1;" d="M 11.367188 50.003906 L 11.15625 45.058594 L 8.332031 44.789062 L 8.742188 50.007812 C 8.230469 50.691406 8.320312 51.65625 8.949219 52.230469 C 9.578125 52.804688 10.539062 52.804688 11.164062 52.226562 C 11.796875 51.648438 11.882812 50.6875 11.367188 50.003906 Z M 11.367188 50.003906 "/>
<path style=" stroke:none;fill-rule:nonzero;fill:rgb(24.705882%,44.313725%,79.607843%);fill-opacity:1;" d="M 14.320312 19.023438 L 14.238281 19.03125 C 12.746094 19.207031 11.4375 20.113281 10.738281 21.457031 C 9.835938 23.179688 6.992188 34.84375 7.6875 36.445312 C 8.339844 37.9375 8.3125 37.570312 7.839844 38.574219 C 7.371094 39.574219 6.746094 38.449219 7.222656 40.101562 C 7.695312 41.753906 8.316406 41.550781 7.769531 42.152344 C 7.222656 42.753906 6.699219 42.601562 7.148438 43.679688 C 7.597656 44.757812 7.496094 45.105469 7.570312 45.507812 C 7.644531 45.90625 7.425781 48.683594 7.425781 48.683594 C 7.425781 48.683594 10.457031 48.609375 11.925781 49.40625 C 11.925781 49.40625 11.226562 46.554688 11.726562 46.128906 C 12.222656 45.703125 12.796875 45.679688 12.421875 45.003906 C 12.050781 44.328125 11.125 44.253906 12.148438 43.976562 C 13.167969 43.699219 13.136719 37.820312 13.136719 37.820312 Z M 14.320312 19.023438 "/>
<path style=" stroke:none;fill-rule:nonzero;fill:rgb(100%,71.372549%,71.372549%);fill-opacity:1;" d="M 21.59375 12.71875 C 21.476562 12.746094 21.355469 12.773438 21.234375 12.789062 C 20.871094 12.851562 20.503906 12.867188 20.136719 12.847656 C 17.476562 12.703125 15.355469 10.558594 15.222656 7.878906 C 15.09375 5.203125 17 2.859375 19.632812 2.457031 C 22.265625 2.050781 24.777344 3.71875 25.445312 6.3125 C 25.457031 6.355469 25.464844 6.398438 25.476562 6.4375 C 26.125 9.253906 24.386719 12.0625 21.59375 12.71875 Z M 21.59375 12.71875 "/>
<path style=" stroke:none;fill-rule:nonzero;fill:rgb(18.431373%,18.039216%,25.490196%);fill-opacity:1;" d="M 16.796875 12.101562 C 16.074219 11.535156 16.007812 10.449219 15.390625 9.765625 C 14.359375 8.621094 13.871094 7.390625 14.414062 6.035156 C 14.890625 4.839844 14.789062 3.363281 15.816406 2.59375 C 15.3125 2.40625 15.191406 2.027344 15.640625 2.019531 C 15.941406 2.015625 17.058594 2.59375 16.523438 1.871094 C 15.984375 1.152344 17.003906 1.4375 16.9375 1.140625 C 16.867188 0.847656 16.433594 0.683594 16.246094 0.917969 C 16.855469 0.195312 18.1875 0.351562 18.617188 1.191406 C 19.226562 0.273438 19.871094 -0.359375 20.800781 0.222656 C 21.714844 0.796875 21.703125 1.5 22.683594 1.332031 C 23.148438 1.253906 23.191406 2.128906 23.503906 2.476562 C 23.820312 2.828125 24.285156 3.097656 24.742188 3.011719 C 25.203125 2.921875 25.554688 2.34375 25.296875 1.953125 L 26.382812 4.441406 L 26.820312 3.902344 C 27.515625 4.359375 27.289062 5.546875 26.589844 5.996094 C 25.886719 6.445312 24.554688 5.40625 24.175781 6.152344 C 23.574219 7.320312 22.171875 6.726562 21.207031 5.902344 C 20.039062 4.902344 18.625 7.949219 19.1875 9.386719 C 18.605469 8.808594 17.523438 9.289062 17.222656 10.054688 C 16.921875 10.820312 17.140625 11.683594 17.367188 12.476562 Z M 16.796875 12.101562 "/>
<path style=" stroke:none;fill-rule:nonzero;fill:rgb(94.901961%,94.901961%,94.901961%);fill-opacity:1;" d="M 89 29.316406 L 83.5 29.316406 C 83.203125 29.316406 82.960938 29.074219 82.960938 28.773438 L 82.960938 23.308594 C 82.960938 23.007812 83.203125 22.765625 83.5 22.765625 L 89 22.765625 C 89.296875 22.765625 89.535156 23.007812 89.535156 23.308594 L 89.535156 28.773438 C 89.535156 29.074219 89.296875 29.316406 89 29.316406 Z M 89 29.316406 "/>
<path style=" stroke:none;fill-rule:nonzero;fill:rgb(94.901961%,94.901961%,94.901961%);fill-opacity:1;" d="M 89.914062 29.777344 L 84.414062 29.777344 C 84.117188 29.777344 83.878906 29.535156 83.878906 29.234375 L 83.878906 23.769531 C 83.878906 23.472656 84.117188 23.230469 84.414062 23.226562 L 89.914062 23.226562 C 90.210938 23.230469 90.449219 23.472656 90.449219 23.769531 L 90.449219 29.234375 C 90.449219 29.535156 90.210938 29.777344 89.914062 29.777344 Z M 89.914062 29.777344 "/>
<path style=" stroke:none;fill-rule:nonzero;fill:rgb(100%,100%,100%);fill-opacity:1;" d="M 83.617188 22.929688 C 83.34375 22.929688 83.121094 23.148438 83.121094 23.421875 L 83.121094 28.660156 C 83.121094 28.933594 83.34375 29.152344 83.617188 29.152344 L 86.976562 29.152344 C 88.300781 29.152344 89.375 28.074219 89.375 26.738281 L 89.375 23.421875 C 89.375 23.148438 89.15625 22.929688 88.882812 22.929688 Z M 83.617188 22.929688 "/>
<path style=" stroke:none;fill-rule:nonzero;fill:rgb(94.901961%,94.901961%,94.901961%);fill-opacity:1;" d="M 87.722656 24.515625 L 84.765625 24.515625 C 84.710938 24.515625 84.660156 24.472656 84.660156 24.414062 C 84.660156 24.355469 84.710938 24.3125 84.765625 24.3125 L 87.722656 24.3125 C 87.777344 24.3125 87.824219 24.355469 87.824219 24.414062 C 87.824219 24.472656 87.777344 24.515625 87.722656 24.515625 Z M 87.722656 24.515625 "/>
<path style=" stroke:none;fill-rule:nonzero;fill:rgb(94.901961%,94.901961%,94.901961%);fill-opacity:1;" d="M 87.722656 26.714844 L 84.765625 26.714844 C 84.710938 26.714844 84.660156 26.664062 84.660156 26.609375 C 84.660156 26.550781 84.710938 26.507812 84.765625 26.507812 L 87.722656 26.507812 C 87.777344 26.507812 87.824219 26.550781 87.824219 26.609375 C 87.824219 26.664062 87.777344 26.714844 87.722656 26.714844 Z M 87.722656 26.714844 "/>
<path style=" stroke:none;fill-rule:nonzero;fill:rgb(94.901961%,94.901961%,94.901961%);fill-opacity:1;" d="M 88.921875 25.617188 L 83.5625 25.617188 C 83.507812 25.617188 83.460938 25.570312 83.460938 25.511719 C 83.460938 25.453125 83.507812 25.410156 83.5625 25.410156 L 88.921875 25.410156 C 88.976562 25.410156 89.023438 25.453125 89.023438 25.511719 C 89.023438 25.570312 88.976562 25.617188 88.921875 25.617188 Z M 88.921875 25.617188 "/>
<path style=" stroke:none;fill-rule:nonzero;fill:rgb(94.901961%,94.901961%,94.901961%);fill-opacity:1;" d="M 88.976562 27.605469 L 87.039062 27.605469 C 86.984375 27.605469 86.941406 27.558594 86.941406 27.503906 C 86.941406 27.445312 86.984375 27.398438 87.039062 27.398438 L 88.976562 27.398438 C 89.035156 27.398438 89.078125 27.445312 89.078125 27.503906 C 89.078125 27.558594 89.035156 27.605469 88.976562 27.605469 Z M 88.976562 27.605469 "/>
<path style=" stroke:none;fill-rule:nonzero;fill:rgb(94.901961%,94.901961%,94.901961%);fill-opacity:1;" d="M 72.414062 32.738281 L 72.34375 32.703125 C 68.171875 30.625 63.65625 30.628906 58.542969 32.707031 L 58.40625 32.367188 C 63.59375 30.257812 68.183594 30.246094 72.433594 32.335938 C 78.417969 30.042969 82.265625 26.164062 83.867188 20.792969 L 84.21875 20.898438 C 82.574219 26.40625 78.628906 30.378906 72.488281 32.707031 Z M 72.414062 32.738281 "/>
<path style=" stroke:none;fill-rule:nonzero;fill:rgb(94.901961%,94.901961%,94.901961%);fill-opacity:1;" d="M 89.820312 32.738281 L 89.75 32.703125 C 85.648438 30.769531 81.132812 30.769531 75.941406 32.710938 L 75.816406 32.363281 C 81.070312 30.402344 85.65625 30.390625 89.832031 32.335938 C 96.53125 29.644531 100.375 25.765625 101.265625 20.8125 L 101.625 20.878906 C 100.710938 25.984375 96.765625 29.964844 89.894531 32.707031 Z M 89.820312 32.738281 "/>
<path style=" stroke:none;fill-rule:nonzero;fill:rgb(94.901961%,94.901961%,94.901961%);fill-opacity:1;" d="M 103.539062 32.542969 L 103.492188 32.523438 C 100.113281 31.0625 95.71875 31.0625 89.660156 32.53125 L 89.574219 32.175781 C 95.683594 30.691406 100.140625 30.6875 103.589844 32.164062 C 110.4375 31.320312 114.171875 27.550781 115 20.640625 L 115.367188 20.683594 C 114.507812 27.804688 110.65625 31.683594 103.585938 32.535156 Z M 103.539062 32.542969 "/>
<path style=" stroke:none;fill-rule:nonzero;fill:rgb(24.705882%,44.313725%,79.607843%);fill-opacity:1;" d="M 87.050781 20.1875 C 87.050781 21 86.394531 21.660156 85.585938 21.660156 C 84.777344 21.660156 84.121094 21 84.121094 20.1875 C 84.121094 19.371094 84.777344 18.710938 85.585938 18.710938 C 86.394531 18.710938 87.050781 19.371094 87.050781 20.1875 Z M 87.050781 20.1875 "/>
<path style=" stroke:none;fill-rule:nonzero;fill:rgb(24.705882%,44.313725%,79.607843%);fill-opacity:1;" d="M 103.539062 20.1875 C 103.539062 21 102.882812 21.660156 102.074219 21.660156 C 101.261719 21.660156 100.605469 21 100.605469 20.1875 C 100.605469 19.371094 101.261719 18.710938 102.074219 18.710938 C 102.882812 18.710938 103.539062 19.371094 103.539062 20.1875 Z M 103.539062 20.1875 "/>
<path style=" stroke:none;fill-rule:nonzero;fill:rgb(24.705882%,44.313725%,79.607843%);fill-opacity:1;" d="M 116.726562 20 C 116.726562 20.816406 116.070312 21.476562 115.261719 21.476562 C 114.453125 21.476562 113.796875 20.816406 113.796875 20 C 113.796875 19.1875 114.453125 18.527344 115.261719 18.527344 C 116.070312 18.527344 116.726562 19.1875 116.726562 20 Z M 116.726562 20 "/>
<path style=" stroke:none;fill-rule:nonzero;fill:rgb(90.196078%,90.196078%,90.196078%);fill-opacity:1;" d="M 74.410156 43.972656 L 59.007812 43.972656 C 58.175781 43.972656 57.5 43.292969 57.5 42.453125 L 57.5 27.140625 C 57.5 26.304688 58.175781 25.625 59.007812 25.625 L 74.410156 25.625 C 75.242188 25.625 75.917969 26.304688 75.917969 27.140625 L 75.917969 42.453125 C 75.917969 43.292969 75.242188 43.972656 74.410156 43.972656 Z M 74.410156 43.972656 "/>
<path style=" stroke:none;fill-rule:nonzero;fill:rgb(90.196078%,90.196078%,90.196078%);fill-opacity:1;" d="M 71.847656 42.679688 L 56.445312 42.679688 C 55.609375 42.679688 54.9375 42.003906 54.9375 41.164062 L 54.9375 25.851562 C 54.9375 25.011719 55.609375 24.335938 56.445312 24.335938 L 71.847656 24.335938 C 72.679688 24.335938 73.355469 25.011719 73.355469 25.851562 L 73.355469 41.164062 C 73.355469 42.003906 72.679688 42.679688 71.847656 42.679688 Z M 71.847656 42.679688 "/>
<path style=" stroke:none;fill-rule:nonzero;fill:rgb(100%,100%,100%);fill-opacity:1;" d="M 59.3125 24.785156 C 57.144531 24.785156 55.386719 26.554688 55.386719 28.738281 L 55.386719 40.839844 C 55.386719 41.605469 56.003906 42.230469 56.765625 42.230469 L 66.183594 42.230469 C 69.894531 42.230469 72.90625 39.203125 72.90625 35.464844 L 72.90625 26.175781 C 72.90625 25.410156 72.285156 24.785156 71.523438 24.785156 Z M 59.3125 24.785156 "/>
<path style=" stroke:none;fill-rule:nonzero;fill:rgb(90.196078%,90.196078%,90.196078%);fill-opacity:1;" d="M 68.269531 29.238281 L 59.988281 29.238281 C 59.828125 29.238281 59.699219 29.105469 59.699219 28.945312 C 59.699219 28.789062 59.828125 28.660156 59.988281 28.660156 L 68.269531 28.660156 C 68.429688 28.660156 68.558594 28.789062 68.558594 28.945312 C 68.558594 29.105469 68.429688 29.238281 68.269531 29.238281 Z M 68.269531 29.238281 "/>
<path style=" stroke:none;fill-rule:nonzero;fill:rgb(90.196078%,90.196078%,90.196078%);fill-opacity:1;" d="M 68.269531 35.386719 L 59.988281 35.386719 C 59.886719 35.386719 59.789062 35.332031 59.738281 35.242188 C 59.6875 35.152344 59.6875 35.042969 59.738281 34.953125 C 59.789062 34.863281 59.886719 34.808594 59.988281 34.808594 L 68.269531 34.808594 C 68.429688 34.808594 68.558594 34.9375 68.558594 35.097656 C 68.558594 35.257812 68.429688 35.386719 68.269531 35.386719 Z M 68.269531 35.386719 "/>
<path style=" stroke:none;fill-rule:nonzero;fill:rgb(90.196078%,90.196078%,90.196078%);fill-opacity:1;" d="M 71.636719 32.3125 L 56.625 32.3125 C 56.464844 32.3125 56.335938 32.183594 56.335938 32.027344 C 56.335938 31.867188 56.464844 31.734375 56.625 31.734375 L 71.636719 31.734375 C 71.792969 31.734375 71.917969 31.867188 71.917969 32.027344 C 71.917969 32.183594 71.792969 32.3125 71.636719 32.3125 Z M 71.636719 32.3125 "/>
<path style=" stroke:none;fill-rule:nonzero;fill:rgb(90.196078%,90.196078%,90.196078%);fill-opacity:1;" d="M 71.789062 37.886719 L 66.367188 37.886719 C 66.207031 37.886719 66.078125 37.757812 66.078125 37.597656 C 66.078125 37.441406 66.207031 37.3125 66.367188 37.3125 L 71.789062 37.3125 C 71.945312 37.3125 72.074219 37.441406 72.074219 37.597656 C 72.074219 37.757812 71.945312 37.886719 71.789062 37.886719 Z M 71.789062 37.886719 "/>
<path style=" stroke:none;fill-rule:nonzero;fill:rgb(94.901961%,94.901961%,94.901961%);fill-opacity:1;" d="M 108.414062 28.578125 L 102.917969 28.578125 C 102.621094 28.578125 102.378906 28.335938 102.378906 28.039062 L 102.378906 22.570312 C 102.378906 22.273438 102.621094 22.03125 102.917969 22.03125 L 108.414062 22.03125 C 108.710938 22.03125 108.953125 22.273438 108.953125 22.570312 L 108.953125 28.039062 C 108.953125 28.335938 108.710938 28.578125 108.414062 28.578125 Z M 108.414062 28.578125 "/>
<path style=" stroke:none;fill-rule:nonzero;fill:rgb(94.901961%,94.901961%,94.901961%);fill-opacity:1;" d="M 109.332031 29.039062 L 103.832031 29.039062 C 103.535156 29.039062 103.292969 28.796875 103.292969 28.496094 L 103.292969 23.03125 C 103.292969 22.730469 103.535156 22.488281 103.832031 22.488281 L 109.332031 22.488281 C 109.628906 22.488281 109.867188 22.730469 109.867188 23.03125 L 109.867188 28.496094 C 109.867188 28.796875 109.628906 29.039062 109.332031 29.039062 Z M 109.332031 29.039062 "/>
<path style=" stroke:none;fill-rule:nonzero;fill:rgb(100%,100%,100%);fill-opacity:1;" d="M 103.03125 22.191406 C 102.761719 22.191406 102.539062 22.414062 102.539062 22.6875 L 102.539062 27.921875 C 102.539062 28.195312 102.761719 28.417969 103.03125 28.417969 L 106.394531 28.417969 C 107.71875 28.417969 108.792969 27.335938 108.792969 26.003906 L 108.792969 22.6875 C 108.792969 22.414062 108.570312 22.191406 108.300781 22.191406 Z M 103.03125 22.191406 "/>
<path style=" stroke:none;fill-rule:nonzero;fill:rgb(94.901961%,94.901961%,94.901961%);fill-opacity:1;" d="M 107.136719 23.78125 L 104.179688 23.78125 C 104.125 23.78125 104.078125 23.734375 104.078125 23.675781 C 104.078125 23.621094 104.125 23.574219 104.179688 23.574219 L 107.136719 23.574219 C 107.195312 23.574219 107.242188 23.621094 107.242188 23.675781 C 107.242188 23.734375 107.195312 23.78125 107.136719 23.78125 Z M 107.136719 23.78125 "/>
<path style=" stroke:none;fill-rule:nonzero;fill:rgb(94.901961%,94.901961%,94.901961%);fill-opacity:1;" d="M 107.136719 25.972656 L 104.179688 25.972656 C 104.125 25.972656 104.078125 25.929688 104.078125 25.871094 C 104.078125 25.816406 104.125 25.769531 104.179688 25.769531 L 107.136719 25.769531 C 107.195312 25.769531 107.242188 25.816406 107.242188 25.871094 C 107.242188 25.929688 107.195312 25.972656 107.136719 25.972656 Z M 107.136719 25.972656 "/>
<path style=" stroke:none;fill-rule:nonzero;fill:rgb(94.901961%,94.901961%,94.901961%);fill-opacity:1;" d="M 108.339844 24.875 L 102.980469 24.875 C 102.925781 24.875 102.878906 24.832031 102.878906 24.777344 C 102.878906 24.71875 102.925781 24.671875 102.980469 24.671875 L 108.339844 24.671875 C 108.394531 24.671875 108.441406 24.71875 108.441406 24.777344 C 108.441406 24.832031 108.394531 24.875 108.339844 24.875 Z M 108.339844 24.875 "/>
<path style=" stroke:none;fill-rule:nonzero;fill:rgb(94.901961%,94.901961%,94.901961%);fill-opacity:1;" d="M 108.394531 26.867188 L 106.457031 26.867188 C 106.402344 26.867188 106.355469 26.820312 106.355469 26.765625 C 106.355469 26.707031 106.402344 26.660156 106.457031 26.660156 L 108.394531 26.660156 C 108.449219 26.660156 108.496094 26.707031 108.496094 26.765625 C 108.496094 26.820312 108.449219 26.867188 108.394531 26.867188 Z M 108.394531 26.867188 "/>
<path style=" stroke:none;fill-rule:nonzero;fill:rgb(94.901961%,94.901961%,94.901961%);fill-opacity:1;" d="M 45.382812 102.714844 C 45.207031 102.722656 45.046875 102.621094 44.980469 102.457031 C 44.914062 102.296875 44.953125 102.109375 45.078125 101.988281 L 45.109375 101.875 C 45.105469 101.867188 45.101562 101.855469 45.097656 101.847656 C 44.921875 101.429688 44.515625 101.160156 44.066406 101.160156 C 43.613281 101.164062 43.210938 101.4375 43.039062 101.855469 C 42.703125 102.671875 42.273438 103.488281 42.167969 104.351562 C 42.121094 104.734375 42.140625 105.121094 42.226562 105.496094 C 41.433594 103.761719 41.023438 101.871094 41.023438 99.960938 C 41.023438 99.484375 41.046875 99.003906 41.101562 98.527344 C 41.144531 98.136719 41.207031 97.746094 41.285156 97.363281 C 41.707031 95.273438 42.617188 93.316406 43.9375 91.652344 C 44.578125 91.296875 45.097656 90.757812 45.421875 90.101562 C 45.539062 89.867188 45.621094 89.617188 45.667969 89.355469 C 45.597656 89.363281 45.394531 88.257812 45.453125 88.191406 C 45.351562 88.035156 45.171875 87.960938 45.0625 87.808594 C 44.515625 87.066406 43.761719 87.195312 43.371094 88.207031 C 42.53125 88.632812 42.523438 89.34375 43.035156 90.019531 C 43.363281 90.453125 43.410156 91.039062 43.695312 91.503906 C 43.667969 91.539062 43.636719 91.578125 43.605469 91.617188 C 43.066406 92.316406 42.59375 93.066406 42.199219 93.859375 C 42.292969 92.972656 42.179688 92.074219 41.867188 91.238281 C 41.542969 90.460938 40.945312 89.808594 40.414062 89.136719 C 40.128906 88.765625 39.652344 88.605469 39.203125 88.730469 C 38.753906 88.855469 38.425781 89.238281 38.367188 89.703125 C 38.367188 89.710938 38.363281 89.722656 38.363281 89.734375 C 38.441406 89.777344 38.519531 89.824219 38.59375 89.875 C 38.789062 90.003906 38.882812 90.242188 38.832031 90.46875 C 38.78125 90.699219 38.597656 90.871094 38.367188 90.90625 L 38.355469 90.910156 C 38.382812 91.195312 38.433594 91.476562 38.503906 91.753906 C 37.824219 94.394531 39.289062 95.355469 41.378906 95.398438 C 41.425781 95.421875 41.472656 95.445312 41.515625 95.46875 C 41.121094 96.597656 40.871094 97.777344 40.777344 98.976562 C 40.722656 99.679688 40.726562 100.390625 40.785156 101.09375 L 40.78125 101.070312 C 40.632812 100.285156 40.214844 99.578125 39.605469 99.066406 C 38.699219 98.320312 37.417969 98.042969 36.441406 97.441406 C 36.230469 97.300781 35.957031 97.300781 35.746094 97.4375 C 35.53125 97.574219 35.417969 97.820312 35.453125 98.074219 L 35.457031 98.101562 C 35.601562 98.160156 35.742188 98.226562 35.878906 98.308594 C 35.957031 98.351562 36.035156 98.398438 36.109375 98.449219 C 36.304688 98.578125 36.398438 98.8125 36.347656 99.042969 C 36.296875 99.273438 36.113281 99.445312 35.882812 99.480469 L 35.871094 99.484375 C 35.863281 99.484375 35.855469 99.484375 35.847656 99.488281 C 36.097656 100.085938 36.445312 100.636719 36.882812 101.113281 C 37.304688 103.417969 39.125 103.636719 41.074219 102.964844 C 41.289062 103.902344 41.597656 104.808594 41.996094 105.679688 L 45.296875 105.679688 C 45.3125 105.644531 45.320312 105.605469 45.332031 105.566406 C 45.027344 105.589844 44.722656 105.570312 44.417969 105.511719 C 44.664062 105.210938 44.910156 104.90625 45.15625 104.605469 C 45.160156 104.597656 45.164062 104.59375 45.167969 104.585938 C 45.292969 104.429688 45.417969 104.277344 45.542969 104.121094 C 45.550781 103.648438 45.496094 103.175781 45.382812 102.714844 Z M 45.382812 102.714844 "/>
<path style=" stroke:none;fill-rule:nonzero;fill:rgb(80%,80%,80%);fill-opacity:1;" d="M 0.265625 105.6875 C 0.265625 105.746094 0.285156 105.804688 0.328125 105.84375 C 0.371094 105.886719 0.425781 105.910156 0.484375 105.910156 L 46.878906 105.910156 C 47 105.910156 47.097656 105.8125 47.097656 105.6875 C 47.097656 105.570312 47 105.46875 46.878906 105.46875 L 0.484375 105.46875 C 0.425781 105.46875 0.371094 105.492188 0.328125 105.535156 C 0.285156 105.574219 0.265625 105.632812 0.265625 105.6875 Z M 0.265625 105.6875 "/>
<path style=" stroke:none;fill-rule:nonzero;fill:rgb(94.901961%,94.901961%,94.901961%);fill-opacity:1;" d="M 20.136719 12.847656 L 21.234375 12.789062 C 20.871094 12.851562 20.503906 12.867188 20.136719 12.847656 Z M 20.136719 12.847656 "/>
<path style=" stroke:none;fill-rule:nonzero;fill:rgb(24.705882%,23.921569%,33.72549%);fill-opacity:1;" d="M 26.695312 17.335938 L 26.515625 17.566406 L 26.027344 18.191406 L 21.820312 23.574219 L 15.707031 17.277344 L 15.949219 17.082031 L 17.246094 14.308594 L 23.910156 13.847656 L 25.902344 17.007812 Z M 26.695312 17.335938 "/>
</g>
</svg>
