<?xml version="1.0" encoding="UTF-8"?>
<svg xmlns="http://www.w3.org/2000/svg" xmlns:xlink="http://www.w3.org/1999/xlink" width="123px" height="140px" viewBox="0 0 123 139" version="1.1">
<g id="surface1">
<path style=" stroke:none;fill-rule:nonzero;fill:rgb(94.901961%,94.901961%,94.901961%);fill-opacity:1;" d="M 79.019531 102.796875 C 79.582031 103.097656 80.277344 103.015625 80.753906 102.589844 C 81.230469 102.167969 81.390625 101.492188 81.152344 100.902344 C 81.1875 100.746094 81.207031 100.640625 81.238281 100.484375 C 82.457031 99.355469 84.25 99.074219 85.761719 99.769531 C 87.277344 100.472656 88.210938 102.011719 88.128906 103.664062 C 87.9375 108.222656 88.164062 113.148438 85.109375 116.824219 C 99.054688 105.519531 105.414062 86.257812 101.15625 68.933594 C 99.066406 66.046875 98.09375 62.207031 99.027344 58.730469 C 100.203125 59.863281 102.5 59.5625 102.144531 57.59375 C 101.957031 56.820312 101.765625 56.046875 101.574219 55.269531 C 109.609375 52.160156 111.707031 64.007812 102.191406 68.832031 C 102.960938 72.125 103.386719 75.492188 103.453125 78.871094 C 104.527344 75.824219 106.316406 73.070312 108.671875 70.839844 C 110.949219 68.804688 113.964844 67.609375 116.769531 66.242188 C 120.183594 64.574219 123.972656 67.878906 122.628906 71.410156 C 120.355469 71.117188 118.75 73.8125 120.8125 75.261719 C 117.191406 81.296875 110.246094 85.132812 103.1875 85.191406 C 102.476562 92.078125 100.289062 98.734375 96.78125 104.714844 C 101.289062 97.914062 110.011719 99.871094 116.902344 99.582031 C 117.839844 99.464844 118.753906 99.910156 119.238281 100.710938 C 119.722656 101.511719 119.683594 102.519531 119.140625 103.285156 C 118.234375 103.230469 117.320312 103.265625 116.421875 103.390625 C 115.554688 103.519531 114.863281 104.175781 114.691406 105.027344 C 114.523438 105.878906 114.910156 106.746094 115.664062 107.191406 C 109.617188 112.691406 100.246094 113.875 92.890625 110.367188 C 90.71875 113.082031 88.265625 115.566406 85.574219 117.78125 L 74.640625 112.613281 C 74.660156 112.472656 74.679688 112.332031 74.703125 112.195312 C 75.683594 112.738281 76.730469 113.15625 77.8125 113.445312 C 76.648438 109.035156 75.347656 106.453125 79.019531 102.796875 Z M 79.019531 102.796875 "/>
<path style=" stroke:none;fill-rule:nonzero;fill:rgb(94.901961%,94.901961%,94.901961%);fill-opacity:1;" d="M 59.699219 92.363281 C 59.289062 92.851562 58.613281 93.035156 58.011719 92.820312 C 57.40625 92.605469 57.003906 92.042969 57 91.40625 C 56.910156 91.277344 56.851562 91.183594 56.761719 91.054688 C 55.203125 90.460938 53.4375 90.871094 52.300781 92.085938 C 51.164062 93.296875 50.882812 95.074219 51.589844 96.574219 C 53.5 100.726562 55.160156 105.371094 59.390625 107.632812 C 42.175781 102.378906 28.960938 86.921875 26.320312 69.285156 C 27.15625 65.828125 26.601562 61.910156 24.410156 59.039062 C 23.75 60.53125 21.511719 61.105469 21.089844 59.152344 C 20.96875 58.367188 20.855469 57.578125 20.734375 56.785156 C 12.113281 56.914062 14.671875 68.671875 25.320312 69.578125 C 25.859375 72.917969 26.746094 76.191406 27.972656 79.347656 C 25.816406 76.925781 23.113281 75.046875 20.085938 73.863281 C 17.199219 72.832031 13.949219 72.851562 10.832031 72.632812 C 7.039062 72.367188 4.785156 76.847656 7.371094 79.609375 C 9.367188 78.496094 11.878906 80.386719 10.519531 82.5 C 16.167969 86.734375 24.058594 87.6875 30.617188 85.101562 C 33.894531 91.214844 38.449219 96.558594 43.976562 100.785156 C 37.214844 96.171875 29.882812 101.25 23.386719 103.5625 C 22.476562 103.804688 21.796875 104.558594 21.652344 105.480469 C 21.507812 106.402344 21.929688 107.324219 22.722656 107.824219 C 23.542969 107.4375 24.398438 107.128906 25.28125 106.910156 C 26.132812 106.703125 27.023438 107.050781 27.503906 107.777344 C 27.988281 108.503906 27.957031 109.453125 27.429688 110.148438 C 35.121094 112.976562 44.25 110.566406 49.726562 104.5625 C 52.773438 106.265625 55.992188 107.648438 59.324219 108.691406 L 67.484375 99.8125 C 67.414062 99.691406 67.339844 99.570312 67.265625 99.449219 C 66.5625 100.320312 65.753906 101.101562 64.859375 101.773438 C 64.261719 97.253906 64.484375 94.375 59.699219 92.363281 Z M 59.699219 92.363281 "/>
<path style=" stroke:none;fill-rule:nonzero;fill:rgb(94.901961%,94.901961%,94.901961%);fill-opacity:1;" d="M 61.796875 54.84375 C 62.4375 54.777344 62.964844 54.328125 63.121094 53.710938 C 63.28125 53.09375 63.035156 52.445312 62.503906 52.085938 C 62.445312 51.941406 62.402344 51.839844 62.339844 51.691406 C 62.71875 50.082031 64.046875 48.855469 65.695312 48.597656 C 67.34375 48.339844 68.988281 49.101562 69.84375 50.523438 C 72.253906 54.414062 75.207031 58.375 74.738281 63.113281 C 79.960938 46.015625 74.414062 26.511719 61.140625 14.488281 C 57.785156 13.242188 54.820312 10.597656 53.644531 7.191406 C 55.257812 7.480469 56.988281 5.960938 55.59375 4.527344 C 55 3.984375 54.40625 3.449219 53.8125 2.90625 C 58.730469 -4.117188 67.132812 4.5625 61.945312 13.828125 C 64.4375 16.132812 66.679688 18.695312 68.632812 21.464844 C 67.8125 18.339844 67.75 15.066406 68.453125 11.914062 C 69.199219 8.960938 71.03125 6.296875 72.589844 3.613281 C 74.488281 0.339844 79.492188 0.988281 80.359375 4.660156 C 78.3125 5.679688 78.492188 8.804688 81.015625 8.867188 C 81.402344 15.878906 77.792969 22.90625 71.96875 26.859375 C 75.246094 32.964844 77.171875 39.699219 77.621094 46.609375 C 77.542969 38.46875 85.882812 35.269531 91.441406 31.21875 C 92.152344 30.605469 93.160156 30.464844 94.011719 30.863281 C 94.867188 31.257812 95.398438 32.121094 95.378906 33.054688 C 94.59375 33.511719 93.859375 34.042969 93.183594 34.648438 C 92.535156 35.230469 92.328125 36.160156 92.667969 36.960938 C 93.003906 37.761719 93.8125 38.269531 94.691406 38.222656 C 92.761719 46.128906 85.644531 52.296875 77.570312 53.449219 C 77.289062 56.910156 76.652344 60.328125 75.660156 63.65625 L 63.679688 65.410156 C 63.617188 65.285156 63.554688 65.152344 63.5 65.027344 C 64.617188 64.933594 65.71875 64.707031 66.785156 64.347656 C 63.335938 61.328125 60.804688 59.902344 61.796875 54.84375 Z M 61.796875 54.84375 "/>
<path style=" stroke:none;fill-rule:nonzero;fill:rgb(18.431373%,18.039216%,25.490196%);fill-opacity:1;" d="M 73.851562 51.03125 C 68.394531 51.03125 65.433594 50.367188 64.402344 48.957031 C 63.488281 47.710938 64.101562 46.066406 64.808594 44.164062 C 65.316406 42.796875 65.894531 41.25 65.894531 39.710938 C 65.894531 32.253906 69.707031 28.46875 77.230469 28.46875 C 80.972656 28.46875 84.992188 30.441406 87.980469 33.742188 C 90.695312 36.75 92.046875 40.34375 91.691406 43.605469 C 91.398438 46.28125 90.140625 48.042969 87.738281 49.144531 L 87.597656 49.210938 L 87.558594 49.0625 C 87.351562 48.292969 87 47.570312 86.523438 46.929688 C 86.476562 47.9375 86.222656 48.917969 85.773438 49.820312 L 85.75 49.871094 L 85.691406 49.886719 C 82.972656 50.65625 79.746094 50.863281 77.234375 50.960938 C 76.015625 51.007812 74.886719 51.03125 73.851562 51.03125 Z M 73.851562 51.03125 "/>
<path style=" stroke:none;fill-rule:nonzero;fill:rgb(100%,71.372549%,71.372549%);fill-opacity:1;" d="M 75.335938 61.425781 C 74.914062 60.191406 73.914062 59.234375 72.652344 58.855469 C 71.390625 58.476562 70.023438 58.726562 68.980469 59.523438 L 51.035156 70.164062 L 45.421875 56.574219 C 46.394531 55.15625 46.339844 53.28125 45.277344 51.925781 C 44.222656 50.570312 42.402344 50.046875 40.78125 50.625 C 39.152344 51.203125 38.089844 52.757812 38.144531 54.46875 C 38.195312 56.183594 39.359375 57.667969 41.015625 58.144531 C 41.363281 62.0625 43.285156 79.582031 49.976562 78.945312 C 55.601562 78.410156 69.566406 69.183594 73.90625 65.980469 C 75.328125 64.933594 75.90625 63.09375 75.335938 61.425781 Z M 75.335938 61.425781 "/>
<path style=" stroke:none;fill-rule:nonzero;fill:rgb(18.431373%,18.039216%,25.490196%);fill-opacity:1;" d="M 88.855469 138.726562 L 73.242188 138.726562 L 70.621094 125.878906 L 69.773438 138.726562 L 55.265625 138.726562 C 55.269531 128.636719 55.800781 118.558594 56.851562 108.523438 L 57.03125 107.914062 L 57.316406 106.941406 L 57.496094 106.332031 L 60.5 96.105469 L 60.734375 95.292969 L 78.8125 95.292969 C 79.851562 96.261719 80.8125 97.316406 81.683594 98.4375 C 81.972656 98.808594 82.28125 99.214844 82.601562 99.648438 C 82.816406 99.957031 83.042969 100.277344 83.269531 100.617188 C 85.285156 103.59375 86.789062 106.875 87.726562 110.335938 L 87.726562 110.339844 C 87.886719 110.929688 88.027344 111.535156 88.148438 112.160156 C 88.257812 112.710938 88.355469 113.269531 88.429688 113.839844 C 88.488281 114.257812 88.539062 114.675781 88.574219 115.105469 C 88.792969 117.46875 88.714844 119.847656 88.347656 122.191406 Z M 88.855469 138.726562 "/>
<path style=" stroke:none;fill-rule:nonzero;fill:rgb(90.196078%,90.196078%,90.196078%);fill-opacity:1;" d="M 7.394531 19.292969 C 7.121094 18.59375 6.078125 18.339844 5.066406 18.734375 C 4.050781 19.121094 3.449219 20.003906 3.722656 20.703125 C 3.996094 21.402344 5.039062 21.65625 6.054688 21.265625 C 7.066406 20.878906 7.667969 19.996094 7.394531 19.292969 Z M 7.394531 19.292969 "/>
<path style=" stroke:none;fill-rule:nonzero;fill:rgb(24.705882%,23.921569%,33.72549%);fill-opacity:1;" d="M 20.167969 17.667969 C 19.894531 16.96875 18.851562 16.71875 17.835938 17.105469 C 16.820312 17.496094 16.222656 18.378906 16.496094 19.078125 C 16.765625 19.78125 17.808594 20.03125 18.824219 19.640625 C 19.839844 19.25 20.4375 18.367188 20.167969 17.667969 Z M 20.167969 17.667969 "/>
<path style=" stroke:none;fill-rule:nonzero;fill:rgb(100%,39.607843%,51.764706%);fill-opacity:1;" d="M 6.289062 30.101562 C 6.015625 29.402344 4.972656 29.148438 3.957031 29.539062 C 2.941406 29.929688 2.34375 30.8125 2.617188 31.511719 C 2.886719 32.210938 3.933594 32.464844 4.945312 32.074219 C 5.960938 31.683594 6.5625 30.800781 6.289062 30.101562 Z M 6.289062 30.101562 "/>
<path style=" stroke:none;fill-rule:nonzero;fill:rgb(90.196078%,90.196078%,90.196078%);fill-opacity:1;" d="M 1.808594 35.441406 C 1.652344 34.78125 1.144531 34.328125 0.679688 34.441406 C 0.214844 34.550781 -0.0351562 35.175781 0.121094 35.839844 C 0.28125 36.5 0.785156 36.953125 1.253906 36.84375 C 1.71875 36.730469 1.96875 36.105469 1.808594 35.441406 Z M 1.808594 35.441406 "/>
<path style=" stroke:none;fill-rule:nonzero;fill:rgb(24.705882%,23.921569%,33.72549%);fill-opacity:1;" d="M 1.734375 43.511719 C 1.574219 42.851562 1.070312 42.402344 0.601562 42.511719 C 0.140625 42.621094 -0.113281 43.246094 0.046875 43.910156 C 0.203125 44.574219 0.710938 45.023438 1.175781 44.914062 C 1.644531 44.804688 1.890625 44.179688 1.734375 43.511719 Z M 1.734375 43.511719 "/>
<path style=" stroke:none;fill-rule:nonzero;fill:rgb(90.196078%,90.196078%,90.196078%);fill-opacity:1;" d="M 12.941406 26.796875 C 12.78125 26.132812 12.277344 25.683594 11.8125 25.792969 C 11.34375 25.902344 11.097656 26.53125 11.253906 27.191406 C 11.414062 27.855469 11.917969 28.304688 12.386719 28.195312 C 12.851562 28.085938 13.097656 27.460938 12.941406 26.796875 Z M 12.941406 26.796875 "/>
<path style=" stroke:none;fill-rule:nonzero;fill:rgb(100%,39.607843%,51.764706%);fill-opacity:1;" d="M 6.214844 25.175781 C 6.058594 24.511719 5.550781 24.0625 5.085938 24.171875 C 4.621094 24.28125 4.371094 24.910156 4.527344 25.570312 C 4.6875 26.234375 5.195312 26.683594 5.660156 26.574219 C 6.125 26.46875 6.375 25.839844 6.214844 25.175781 Z M 6.214844 25.175781 "/>
<path style=" stroke:none;fill-rule:nonzero;fill:rgb(24.705882%,23.921569%,33.72549%);fill-opacity:1;" d="M 13.34375 17.746094 C 13.1875 17.078125 12.679688 16.632812 12.214844 16.738281 C 11.75 16.847656 11.5 17.476562 11.660156 18.140625 C 11.816406 18.804688 12.324219 19.25 12.785156 19.140625 C 13.253906 19.035156 13.503906 18.40625 13.34375 17.746094 Z M 13.34375 17.746094 "/>
<path style=" stroke:none;fill-rule:nonzero;fill:rgb(90.196078%,90.196078%,90.196078%);fill-opacity:1;" d="M 15.492188 72.707031 C 14.664062 72.003906 13.59375 71.902344 13.105469 72.476562 C 12.613281 73.046875 12.886719 74.078125 13.714844 74.773438 C 14.546875 75.476562 15.613281 75.578125 16.105469 75.007812 C 16.59375 74.4375 16.320312 73.40625 15.492188 72.707031 Z M 15.492188 72.707031 "/>
<path style=" stroke:none;fill-rule:nonzero;fill:rgb(24.705882%,23.921569%,33.72549%);fill-opacity:1;" d="M 7.972656 62.339844 C 7.140625 61.640625 6.074219 61.539062 5.582031 62.109375 C 5.09375 62.679688 5.367188 63.710938 6.195312 64.410156 C 7.023438 65.109375 8.089844 65.214844 8.582031 64.640625 C 9.070312 64.070312 8.796875 63.039062 7.972656 62.339844 Z M 7.972656 62.339844 "/>
<path style=" stroke:none;fill-rule:nonzero;fill:rgb(100%,39.607843%,51.764706%);fill-opacity:1;" d="M 25.597656 68.523438 C 24.769531 67.828125 23.703125 67.722656 23.210938 68.292969 C 22.722656 68.867188 22.996094 69.894531 23.824219 70.597656 C 24.652344 71.292969 25.722656 71.398438 26.210938 70.828125 C 26.703125 70.253906 26.429688 69.226562 25.597656 68.523438 Z M 25.597656 68.523438 "/>
<path style=" stroke:none;fill-rule:nonzero;fill:rgb(90.196078%,90.196078%,90.196078%);fill-opacity:1;" d="M 31.585938 69.476562 C 31.265625 69.125 30.589844 69.207031 30.078125 69.660156 C 29.566406 70.113281 29.410156 70.769531 29.726562 71.125 C 30.046875 71.476562 30.71875 71.394531 31.234375 70.941406 C 31.746094 70.488281 31.902344 69.832031 31.585938 69.476562 Z M 31.585938 69.476562 "/>
<path style=" stroke:none;fill-rule:nonzero;fill:rgb(24.705882%,23.921569%,33.72549%);fill-opacity:1;" d="M 38.777344 65.703125 C 38.457031 65.347656 37.78125 65.429688 37.273438 65.882812 C 36.757812 66.335938 36.601562 66.992188 36.917969 67.347656 C 37.234375 67.699219 37.910156 67.617188 38.425781 67.164062 C 38.9375 66.710938 39.09375 66.054688 38.777344 65.703125 Z M 38.777344 65.703125 "/>
<path style=" stroke:none;fill-rule:nonzero;fill:rgb(90.196078%,90.196078%,90.196078%);fill-opacity:1;" d="M 18.621094 63.886719 C 18.300781 63.53125 17.628906 63.613281 17.113281 64.066406 C 16.601562 64.519531 16.445312 65.175781 16.761719 65.527344 C 17.082031 65.882812 17.753906 65.800781 18.269531 65.347656 C 18.777344 64.894531 18.9375 64.238281 18.621094 63.886719 Z M 18.621094 63.886719 "/>
<path style=" stroke:none;fill-rule:nonzero;fill:rgb(100%,39.607843%,51.764706%);fill-opacity:1;" d="M 20.382812 70.523438 C 20.066406 70.171875 19.394531 70.253906 18.878906 70.707031 C 18.367188 71.160156 18.210938 71.8125 18.527344 72.167969 C 18.847656 72.523438 19.523438 72.441406 20.035156 71.988281 C 20.546875 71.535156 20.703125 70.875 20.382812 70.523438 Z M 20.382812 70.523438 "/>
<path style=" stroke:none;fill-rule:nonzero;fill:rgb(24.705882%,23.921569%,33.72549%);fill-opacity:1;" d="M 10.402344 67.84375 C 10.085938 67.492188 9.410156 67.570312 8.898438 68.027344 C 8.386719 68.480469 8.226562 69.132812 8.546875 69.488281 C 8.863281 69.84375 9.539062 69.761719 10.050781 69.308594 C 10.566406 68.851562 10.71875 68.195312 10.402344 67.84375 Z M 10.402344 67.84375 "/>
<path style=" stroke:none;fill-rule:nonzero;fill:rgb(90.196078%,90.196078%,90.196078%);fill-opacity:1;" d="M 66.988281 6.171875 C 66.507812 5.203125 65.570312 4.6875 64.890625 5.015625 C 64.210938 5.347656 64.050781 6.402344 64.53125 7.367188 C 65.011719 8.335938 65.949219 8.851562 66.628906 8.523438 C 67.304688 8.191406 67.46875 7.136719 66.988281 6.171875 Z M 66.988281 6.171875 "/>
<path style=" stroke:none;fill-rule:nonzero;fill:rgb(24.705882%,23.921569%,33.72549%);fill-opacity:1;" d="M 69.738281 18.644531 C 69.257812 17.679688 68.320312 17.164062 67.640625 17.496094 C 66.960938 17.824219 66.800781 18.878906 67.28125 19.84375 C 67.757812 20.816406 68.703125 21.332031 69.378906 21 C 70.058594 20.667969 70.21875 19.613281 69.738281 18.644531 Z M 69.738281 18.644531 "/>
<path style=" stroke:none;fill-rule:nonzero;fill:rgb(100%,39.607843%,51.764706%);fill-opacity:1;" d="M 56.039062 6.023438 C 55.558594 5.054688 54.621094 4.535156 53.941406 4.867188 C 53.261719 5.203125 53.101562 6.253906 53.582031 7.222656 C 54.0625 8.191406 55 8.707031 55.679688 8.375 C 56.355469 8.042969 56.519531 6.992188 56.039062 6.023438 Z M 56.039062 6.023438 "/>
<path style=" stroke:none;fill-rule:nonzero;fill:rgb(90.196078%,90.196078%,90.196078%);fill-opacity:1;" d="M 50.832031 3.210938 C 50.679688 2.761719 50.03125 2.570312 49.378906 2.785156 C 48.726562 3 48.320312 3.539062 48.46875 3.988281 C 48.621094 4.4375 49.269531 4.628906 49.921875 4.414062 C 50.574219 4.199219 50.980469 3.664062 50.832031 3.210938 Z M 50.832031 3.210938 "/>
<path style=" stroke:none;fill-rule:nonzero;fill:rgb(24.705882%,23.921569%,33.72549%);fill-opacity:1;" d="M 42.722656 3.84375 C 42.570312 3.394531 41.917969 3.203125 41.265625 3.417969 C 40.613281 3.632812 40.207031 4.171875 40.355469 4.621094 C 40.507812 5.070312 41.160156 5.261719 41.8125 5.046875 C 42.464844 4.832031 42.871094 4.292969 42.722656 3.84375 Z M 42.722656 3.84375 "/>
<path style=" stroke:none;fill-rule:nonzero;fill:rgb(90.196078%,90.196078%,90.196078%);fill-opacity:1;" d="M 60.488281 13.453125 C 60.339844 13.003906 59.6875 12.8125 59.035156 13.027344 C 58.382812 13.242188 57.976562 13.78125 58.125 14.230469 C 58.277344 14.683594 58.929688 14.871094 59.582031 14.65625 C 60.234375 14.441406 60.640625 13.90625 60.488281 13.453125 Z M 60.488281 13.453125 "/>
<path style=" stroke:none;fill-rule:nonzero;fill:rgb(100%,39.607843%,51.764706%);fill-opacity:1;" d="M 61.527344 6.667969 C 61.378906 6.21875 60.726562 6.023438 60.070312 6.238281 C 59.417969 6.453125 59.011719 6.992188 59.164062 7.445312 C 59.316406 7.894531 59.964844 8.085938 60.617188 7.871094 C 61.269531 7.65625 61.675781 7.117188 61.527344 6.667969 Z M 61.527344 6.667969 "/>
<path style=" stroke:none;fill-rule:nonzero;fill:rgb(24.705882%,23.921569%,33.72549%);fill-opacity:1;" d="M 69.617188 13.0625 C 69.464844 12.609375 68.8125 12.417969 68.160156 12.632812 C 67.507812 12.847656 67.101562 13.386719 67.253906 13.835938 C 67.402344 14.289062 68.054688 14.476562 68.707031 14.265625 C 69.359375 14.050781 69.765625 13.507812 69.617188 13.0625 Z M 69.617188 13.0625 "/>
<path style=" stroke:none;fill-rule:nonzero;fill:rgb(24.705882%,44.313725%,79.607843%);fill-opacity:1;" d="M 71.210938 53.109375 L 79.816406 52.667969 L 83.8125 58.929688 C 83.8125 58.929688 91.328125 60.179688 90.808594 68.96875 C 90.289062 77.757812 81.660156 85.472656 81.660156 85.472656 L 82.027344 90.046875 L 81.386719 91.863281 L 81.46875 92.882812 L 82.34375 93.964844 L 82.433594 95.078125 L 81.660156 96.847656 L 82.710938 98.539062 L 60.578125 96.410156 L 59.769531 93.484375 L 60.953125 91.914062 L 60.289062 89.867188 L 61.285156 87.894531 L 61.800781 81.636719 C 61.800781 81.636719 56.144531 73.207031 62.636719 66.859375 L 65.242188 62.464844 L 68.160156 58.933594 Z M 71.210938 53.109375 "/>
<path style=" stroke:none;fill-rule:nonzero;fill:rgb(100%,71.372549%,71.372549%);fill-opacity:1;" d="M 84.601562 42.292969 C 84.601562 47.289062 80.523438 51.335938 75.488281 51.335938 C 70.453125 51.335938 66.371094 47.289062 66.371094 42.292969 C 66.371094 37.300781 70.453125 33.25 75.488281 33.25 C 80.523438 33.25 84.601562 37.300781 84.601562 42.292969 Z M 84.601562 42.292969 "/>
<path style=" stroke:none;fill-rule:nonzero;fill:rgb(18.431373%,18.039216%,25.490196%);fill-opacity:1;" d="M 74.269531 41.746094 C 73.480469 41.746094 72.695312 41.722656 71.910156 41.679688 L 71.773438 41.671875 L 71.789062 41.535156 C 71.90625 40.671875 71.839844 39.792969 71.597656 38.957031 C 71.1875 39.910156 70.578125 40.765625 69.808594 41.464844 L 69.761719 41.503906 L 69.707031 41.5 C 67.574219 41.269531 65.464844 40.886719 63.386719 40.355469 L 63.308594 40.335938 L 63.289062 40.253906 C 63.136719 39.5 63.054688 38.734375 63.050781 37.960938 C 63.050781 35.554688 63.933594 33.527344 65.53125 32.253906 C 67.269531 30.867188 69.761719 30.441406 72.554688 31.050781 L 81.476562 31.050781 C 83.519531 31.054688 85.175781 32.699219 85.179688 34.726562 L 85.179688 40.332031 L 85.082031 40.355469 C 81.550781 41.277344 77.917969 41.742188 74.269531 41.746094 Z M 74.269531 41.746094 "/>
<path style=" stroke:none;fill-rule:nonzero;fill:rgb(80%,80%,80%);fill-opacity:1;" d="M 12.0625 31.6875 C 11.226562 31.988281 10.800781 32.902344 11.101562 33.726562 L 20.726562 59.933594 C 21.035156 60.757812 21.953125 61.183594 22.785156 60.882812 L 60.152344 47.375 C 60.984375 47.074219 61.414062 46.160156 61.109375 45.335938 L 51.480469 19.128906 C 51.179688 18.304688 50.257812 17.878906 49.425781 18.179688 Z M 12.0625 31.6875 "/>
<path style=" stroke:none;fill-rule:nonzero;fill:rgb(100%,100%,100%);fill-opacity:1;" d="M 46.246094 50.957031 L 23.375 59.226562 C 22.476562 59.550781 21.488281 59.089844 21.160156 58.203125 L 12.429688 34.433594 C 12.101562 33.546875 12.5625 32.566406 13.457031 32.238281 L 48.714844 19.492188 C 49.609375 19.171875 50.597656 19.628906 50.925781 20.515625 L 55.144531 32 C 57.953125 39.675781 53.972656 48.152344 46.246094 50.957031 Z M 46.246094 50.957031 "/>
<path style=" stroke:none;fill-rule:nonzero;fill:rgb(24.705882%,44.313725%,79.607843%);fill-opacity:1;" d="M 29.785156 33.785156 L 24.355469 35.75 C 24.066406 35.855469 23.746094 35.707031 23.644531 35.425781 C 23.539062 35.140625 23.6875 34.824219 23.972656 34.722656 L 29.410156 32.757812 C 29.695312 32.652344 30.011719 32.800781 30.117188 33.082031 C 30.222656 33.367188 30.074219 33.683594 29.789062 33.785156 Z M 29.785156 33.785156 "/>
<path style=" stroke:none;fill-rule:nonzero;fill:rgb(24.705882%,44.313725%,79.607843%);fill-opacity:1;" d="M 42.746094 31.488281 L 25.125 37.859375 C 24.941406 37.925781 24.734375 37.886719 24.582031 37.761719 C 24.429688 37.636719 24.359375 37.441406 24.390625 37.246094 C 24.425781 37.054688 24.5625 36.894531 24.746094 36.828125 L 42.367188 30.457031 C 42.652344 30.355469 42.96875 30.5 43.074219 30.785156 C 43.179688 31.070312 43.03125 31.382812 42.746094 31.488281 Z M 42.746094 31.488281 "/>
<path style=" stroke:none;fill-rule:nonzero;fill:rgb(24.705882%,44.313725%,79.607843%);fill-opacity:1;" d="M 43.632812 33.90625 L 26.011719 40.273438 C 25.726562 40.378906 25.410156 40.230469 25.304688 39.949219 C 25.203125 39.664062 25.351562 39.347656 25.636719 39.246094 L 43.253906 32.875 C 43.539062 32.773438 43.855469 32.921875 43.960938 33.203125 C 44.066406 33.488281 43.917969 33.800781 43.632812 33.90625 Z M 43.632812 33.90625 "/>
<path style=" stroke:none;fill-rule:nonzero;fill:rgb(24.705882%,44.313725%,79.607843%);fill-opacity:1;" d="M 44.519531 36.320312 L 26.902344 42.691406 C 26.71875 42.757812 26.511719 42.722656 26.359375 42.597656 C 26.207031 42.472656 26.132812 42.277344 26.167969 42.082031 C 26.203125 41.890625 26.339844 41.730469 26.523438 41.660156 L 44.144531 35.292969 C 44.429688 35.191406 44.746094 35.335938 44.851562 35.617188 C 44.953125 35.902344 44.804688 36.21875 44.519531 36.320312 Z M 44.519531 36.320312 "/>
<path style=" stroke:none;fill-rule:nonzero;fill:rgb(24.705882%,44.313725%,79.607843%);fill-opacity:1;" d="M 45.410156 38.742188 L 27.789062 45.109375 C 27.503906 45.214844 27.1875 45.066406 27.082031 44.78125 C 26.976562 44.5 27.125 44.183594 27.410156 44.082031 L 45.03125 37.710938 C 45.316406 37.605469 45.632812 37.753906 45.738281 38.039062 C 45.84375 38.324219 45.695312 38.636719 45.410156 38.742188 Z M 45.410156 38.742188 "/>
<path style=" stroke:none;fill-rule:nonzero;fill:rgb(100%,71.372549%,71.372549%);fill-opacity:1;" d="M 101.3125 45.453125 L 91.664062 68.351562 C 90.808594 70.367188 88.480469 71.328125 86.433594 70.511719 C 85.40625 70.101562 84.59375 69.289062 84.1875 68.265625 C 83.78125 67.242188 83.816406 66.101562 84.285156 65.105469 L 95.039062 41.625 L 100.964844 27.082031 C 99.917969 26.042969 99.636719 24.464844 100.261719 23.128906 C 100.886719 21.796875 102.289062 20.992188 103.765625 21.125 C 105.238281 21.25 106.476562 22.285156 106.859375 23.703125 C 107.242188 25.125 106.6875 26.628906 105.472656 27.472656 Z M 101.3125 45.453125 "/>
</g>
</svg>
