<?xml version="1.0" encoding="UTF-8"?>
<svg xmlns="http://www.w3.org/2000/svg" xmlns:xlink="http://www.w3.org/1999/xlink" width="125px" height="150px" viewBox="0 0 125 150" version="1.1">
<g id="surface1">
<path style=" stroke:none;fill-rule:nonzero;fill:rgb(100%,72.156863%,72.156863%);fill-opacity:1;" d="M 0.894531 71.761719 C 1.824219 73.300781 3.390625 74.351562 5.179688 74.636719 C 6.96875 74.917969 8.789062 74.398438 10.152344 73.222656 L 29.003906 83.9375 L 28.300781 72.769531 L 10.511719 64.304688 C 8.3125 62.113281 4.8125 61.894531 2.359375 63.800781 C -0.09375 65.703125 -0.722656 69.121094 0.894531 71.761719 Z M 0.894531 71.761719 "/>
<path style=" stroke:none;fill-rule:nonzero;fill:rgb(18.431373%,18.039216%,25.490196%);fill-opacity:1;" d="M 55.46875 114.695312 C 49.875 122.449219 50.074219 135.425781 51.632812 149.632812 L 78.070312 149.632812 L 79.21875 146.972656 L 80.75 149.632812 L 105.65625 149.632812 C 105.65625 149.632812 103.742188 113.554688 100.292969 112.414062 C 96.84375 111.277344 55.46875 114.695312 55.46875 114.695312 Z M 55.46875 114.695312 "/>
<path style=" stroke:none;fill-rule:nonzero;fill:rgb(100%,72.156863%,72.156863%);fill-opacity:1;" d="M 91.480469 20.351562 C 91.480469 27.691406 85.476562 33.644531 78.070312 33.644531 C 70.664062 33.644531 64.660156 27.691406 64.660156 20.351562 C 64.660156 13.011719 70.664062 7.058594 78.070312 7.058594 C 85.476562 7.058594 91.480469 13.011719 91.480469 20.351562 Z M 91.480469 20.351562 "/>
<path style=" stroke:none;fill-rule:nonzero;fill:rgb(24.705882%,23.921569%,33.72549%);fill-opacity:1;" d="M 87.765625 37.09375 L 90.386719 42.074219 L 108.523438 50.089844 L 103.757812 95.824219 L 101.746094 100.5625 L 102.832031 104.675781 L 100.21875 107.710938 C 102.84375 110.0625 103.175781 112.527344 101.746094 115.074219 L 93.398438 116.972656 C 93.398438 116.972656 46.953125 121.066406 50.867188 113.933594 C 55.144531 106.140625 56.234375 83.128906 46.792969 70.828125 C 38.777344 60.386719 44.929688 46.839844 44.929688 46.839844 L 63.945312 41.207031 L 70.9375 37.09375 Z M 87.765625 37.09375 "/>
<path style=" stroke:none;fill-rule:nonzero;fill:rgb(18.431373%,18.039216%,25.490196%);fill-opacity:1;" d="M 84.027344 0.878906 C 84.152344 0.609375 84.433594 0.441406 84.738281 0.460938 C 78.59375 0.0976562 72.128906 0.804688 66.996094 4.160156 C 65.75 4.972656 64.578125 5.941406 63.222656 6.53125 C 63.089844 6.589844 63.003906 6.707031 62.984375 6.847656 C 62.96875 6.988281 63.027344 7.128906 63.136719 7.214844 L 63.289062 7.332031 C 63.410156 7.425781 63.464844 7.574219 63.4375 7.722656 C 63.410156 7.871094 63.300781 7.992188 63.15625 8.035156 C 63.003906 8.082031 62.890625 8.210938 62.871094 8.367188 C 62.847656 8.523438 62.921875 8.675781 63.054688 8.761719 L 64.191406 9.492188 C 64.308594 9.566406 64.378906 9.695312 64.382812 9.828125 C 64.382812 9.964844 64.3125 10.097656 64.195312 10.167969 C 64.101562 10.226562 63.996094 10.28125 63.894531 10.320312 C 63.757812 10.371094 63.660156 10.484375 63.636719 10.625 C 63.609375 10.761719 63.660156 10.902344 63.765625 11 C 64.257812 11.433594 64.636719 11.980469 64.867188 12.597656 C 65.246094 13.574219 65.316406 14.644531 65.378906 15.6875 C 65.769531 14.179688 67.4375 13.289062 69.007812 13.199219 C 70.578125 13.109375 72.109375 13.621094 73.640625 13.992188 C 76.96875 14.792969 80.429688 14.925781 83.8125 14.378906 C 82.664062 16.664062 83.632812 19.390625 84.609375 21.753906 L 87.765625 20.414062 C 92.097656 17.988281 89.078125 28.246094 87.457031 29.65625 C 90.765625 30.792969 99.425781 18.171875 96.640625 13.386719 C 95.191406 10.894531 96.222656 7.683594 93.371094 5.320312 C 91.976562 3.863281 89.1875 4.511719 87.765625 3.300781 C 87.203125 2.824219 88.054688 1.546875 87.289062 1.269531 C 87.03125 1.175781 84.066406 0.789062 84.027344 0.878906 Z M 84.027344 0.878906 "/>
<path style=" stroke:none;fill-rule:nonzero;fill:rgb(24.705882%,23.921569%,33.72549%);fill-opacity:1;" d="M 61.308594 42.496094 C 58.851562 53.324219 52.539062 78.605469 46.132812 83.894531 C 45.726562 84.277344 45.242188 84.558594 44.710938 84.730469 C 22.203125 90.164062 14.992188 76.300781 14.992188 76.300781 C 14.992188 76.300781 21.023438 73.386719 21.175781 67.691406 L 33.339844 71.433594 L 43.941406 47.78125 L 45.503906 46.339844 L 45.511719 46.332031 Z M 61.308594 42.496094 "/>
<path style=" stroke:none;fill-rule:nonzero;fill:rgb(100%,72.156863%,72.156863%);fill-opacity:1;" d="M 109.296875 142.496094 C 110.601562 141.25 111.285156 139.496094 111.160156 137.707031 C 111.035156 135.917969 110.121094 134.277344 108.65625 133.222656 L 114.964844 112.609375 L 104.140625 115.792969 L 99.804688 134.878906 C 98.148438 137.488281 98.71875 140.921875 101.140625 142.863281 C 103.558594 144.804688 107.066406 144.648438 109.296875 142.496094 Z M 109.296875 142.496094 "/>
<path style=" stroke:none;fill-rule:nonzero;fill:rgb(24.705882%,23.921569%,33.72549%);fill-opacity:1;" d="M 103.523438 48.9375 L 108.523438 50.089844 C 108.523438 50.089844 129.195312 89.953125 124.210938 97.550781 C 119.230469 105.144531 113.128906 130.292969 113.128906 130.292969 C 113.128906 130.292969 104.105469 128.511719 100.65625 123.957031 L 106.972656 94.128906 L 100.457031 69.066406 Z M 103.523438 48.9375 "/>
<path style=" stroke:none;fill-rule:nonzero;fill:rgb(90.196078%,90.196078%,90.196078%);fill-opacity:1;" d="M 8.652344 108.132812 L 8.832031 43.929688 C 8.839844 41.222656 11.058594 39.039062 13.785156 39.042969 L 62.703125 39.175781 C 65.433594 39.1875 67.640625 41.386719 67.632812 44.089844 L 67.453125 108.296875 C 67.445312 111 65.226562 113.183594 62.496094 113.183594 L 13.582031 113.046875 C 10.851562 113.035156 8.644531 110.839844 8.652344 108.132812 Z M 8.652344 108.132812 "/>
<path style=" stroke:none;fill-rule:nonzero;fill:rgb(100%,100%,100%);fill-opacity:1;" d="M 12.457031 88.753906 L 12.570312 47.476562 C 12.582031 44.941406 14.65625 42.894531 17.214844 42.898438 L 59.253906 43.011719 C 61.8125 43.023438 63.875 45.082031 63.871094 47.617188 L 63.710938 104.746094 C 63.703125 107.28125 61.625 109.332031 59.066406 109.328125 L 33.027344 109.253906 C 21.640625 109.210938 12.4375 100.035156 12.457031 88.753906 Z M 12.457031 88.753906 "/>
<path style=" stroke:none;fill-rule:nonzero;fill:rgb(24.705882%,44.313725%,79.607843%);fill-opacity:1;" d="M 54.4375 61.027344 L 21.65625 61.027344 C 20.570312 61.027344 19.691406 60.15625 19.691406 59.082031 C 19.691406 58.003906 20.570312 57.128906 21.65625 57.128906 L 54.4375 57.128906 C 55.523438 57.128906 56.402344 58.003906 56.402344 59.082031 C 56.402344 60.15625 55.523438 61.027344 54.4375 61.027344 Z M 54.4375 61.027344 "/>
<path style=" stroke:none;fill-rule:nonzero;fill:rgb(24.705882%,44.313725%,79.607843%);fill-opacity:1;" d="M 28.867188 52.039062 L 21.65625 52.039062 C 20.570312 52.039062 19.691406 51.167969 19.691406 50.089844 C 19.691406 49.011719 20.570312 48.140625 21.65625 48.140625 L 28.867188 48.140625 C 29.957031 48.140625 30.835938 49.011719 30.835938 50.089844 C 30.835938 51.167969 29.957031 52.039062 28.867188 52.039062 Z M 28.867188 52.039062 "/>
<path style=" stroke:none;fill-rule:nonzero;fill:rgb(24.705882%,44.313725%,79.607843%);fill-opacity:1;" d="M 54.4375 70.019531 L 21.65625 70.019531 C 20.570312 70.019531 19.691406 69.144531 19.691406 68.066406 C 19.691406 66.992188 20.570312 66.121094 21.65625 66.121094 L 54.4375 66.121094 C 55.523438 66.121094 56.402344 66.992188 56.402344 68.066406 C 56.402344 69.144531 55.523438 70.019531 54.4375 70.019531 Z M 54.4375 70.019531 "/>
<path style=" stroke:none;fill-rule:nonzero;fill:rgb(24.705882%,44.313725%,79.607843%);fill-opacity:1;" d="M 54.4375 79.007812 L 21.65625 79.007812 C 20.570312 79.007812 19.691406 78.136719 19.691406 77.058594 C 19.691406 75.980469 20.570312 75.109375 21.65625 75.109375 L 54.4375 75.109375 C 55.523438 75.109375 56.402344 75.980469 56.402344 77.058594 C 56.402344 78.136719 55.523438 79.007812 54.4375 79.007812 Z M 54.4375 79.007812 "/>
<path style=" stroke:none;fill-rule:nonzero;fill:rgb(24.705882%,44.313725%,79.607843%);fill-opacity:1;" d="M 59.613281 94.941406 C 59.613281 99.222656 56.105469 102.695312 51.785156 102.695312 C 47.464844 102.695312 43.960938 99.222656 43.960938 94.941406 C 43.960938 90.652344 47.464844 87.183594 51.785156 87.183594 C 56.105469 87.183594 59.613281 90.652344 59.613281 94.941406 Z M 59.613281 94.941406 "/>
<path style=" stroke:none;fill-rule:nonzero;fill:rgb(100%,100%,100%);fill-opacity:1;" d="M 50.714844 98.976562 C 50.441406 98.976562 50.183594 98.847656 50.019531 98.628906 L 47.886719 95.808594 C 47.699219 95.558594 47.65625 95.234375 47.78125 94.949219 C 47.902344 94.667969 48.167969 94.472656 48.476562 94.433594 C 48.785156 94.398438 49.09375 94.527344 49.277344 94.773438 L 50.675781 96.617188 L 54.265625 91.285156 C 54.433594 91.027344 54.730469 90.882812 55.042969 90.898438 C 55.355469 90.917969 55.632812 91.101562 55.769531 91.378906 C 55.910156 91.65625 55.882812 91.988281 55.710938 92.242188 L 51.441406 98.589844 C 51.285156 98.824219 51.023438 98.96875 50.738281 98.976562 C 50.734375 98.976562 50.726562 98.976562 50.714844 98.976562 Z M 50.714844 98.976562 "/>
<path style=" stroke:none;fill-rule:nonzero;fill:rgb(94.901961%,94.901961%,94.901961%);fill-opacity:1;" d="M 38.8125 20.414062 C 38.8125 22.449219 37.148438 24.097656 35.097656 24.097656 C 33.042969 24.097656 31.382812 22.449219 31.382812 20.414062 C 31.382812 18.378906 33.042969 16.730469 35.097656 16.730469 C 37.148438 16.730469 38.8125 18.378906 38.8125 20.414062 Z M 38.8125 20.414062 "/>
<path style=" stroke:none;fill-rule:nonzero;fill:rgb(94.901961%,94.901961%,94.901961%);fill-opacity:1;" d="M 25.265625 126.339844 C 25.265625 128.371094 23.597656 130.023438 21.550781 130.023438 C 19.496094 130.023438 17.835938 128.371094 17.835938 126.339844 C 17.835938 124.308594 19.496094 122.65625 21.550781 122.65625 C 23.597656 122.65625 25.265625 124.308594 25.265625 126.339844 Z M 25.265625 126.339844 "/>
<path style=" stroke:none;fill-rule:nonzero;fill:rgb(94.901961%,94.901961%,94.901961%);fill-opacity:1;" d="M 110.707031 34.710938 C 110.707031 36.746094 109.046875 38.394531 106.992188 38.394531 C 104.941406 38.394531 103.277344 36.746094 103.277344 34.710938 C 103.277344 32.675781 104.941406 31.027344 106.992188 31.027344 C 109.046875 31.027344 110.707031 32.675781 110.707031 34.710938 Z M 110.707031 34.710938 "/>
</g>
</svg>
