<?xml version="1.0" encoding="UTF-8"?>
<svg xmlns="http://www.w3.org/2000/svg" xmlns:xlink="http://www.w3.org/1999/xlink" width="437px" height="470px" viewBox="0 0 437 470" version="1.1">
<g id="surface1">
<path style=" stroke:none;fill-rule:nonzero;fill:rgb(94.901961%,94.901961%,94.901961%);fill-opacity:1;" d="M 277.203125 266.628906 L 88.304688 315.246094 C 74.960938 318.664062 61.367188 310.644531 57.917969 297.316406 L 0.792969 75.597656 C -2.628906 62.261719 5.398438 48.675781 18.730469 45.230469 L 194.472656 0 L 239.453125 20.125 L 295.140625 236.265625 C 298.5625 249.597656 290.535156 263.183594 277.203125 266.628906 Z M 277.203125 266.628906 "/>
<path style=" stroke:none;fill-rule:nonzero;fill:rgb(100%,100%,100%);fill-opacity:1;" d="M 20.523438 52.179688 C 11.027344 54.636719 5.3125 64.308594 7.746094 73.804688 L 64.875 295.527344 C 67.332031 305.015625 77.011719 310.730469 86.511719 308.296875 L 275.410156 259.679688 C 284.90625 257.222656 290.621094 247.550781 288.1875 238.054688 L 233.359375 25.265625 L 193.828125 7.578125 Z M 20.523438 52.179688 "/>
<path style=" stroke:none;fill-rule:nonzero;fill:rgb(94.901961%,94.901961%,94.901961%);fill-opacity:1;" d="M 238.972656 21.269531 L 209.738281 28.792969 C 205.292969 29.9375 200.761719 27.261719 199.617188 22.820312 L 194.058594 1.242188 C 194.007812 1.046875 194.074219 0.84375 194.226562 0.714844 C 194.378906 0.585938 194.589844 0.558594 194.773438 0.636719 L 239.054688 20.292969 C 239.253906 20.382812 239.378906 20.589844 239.359375 20.808594 C 239.34375 21.03125 239.1875 21.214844 238.972656 21.269531 Z M 238.972656 21.269531 "/>
<path style=" stroke:none;fill-rule:nonzero;fill:rgb(80%,80%,80%);fill-opacity:1;" d="M 223.59375 210.613281 L 137.589844 232.75 C 135.367188 233.320312 133.101562 231.984375 132.527344 229.761719 C 131.957031 227.542969 133.292969 225.277344 135.515625 224.707031 L 221.519531 202.570312 C 223.742188 202 226.007812 203.335938 226.578125 205.558594 C 227.152344 207.777344 225.8125 210.042969 223.59375 210.613281 Z M 223.59375 210.613281 "/>
<path style=" stroke:none;fill-rule:nonzero;fill:rgb(80%,80%,80%);fill-opacity:1;" d="M 243.6875 219.914062 L 141.085938 246.320312 C 138.863281 246.890625 136.597656 245.554688 136.027344 243.335938 C 135.453125 241.113281 136.792969 238.851562 139.011719 238.277344 L 241.613281 211.871094 C 243.835938 211.300781 246.097656 212.640625 246.667969 214.859375 C 247.242188 217.078125 245.90625 219.339844 243.6875 219.914062 Z M 243.6875 219.914062 "/>
<path style=" stroke:none;fill-rule:nonzero;fill:rgb(90.196078%,90.196078%,90.196078%);fill-opacity:1;" d="M 117.171875 244.730469 C 117.171875 252.835938 110.597656 259.40625 102.488281 259.40625 C 94.375 259.40625 87.800781 252.835938 87.800781 244.730469 C 87.800781 236.625 94.375 230.054688 102.488281 230.054688 C 110.597656 230.054688 117.171875 236.625 117.171875 244.730469 Z M 117.171875 244.730469 "/>
<path style=" stroke:none;fill-rule:nonzero;fill:rgb(100%,100%,100%);fill-opacity:1;" d="M 214.449219 172.203125 L 100.226562 201.589844 C 93.351562 203.351562 86.351562 199.21875 84.574219 192.351562 L 60.636719 99.417969 C 58.878906 92.546875 63.011719 85.550781 69.882812 83.773438 L 184.101562 54.390625 C 190.976562 52.628906 197.976562 56.761719 199.753906 63.628906 L 223.691406 156.5625 C 225.453125 163.429688 221.316406 170.429688 214.449219 172.203125 Z M 214.449219 172.203125 "/>
<path style=" stroke:none;fill-rule:nonzero;fill:rgb(90.196078%,90.196078%,90.196078%);fill-opacity:1;" d="M 214.449219 172.203125 L 100.226562 201.589844 C 93.351562 203.351562 86.351562 199.21875 84.574219 192.351562 L 60.636719 99.417969 C 58.878906 92.546875 63.011719 85.550781 69.882812 83.773438 L 184.101562 54.390625 C 190.976562 52.628906 197.976562 56.761719 199.753906 63.628906 L 223.691406 156.5625 C 225.453125 163.429688 221.316406 170.429688 214.449219 172.203125 Z M 70.257812 85.238281 C 64.199219 86.804688 60.550781 92.980469 62.101562 99.039062 L 86.039062 191.976562 C 87.605469 198.035156 93.785156 201.679688 99.847656 200.125 L 214.070312 170.742188 C 220.132812 169.175781 223.78125 163 222.226562 156.9375 L 198.289062 64.003906 C 196.722656 57.945312 190.542969 54.300781 184.480469 55.851562 Z M 70.257812 85.238281 "/>
<path style=" stroke:none;fill-rule:nonzero;fill:rgb(94.901961%,94.901961%,94.901961%);fill-opacity:1;" d="M 178.308594 85.636719 L 120.664062 100.46875 C 119.617188 100.761719 118.523438 100.191406 118.160156 99.167969 C 117.996094 98.648438 118.054688 98.085938 118.320312 97.605469 C 118.582031 97.128906 119.03125 96.78125 119.5625 96.648438 L 178.242188 81.550781 C 180.613281 82.75 179.988281 85.207031 178.308594 85.636719 Z M 178.308594 85.636719 "/>
<path style=" stroke:none;fill-rule:nonzero;fill:rgb(94.901961%,94.901961%,94.901961%);fill-opacity:1;" d="M 180.910156 95.742188 L 123.265625 110.574219 C 122.21875 110.867188 121.125 110.296875 120.765625 109.277344 C 120.597656 108.753906 120.65625 108.191406 120.921875 107.714844 C 121.1875 107.234375 121.636719 106.886719 122.164062 106.753906 L 180.84375 91.65625 C 183.214844 92.855469 182.589844 95.3125 180.910156 95.742188 Z M 180.910156 95.742188 "/>
<path style=" stroke:none;fill-rule:nonzero;fill:rgb(90.196078%,90.196078%,90.196078%);fill-opacity:1;" d="M 112.285156 119.535156 L 94.691406 124.058594 C 93.496094 124.367188 92.277344 123.648438 91.96875 122.453125 L 86.625 101.703125 C 86.316406 100.507812 87.035156 99.289062 88.234375 98.980469 L 105.824219 94.453125 C 107.023438 94.148438 108.242188 94.867188 108.550781 96.0625 L 113.894531 116.8125 C 114.199219 118.007812 113.480469 119.226562 112.285156 119.535156 Z M 112.285156 119.535156 "/>
<path style=" stroke:none;fill-rule:nonzero;fill:rgb(94.901961%,94.901961%,94.901961%);fill-opacity:1;" d="M 186.074219 116.476562 L 98.09375 139.113281 C 97.046875 139.402344 95.957031 138.835938 95.59375 137.8125 C 95.429688 137.292969 95.484375 136.726562 95.75 136.25 C 96.015625 135.773438 96.464844 135.425781 96.992188 135.289062 L 186.007812 112.390625 C 188.378906 113.589844 187.753906 116.046875 186.074219 116.476562 Z M 186.074219 116.476562 "/>
<path style=" stroke:none;fill-rule:nonzero;fill:rgb(94.901961%,94.901961%,94.901961%);fill-opacity:1;" d="M 188.675781 126.585938 L 100.699219 149.222656 C 99.652344 149.511719 98.558594 148.945312 98.195312 147.921875 C 98.03125 147.402344 98.089844 146.835938 98.355469 146.359375 C 98.621094 145.882812 99.070312 145.535156 99.597656 145.398438 L 188.609375 122.5 C 190.980469 123.699219 190.355469 126.15625 188.675781 126.585938 Z M 188.675781 126.585938 "/>
<path style=" stroke:none;fill-rule:nonzero;fill:rgb(94.901961%,94.901961%,94.901961%);fill-opacity:1;" d="M 191.277344 136.6875 L 103.300781 159.324219 C 102.253906 159.613281 101.160156 159.046875 100.796875 158.023438 C 100.632812 157.503906 100.691406 156.9375 100.957031 156.460938 C 101.222656 155.984375 101.671875 155.636719 102.199219 155.5 L 191.210938 132.601562 C 193.582031 133.800781 192.960938 136.257812 191.277344 136.6875 Z M 191.277344 136.6875 "/>
<path style=" stroke:none;fill-rule:nonzero;fill:rgb(94.901961%,94.901961%,94.901961%);fill-opacity:1;" d="M 193.882812 146.796875 L 105.902344 169.429688 C 104.859375 169.722656 103.765625 169.15625 103.402344 168.132812 C 103.238281 167.613281 103.292969 167.046875 103.558594 166.570312 C 103.824219 166.09375 104.273438 165.746094 104.804688 165.609375 L 193.816406 142.710938 C 196.1875 143.910156 195.5625 146.363281 193.882812 146.796875 Z M 193.882812 146.796875 "/>
<path style=" stroke:none;fill-rule:nonzero;fill:rgb(94.901961%,94.901961%,94.901961%);fill-opacity:1;" d="M 196.484375 156.898438 L 108.503906 179.535156 C 107.460938 179.824219 106.367188 179.257812 106.003906 178.234375 C 105.839844 177.714844 105.898438 177.148438 106.160156 176.671875 C 106.425781 176.195312 106.875 175.847656 107.40625 175.710938 L 196.417969 152.8125 C 198.789062 154.011719 198.164062 156.46875 196.484375 156.898438 Z M 196.484375 156.898438 "/>
<path style=" stroke:none;fill-rule:nonzero;fill:rgb(100%,100%,100%);fill-opacity:1;" d="M 103.570312 249.875 C 103.25 249.957031 102.914062 249.933594 102.605469 249.808594 L 102.589844 249.800781 L 98.585938 248.105469 C 98.082031 247.890625 97.730469 247.425781 97.664062 246.882812 C 97.597656 246.335938 97.824219 245.800781 98.265625 245.46875 C 98.703125 245.140625 99.285156 245.070312 99.789062 245.285156 L 102.378906 246.386719 L 105.777344 238.402344 C 106.109375 237.621094 107.007812 237.257812 107.789062 237.589844 L 107.769531 237.640625 L 107.789062 237.589844 C 108.566406 237.921875 108.929688 238.820312 108.601562 239.601562 L 104.601562 248.992188 C 104.414062 249.429688 104.035156 249.753906 103.570312 249.875 Z M 103.570312 249.875 "/>
<path style=" stroke:none;fill-rule:nonzero;fill:rgb(90.196078%,90.196078%,90.196078%);fill-opacity:1;" d="M 349.65625 351.121094 L 154.59375 351.121094 C 140.820312 351.105469 129.660156 339.953125 129.644531 326.1875 L 129.644531 97.230469 C 129.660156 83.46875 140.820312 72.3125 154.59375 72.296875 L 336.066406 72.296875 L 374.605469 102.996094 L 374.605469 326.1875 C 374.589844 339.953125 363.429688 351.105469 349.65625 351.121094 Z M 349.65625 351.121094 "/>
<path style=" stroke:none;fill-rule:nonzero;fill:rgb(100%,100%,100%);fill-opacity:1;" d="M 154.59375 79.476562 C 144.785156 79.484375 136.839844 87.429688 136.828125 97.230469 L 136.828125 326.1875 C 136.839844 335.988281 144.785156 343.933594 154.59375 343.945312 L 349.65625 343.945312 C 359.464844 343.933594 367.414062 335.988281 367.425781 326.1875 L 367.425781 106.453125 L 333.554688 79.476562 Z M 154.59375 79.476562 "/>
<path style=" stroke:none;fill-rule:nonzero;fill:rgb(24.705882%,44.313725%,79.607843%);fill-opacity:1;" d="M 311.71875 146.050781 L 222.90625 146.050781 C 220.613281 146.050781 218.753906 144.191406 218.753906 141.894531 C 218.753906 139.601562 220.613281 137.742188 222.90625 137.742188 L 311.71875 137.742188 C 314.011719 137.742188 315.871094 139.601562 315.871094 141.894531 C 315.871094 144.191406 314.011719 146.050781 311.71875 146.050781 Z M 311.71875 146.050781 "/>
<path style=" stroke:none;fill-rule:nonzero;fill:rgb(24.705882%,44.313725%,79.607843%);fill-opacity:1;" d="M 328.855469 160.0625 L 222.90625 160.0625 C 220.617188 160.058594 218.757812 158.203125 218.757812 155.910156 C 218.757812 153.621094 220.617188 151.761719 222.90625 151.757812 L 328.855469 151.757812 C 330.339844 151.757812 331.714844 152.546875 332.457031 153.832031 C 333.203125 155.117188 333.203125 156.703125 332.457031 157.988281 C 331.714844 159.273438 330.339844 160.066406 328.855469 160.0625 Z M 328.855469 160.0625 "/>
<path style=" stroke:none;fill-rule:nonzero;fill:rgb(80%,80%,80%);fill-opacity:1;" d="M 311.71875 200.546875 L 222.910156 200.546875 C 220.617188 200.546875 218.757812 202.40625 218.757812 204.699219 C 218.757812 206.992188 220.617188 208.851562 222.910156 208.851562 L 311.71875 208.851562 C 314.011719 208.851562 315.871094 206.992188 315.871094 204.699219 C 315.871094 202.40625 314.011719 200.546875 311.71875 200.546875 Z M 311.71875 200.546875 "/>
<path style=" stroke:none;fill-rule:nonzero;fill:rgb(80%,80%,80%);fill-opacity:1;" d="M 328.859375 214.566406 L 222.910156 214.566406 C 220.617188 214.566406 218.757812 216.421875 218.757812 218.714844 C 218.757812 221.011719 220.617188 222.867188 222.910156 222.867188 L 328.859375 222.867188 C 331.152344 222.867188 333.011719 221.011719 333.011719 218.714844 C 333.011719 216.421875 331.152344 214.566406 328.859375 214.566406 Z M 328.859375 214.566406 "/>
<path style=" stroke:none;fill-rule:nonzero;fill:rgb(80%,80%,80%);fill-opacity:1;" d="M 311.71875 271.660156 L 222.90625 271.660156 C 220.613281 271.660156 218.753906 269.800781 218.753906 267.507812 C 218.753906 265.214844 220.613281 263.355469 222.90625 263.355469 L 311.71875 263.355469 C 314.011719 263.355469 315.871094 265.214844 315.871094 267.507812 C 315.871094 269.800781 314.011719 271.660156 311.71875 271.660156 Z M 311.71875 271.660156 "/>
<path style=" stroke:none;fill-rule:nonzero;fill:rgb(80%,80%,80%);fill-opacity:1;" d="M 328.855469 285.675781 L 222.90625 285.675781 C 220.617188 285.671875 218.757812 283.8125 218.757812 281.523438 C 218.757812 279.230469 220.617188 277.375 222.90625 277.371094 L 328.855469 277.371094 C 330.339844 277.367188 331.714844 278.160156 332.457031 279.445312 C 333.203125 280.730469 333.203125 282.316406 332.457031 283.601562 C 331.714844 284.886719 330.339844 285.675781 328.855469 285.675781 Z M 328.855469 285.675781 "/>
<path style=" stroke:none;fill-rule:nonzero;fill:rgb(24.705882%,44.313725%,79.607843%);fill-opacity:1;" d="M 200.609375 148.902344 C 200.609375 157.007812 194.035156 163.582031 185.925781 163.582031 C 177.816406 163.582031 171.242188 157.007812 171.242188 148.902344 C 171.242188 140.796875 177.816406 134.226562 185.925781 134.226562 C 194.035156 134.226562 200.609375 140.796875 200.609375 148.902344 Z M 200.609375 148.902344 "/>
<path style=" stroke:none;fill-rule:nonzero;fill:rgb(100%,100%,100%);fill-opacity:1;" d="M 184.46875 154.503906 C 184.140625 154.503906 183.820312 154.394531 183.554688 154.199219 L 183.539062 154.1875 L 180.085938 151.546875 C 179.652344 151.214844 179.425781 150.675781 179.496094 150.128906 C 179.566406 149.585938 179.921875 149.121094 180.429688 148.914062 C 180.9375 148.703125 181.519531 148.78125 181.953125 149.113281 L 184.1875 150.828125 L 189.46875 143.941406 C 189.984375 143.269531 190.949219 143.140625 191.621094 143.65625 L 191.585938 143.703125 L 191.621094 143.65625 C 192.292969 144.171875 192.417969 145.132812 191.90625 145.804688 L 185.691406 153.902344 C 185.402344 154.28125 184.949219 154.503906 184.472656 154.5 Z M 184.46875 154.503906 "/>
<path style=" stroke:none;fill-rule:nonzero;fill:rgb(80%,80%,80%);fill-opacity:1;" d="M 202.121094 211.707031 C 202.125 219.816406 195.550781 226.390625 187.4375 226.390625 C 187.3125 226.390625 187.183594 226.386719 187.058594 226.375 C 179 226.167969 172.617188 219.507812 172.753906 211.453125 C 172.890625 203.394531 179.503906 196.957031 187.5625 197.027344 C 195.625 197.097656 202.121094 203.652344 202.121094 211.707031 Z M 202.121094 211.707031 "/>
<path style=" stroke:none;fill-rule:nonzero;fill:rgb(80%,80%,80%);fill-opacity:1;" d="M 200.609375 274.515625 C 200.609375 282.621094 194.035156 289.191406 185.925781 289.191406 C 177.816406 289.191406 171.242188 282.621094 171.242188 274.515625 C 171.242188 266.410156 177.816406 259.839844 185.925781 259.839844 C 194.035156 259.839844 200.609375 266.410156 200.609375 274.515625 Z M 200.609375 274.515625 "/>
<path style=" stroke:none;fill-rule:nonzero;fill:rgb(80%,80%,80%);fill-opacity:1;" d="M 373.855469 103.984375 L 343.667969 103.984375 C 339.078125 103.984375 335.359375 100.265625 335.359375 95.679688 L 335.359375 73.394531 C 335.359375 73.195312 335.472656 73.015625 335.652344 72.929688 C 335.832031 72.839844 336.042969 72.867188 336.199219 72.988281 L 374.179688 103.058594 C 374.351562 103.195312 374.417969 103.429688 374.347656 103.636719 C 374.273438 103.84375 374.078125 103.984375 373.855469 103.984375 Z M 373.855469 103.984375 "/>
<path style=" stroke:none;fill-rule:nonzero;fill:rgb(24.705882%,44.313725%,79.607843%);fill-opacity:1;" d="M 202.121094 211.707031 C 202.125 219.816406 195.550781 226.390625 187.4375 226.390625 C 187.3125 226.390625 187.183594 226.386719 187.058594 226.375 C 183.210938 216.777344 184.273438 205.910156 189.910156 197.238281 C 196.960938 198.445312 202.117188 204.558594 202.121094 211.707031 Z M 202.121094 211.707031 "/>
<path style=" stroke:none;fill-rule:nonzero;fill:rgb(24.705882%,44.313725%,79.607843%);fill-opacity:1;" d="M 218.753906 204.703125 C 218.757812 202.410156 220.617188 200.550781 222.910156 200.546875 L 245.042969 200.546875 C 246.332031 203.175781 247.253906 205.96875 247.769531 208.851562 L 222.910156 208.851562 C 220.617188 208.851562 218.757812 206.996094 218.753906 204.703125 Z M 218.753906 204.703125 "/>
<path style=" stroke:none;fill-rule:nonzero;fill:rgb(24.705882%,44.313725%,79.607843%);fill-opacity:1;" d="M 248.285156 214.566406 C 248.285156 217.371094 247.914062 220.160156 247.179688 222.867188 L 222.910156 222.867188 C 220.617188 222.867188 218.757812 221.011719 218.757812 218.714844 C 218.757812 216.421875 220.617188 214.566406 222.910156 214.566406 Z M 248.285156 214.566406 "/>
<path style=" stroke:none;fill-rule:nonzero;fill:rgb(24.705882%,23.921569%,33.72549%);fill-opacity:1;" d="M 303.039062 265.777344 C 301.734375 267.917969 298.945312 268.59375 296.804688 267.289062 L 243.878906 235.023438 C 241.738281 233.71875 241.0625 230.929688 242.367188 228.792969 C 243.671875 226.652344 246.460938 225.976562 248.601562 227.28125 L 301.527344 259.546875 C 303.667969 260.851562 304.34375 263.640625 303.039062 265.777344 Z M 303.039062 265.777344 "/>
<path style=" stroke:none;fill-rule:nonzero;fill:rgb(24.705882%,23.921569%,33.72549%);fill-opacity:1;" d="M 250.113281 233.511719 C 239.675781 250.613281 217.34375 256.023438 200.230469 245.589844 C 183.121094 235.160156 177.710938 212.839844 188.148438 195.738281 C 198.585938 178.636719 220.917969 173.230469 238.027344 183.660156 C 255.117188 194.105469 260.523438 216.410156 250.113281 233.511719 Z M 195.894531 200.460938 C 188.066406 213.285156 192.125 230.027344 204.957031 237.851562 C 217.789062 245.671875 234.539062 241.617188 242.367188 228.792969 C 250.195312 215.964844 246.136719 199.226562 233.304688 191.402344 C 220.46875 183.597656 203.730469 187.648438 195.894531 200.460938 Z M 195.894531 200.460938 "/>
<path style=" stroke:none;fill-rule:nonzero;fill:rgb(62.745098%,38.039216%,41.568627%);fill-opacity:1;" d="M 384.957031 201.882812 C 384.957031 212.132812 376.640625 220.441406 366.386719 220.441406 C 356.132812 220.441406 347.816406 212.132812 347.816406 201.882812 C 347.816406 191.632812 356.132812 183.324219 366.386719 183.324219 C 376.640625 183.324219 384.957031 191.632812 384.957031 201.882812 Z M 384.957031 201.882812 "/>
<path style=" stroke:none;fill-rule:nonzero;fill:rgb(62.745098%,38.039216%,41.568627%);fill-opacity:1;" d="M 365.1875 305.925781 C 364.460938 303.671875 364.734375 301.214844 365.9375 299.171875 C 367.136719 297.128906 369.15625 295.695312 371.480469 295.234375 C 371.84375 295.160156 372.210938 295.117188 372.582031 295.097656 L 392.140625 263.722656 L 374.273438 246.746094 C 372.417969 244.980469 371.648438 242.355469 372.265625 239.867188 C 372.882812 237.378906 374.785156 235.414062 377.253906 234.71875 C 379.71875 234.023438 382.371094 234.703125 384.195312 236.503906 L 408.863281 260.816406 L 408.914062 260.875 C 410.480469 263.257812 410.296875 266.386719 408.464844 268.570312 L 381.058594 300.96875 C 381.140625 301.226562 381.207031 301.492188 381.261719 301.757812 C 381.726562 304.082031 381.175781 306.492188 379.75 308.382812 C 378.324219 310.277344 376.15625 311.472656 373.796875 311.667969 C 373.558594 311.6875 373.324219 311.699219 373.089844 311.699219 C 369.484375 311.683594 366.296875 309.355469 365.1875 305.925781 Z M 365.1875 305.925781 "/>
<path style=" stroke:none;fill-rule:nonzero;fill:rgb(62.745098%,38.039216%,41.568627%);fill-opacity:1;" d="M 335.804688 460.175781 L 326.535156 460.175781 L 322.125 424.445312 L 335.804688 424.445312 Z M 335.804688 460.175781 "/>
<path style=" stroke:none;fill-rule:nonzero;fill:rgb(18.431373%,18.039216%,25.490196%);fill-opacity:1;" d="M 338.167969 469.15625 L 308.277344 469.15625 L 308.277344 468.777344 C 308.277344 462.355469 313.488281 457.152344 319.914062 457.152344 L 338.167969 457.152344 Z M 338.167969 469.15625 "/>
<path style=" stroke:none;fill-rule:nonzero;fill:rgb(62.745098%,38.039216%,41.568627%);fill-opacity:1;" d="M 427.933594 447.367188 L 419.96875 452.109375 L 397.886719 423.660156 L 409.640625 416.667969 Z M 427.933594 447.367188 "/>
<path style=" stroke:none;fill-rule:nonzero;fill:rgb(18.431373%,18.039216%,25.490196%);fill-opacity:1;" d="M 434.558594 453.875 L 408.878906 469.15625 L 408.6875 468.832031 C 405.398438 463.316406 407.210938 456.179688 412.730469 452.894531 L 428.414062 443.5625 Z M 434.558594 453.875 "/>
<path style=" stroke:none;fill-rule:nonzero;fill:rgb(18.431373%,18.039216%,25.490196%);fill-opacity:1;" d="M 320.953125 444.441406 C 314.746094 371.367188 311.050781 303.484375 333.75 275.789062 L 333.925781 275.574219 L 372.125 290.847656 L 372.1875 290.984375 C 372.316406 291.265625 385.023438 319.195312 382.058594 337.980469 L 391.480469 381.296875 L 422.203125 432.710938 C 422.703125 433.550781 422.820312 434.5625 422.523438 435.488281 C 422.226562 436.417969 421.546875 437.175781 420.652344 437.570312 L 407.300781 443.441406 C 405.746094 444.117188 403.925781 443.550781 403.03125 442.105469 L 369.609375 387.640625 L 350.734375 345.863281 C 350.523438 345.398438 350.027344 345.132812 349.519531 345.210938 C 349.015625 345.292969 348.628906 345.703125 348.574219 346.210938 L 338.109375 444.515625 C 337.925781 446.246094 336.464844 447.558594 334.726562 447.558594 L 324.347656 447.558594 C 322.582031 447.546875 321.113281 446.199219 320.953125 444.441406 Z M 320.953125 444.441406 "/>
<path style=" stroke:none;fill-rule:nonzero;fill:rgb(24.705882%,44.313725%,79.607843%);fill-opacity:1;" d="M 333.878906 276.371094 L 333.699219 276.28125 L 333.667969 276.082031 C 332.242188 266.101562 333.929688 255.011719 338.6875 243.117188 C 343.535156 231.089844 356.464844 224.421875 369.082031 227.445312 C 376.195312 229.195312 382.242188 233.84375 385.761719 240.261719 C 389.238281 246.613281 389.886719 254.132812 387.558594 260.984375 C 381.558594 278.515625 373.777344 294.917969 373.699219 295.082031 L 373.535156 295.425781 Z M 333.878906 276.371094 "/>
<path style=" stroke:none;fill-rule:nonzero;fill:rgb(62.745098%,38.039216%,41.568627%);fill-opacity:1;" d="M 292.199219 251.507812 C 294.0625 250.039062 296.460938 249.433594 298.792969 249.84375 C 301.128906 250.253906 303.175781 251.640625 304.425781 253.652344 C 304.621094 253.96875 304.792969 254.296875 304.941406 254.636719 L 341.195312 261.960938 L 350.847656 239.289062 C 351.851562 236.933594 354.046875 235.296875 356.589844 235 C 359.136719 234.707031 361.644531 235.800781 363.160156 237.867188 C 364.675781 239.933594 364.96875 242.652344 363.921875 244.992188 L 349.773438 276.597656 L 349.734375 276.667969 C 348.050781 278.96875 345.054688 279.890625 342.367188 278.941406 L 302.40625 264.628906 C 302.191406 264.796875 301.96875 264.953125 301.738281 265.097656 C 299.722656 266.34375 297.269531 266.671875 294.996094 266 C 292.722656 265.328125 290.847656 263.71875 289.832031 261.578125 C 289.730469 261.363281 289.640625 261.148438 289.558594 260.929688 C 288.308594 257.546875 289.375 253.746094 292.199219 251.507812 Z M 292.199219 251.507812 "/>
<path style=" stroke:none;fill-rule:nonzero;fill:rgb(18.431373%,18.039216%,25.490196%);fill-opacity:1;" d="M 433.46875 221.757812 C 431.683594 218.589844 429.074219 215.6875 425.628906 214.519531 C 421.179688 213.007812 416.363281 214.617188 411.789062 215.691406 C 408.265625 216.519531 404.582031 217.027344 401.03125 216.328125 C 397.476562 215.628906 394.050781 213.5625 392.433594 210.324219 C 390.058594 205.5625 392.0625 199.882812 391.917969 194.558594 C 391.765625 188.691406 388.929688 183.214844 384.21875 179.707031 C 379.511719 176.195312 373.453125 175.039062 367.78125 176.570312 C 363.398438 175.304688 359.433594 175.1875 356.726562 178.554688 C 349.625 178.554688 343.871094 184.304688 343.871094 191.398438 L 356.160156 191.398438 C 355.578125 194.53125 356.246094 197.765625 358.015625 200.414062 C 360.1875 203.601562 363.960938 205.90625 364.6875 209.6875 C 365.390625 213.355469 362.894531 216.835938 360.277344 219.503906 C 357.664062 222.167969 354.625 224.808594 353.808594 228.453125 C 353.308594 231.21875 353.878906 234.074219 355.398438 236.4375 C 356.921875 238.773438 358.804688 240.847656 360.984375 242.585938 C 370.800781 250.992188 382.46875 256.957031 395.035156 259.996094 C 403.882812 262.125 413.5625 262.675781 421.777344 258.757812 C 428.421875 255.589844 433.449219 249.8125 435.667969 242.796875 C 437.882812 235.78125 437.085938 228.164062 433.46875 221.757812 Z M 433.46875 221.757812 "/>
<path style=" stroke:none;fill-rule:nonzero;fill:rgb(80%,80%,80%);fill-opacity:1;" d="M 436.246094 469.945312 L 292.59375 469.945312 C 292.175781 469.945312 291.839844 469.605469 291.839844 469.1875 C 291.839844 468.769531 292.175781 468.433594 292.59375 468.433594 L 436.246094 468.433594 C 436.664062 468.433594 437 468.769531 437 469.1875 C 437 469.605469 436.664062 469.945312 436.246094 469.945312 Z M 436.246094 469.945312 "/>
</g>
</svg>
