<svg id="icon_Component_3_1" data-name="icon/Component 3 – 1" xmlns="http://www.w3.org/2000/svg" width="24" height="24" viewBox="0 0 24 24">
  <rect id="Rectangle_6" data-name="Rectangle 6" width="24" height="24" fill="rgba(255,255,255,0)"/>
  <g id="pin-3" transform="translate(4 3)">
    <path id="Path_1" data-name="Path 1" d="M8,0A6.957,6.957,0,0,0,1,7a6.722,6.722,0,0,0,2.1,5c.1.1,4.1,3.7,4.2,3.8a1.049,1.049,0,0,0,1.3,0c.1-.1,4.2-3.7,4.2-3.8a6.722,6.722,0,0,0,2.1-5A6.812,6.812,0,0,0,8,0ZM8,9a2,2,0,1,1,2-2A2.006,2.006,0,0,1,8,9Z" fill="#fff"/>
  </g>
</svg>
