<svg id="Group_8" data-name="Group 8" xmlns="http://www.w3.org/2000/svg" width="64.8" height="51" viewBox="0 0 64.8 51">
  <g id="Group_6" data-name="Group 6" transform="translate(0 0)">
    <path id="Path_17" data-name="Path 17" d="M-348.534-3.407a168.174,168.174,0,0,1,5.621,30.073c9.517,2.209,19.21,5.726,27,11.779,0-9.428,0-31.639,0-31.639A45.074,45.074,0,0,0-328.193-.009,56.529,56.529,0,0,0-348.534-3.407Z" transform="translate(348.534 12.554)" fill="#fff"/>
    <path id="Path_18" data-name="Path 18" d="M-314.117,2.041s-9.561-9.829-29.71-10.615l-.78-3.309S-321.085-10.48-314.117,2.041Z" transform="translate(346.735 16.428)" fill="#fdc800"/>
    <path id="Path_19" data-name="Path 19" d="M-312.306-3.548s-7.762-11.537-27.712-13.547l-.635-3.175S-321.6-18.472-312.306-3.548Z" transform="translate(344.923 20.271)" fill="#bec5d0"/>
  </g>
  <g id="Group_7" data-name="Group 7" transform="translate(32.182 0.001)">
    <path id="Path_20" data-name="Path 20" d="M-255.719-3.406a168.138,168.138,0,0,0-5.621,30.073c-9.518,2.209-19.21,5.726-27,11.779,0-9.428,0-31.639,0-31.639A45.082,45.082,0,0,1-276.061-.008,56.533,56.533,0,0,1-255.719-3.406Z" transform="translate(288.337 12.553)" fill="#e6e6e6"/>
    <path id="Path_21" data-name="Path 21" d="M-288.337,2.042s9.561-9.829,29.71-10.616l.779-3.309S-281.369-10.479-288.337,2.042Z" transform="translate(288.337 16.426)" fill="#fdc800"/>
    <path id="Path_22" data-name="Path 22" d="M-288.337-3.546s7.762-11.537,27.712-13.547l.635-3.175S-279.041-18.47-288.337-3.546Z" transform="translate(288.337 20.269)" fill="#bec5d0"/>
  </g>
</svg>
