<svg xmlns="http://www.w3.org/2000/svg" width="66" height="52" viewBox="0 0 66 52">
  <g id="Group_8" data-name="Group 8" transform="translate(348.534 20.271)">
    <g id="Group_6" data-name="Group 6" transform="translate(-348.534 -20.271)">
      <path id="Path_17" data-name="Path 17" d="M-348.534-3.406a171.71,171.71,0,0,1,5.725,30.67c9.693,2.253,19.565,5.839,27.5,12.013,0-9.615,0-32.267,0-32.267a45.9,45.9,0,0,0-12.5-6.951A57.508,57.508,0,0,0-348.534-3.406Z" transform="translate(348.534 12.723)" fill="#103867"/>
      <path id="Path_18" data-name="Path 18" d="M-313.553,2.3s-9.738-10.011-30.26-10.812l-.794-3.37S-320.649-10.454-313.553,2.3Z" transform="translate(346.774 16.512)" fill="#fdc800"/>
      <path id="Path_19" data-name="Path 19" d="M-311.781-3.239s-7.905-11.75-28.226-13.8l-.647-3.234S-321.25-18.438-311.781-3.239Z" transform="translate(345.002 20.271)" fill="#bec5d0"/>
    </g>
    <g id="Group_7" data-name="Group 7" transform="translate(-315.756 -20.27)">
      <path id="Path_20" data-name="Path 20" d="M-255.115-3.405a171.674,171.674,0,0,0-5.725,30.67c-9.694,2.253-19.565,5.839-27.5,12.013,0-9.615,0-32.267,0-32.267a45.9,45.9,0,0,1,12.5-6.95A57.512,57.512,0,0,1-255.115-3.405Z" transform="translate(288.337 12.722)" fill="#002147"/>
      <path id="Path_21" data-name="Path 21" d="M-288.337,2.3s9.738-10.011,30.26-10.812l.794-3.37S-281.24-10.453-288.337,2.3Z" transform="translate(288.337 16.511)" fill="#fdc800"/>
      <path id="Path_22" data-name="Path 22" d="M-288.337-3.237s7.905-11.75,28.225-13.8l.647-3.234S-278.869-18.437-288.337-3.237Z" transform="translate(288.337 20.269)" fill="#bec5d0"/>
    </g>
  </g>
</svg>
