<svg id="Сharacter" xmlns="http://www.w3.org/2000/svg" xmlns:xlink="http://www.w3.org/1999/xlink" width="320" height="470" viewBox="0 0 320 470">
  <defs>
    <clipPath id="clip-path">
      <path id="Shape" d="M0,0H60.987V15.154H0Z" fill="none"/>
    </clipPath>
    <clipPath id="clip-path-2">
      <path id="Shape-2" data-name="Shape" d="M1.073,34.521C-3.306,56.55,6.115,77,22.116,80.2h0c16,3.2,32.527-12.071,36.909-34.1h0C63.4,24.069,53.98,3.621,37.979.424h0A21.737,21.737,0,0,0,33.7,0h0C19.13,0,5.063,14.456,1.073,34.521" transform="translate(0 0)" fill="none"/>
    </clipPath>
    <clipPath id="clip-path-6">
      <path id="Shape-6" data-name="Shape" d="M1.073,34.521C-3.306,56.55,6.115,77,22.116,80.2h0c16,3.2,32.527-12.071,36.909-34.1h0C63.4,24.069,53.98,3.621,37.979.424h0A21.737,21.737,0,0,0,33.7,0h0C19.13,0,5.063,14.456,1.073,34.521Z" transform="translate(0 0)" fill="none"/>
    </clipPath>
    <clipPath id="clip-path-10">
      <path id="Shape-10" data-name="Shape" d="M22.116,80.2c16,3.2,32.527-12.071,36.909-34.1S53.98,3.621,37.979.424A21.737,21.737,0,0,0,33.7,0C19.13,0,5.063,14.456,1.073,34.521-3.306,56.55,6.115,77,22.116,80.2Z" transform="translate(0 0)" fill="none"/>
    </clipPath>
  </defs>
  <path id="Shape-11" data-name="Shape" d="M.039,2.292l.2,2L1.273,6.422,1.139,0Z" transform="translate(91.763 389.078)" fill="#030100"/>
  <g id="Group_111" data-name="Group 111" transform="translate(70.965 0)">
    <path id="Shape-12" data-name="Shape" d="M60.166,0S12.814,8.483,0,10.19c0,0,6.992,128.508,10.851,146.14,1.308,5.97-5.141,42.172-5.943,62.517-1.565,39.722.751,71.992.751,71.992s42.485,3.3,51.66.395-5.876-8.345-15-9.856-13.626-7-13.832-13.876c-.843-28.559,29.577-85.3,27.8-115.763C54.03,113.043,60.166,0,60.166,0" transform="translate(56.265 175.201)" fill="#fff"/>
    <path id="Shape-13" data-name="Shape" d="M42.577,294.383c-15.487,0-35.813-1.58-36.017-1.6a.979.979,0,0,1-.9-.9c-.006-.079-.584-8.239-.967-21.427-.345-11.894-.588-30.341.212-50.674.386-9.8,2.083-23.3,3.58-35.217l0-.031c1.556-12.384,3.026-24.08,2.382-27.022-.876-4-1.978-13.928-3.275-29.506C6.555,115.469,5.38,99.239,4.108,79.77,1.952,46.756.195,14.758,0,11.218A.972.972,0,0,1,.849,10.2C13.413,8.524,60.524.1,60.971.015A1,1,0,0,1,61.143,0a.978.978,0,0,1,.978,1.028c-.015.276-1.565,29.1-2.8,61.914-.719,19.127-1.2,35.972-1.423,50.067-.281,17.592-.166,30.931.343,39.648.931,15.955-6.843,38.969-14.362,61.224l0,0c-7.116,21.062-13.837,40.957-13.434,54.562.2,6.878,4.949,11.6,13.017,12.943,3.627.6,18.347,4,18.666,8.456.1,1.411-1.088,2.519-3.535,3.292C55.985,293.964,50.6,294.383,42.577,294.383ZM60.1,2.152C55.523,2.97,14.982,10.194,2,12.01,2.725,25.12,9.166,140.57,12.783,157.1c.716,3.272-.638,14.044-2.353,27.682l-.008.063c-1.49,11.865-3.178,25.312-3.561,35.018-1.4,35.615.332,65.43.694,71.045,3.455.255,21.4,1.528,35.282,1.528,7.647,0,12.747-.388,15.163-1.152,1.819-.577,2.188-1.13,2.176-1.294-.119-1.665-8.564-5.267-17.037-6.671C34.064,281.8,28.725,276.4,28.491,268.5c-.413-13.954,6.362-34.009,13.535-55.242,7.46-22.081,15.173-44.915,14.264-60.491C54.176,116.546,59.49,13.753,60.1,2.152Z" transform="translate(55.287 174.225)"/>
    <path id="Shape-14" data-name="Shape" d="M0,14.347.2,8.686l36.09.249s1.478-6.808,4.49-8.48,7.564,1.79,7.564,1.79L45.279,9.478s10.326.043,13.708,1.319,1.447,4.357,1.447,4.357Z" transform="translate(58.953 454.641)"/>
    <path id="Shape-15" data-name="Shape" d="M61.89,0S14.539,8.483,1.723,10.192l4.512,136.53S1.382,176.66.314,192.944c-1.74,26.49,4.286,61.431,5.175,75.483.827,13.1,1.894,22.412,1.894,22.412s42.486,3.3,51.659.4-5.873-8.346-15-9.856c-9.123-1.525-13.628-7-13.832-13.878-.845-28.545,23.835-87.6,22.057-118.066C50.014,110.742,61.89,0,61.89,0" transform="translate(18.293 175.406)" fill="#fff"/>
    <path id="Shape-16" data-name="Shape" d="M44.307,294.383c-15.493,0-35.819-1.58-36.022-1.6a.977.977,0,0,1-.9-.862c-.01-.078-1.086-9.581-1.9-22.46-.249-3.93-.912-9.583-1.68-16.129l-.019-.159v0c-2-16.99-4.728-40.257-3.476-59.319,1.039-15.841,5.718-44.986,5.917-46.219L1.724,11.2a.975.975,0,0,1,.846-1C15.234,8.512,62.259.095,62.7.015A1.023,1.023,0,0,1,62.867,0a.976.976,0,0,1,.973,1.08c-.029.271-3,28.041-5.687,60.738-1.546,18.789-2.684,35.364-3.382,49.265-.871,17.348-1.054,30.562-.546,39.273.933,15.992-5.339,39.731-11.4,62.688-5.685,21.517-11.054,41.839-10.652,55.4.2,6.879,4.949,11.6,13.016,12.945,3.626.6,18.346,3.99,18.666,8.455.1,1.411-1.09,2.519-3.535,3.293C57.711,293.965,52.325,294.383,44.307,294.383ZM61.759,2.165c-10.575,1.885-46.014,8.167-58.053,9.85L8.189,147.667a.9.9,0,0,1-.012.187c-.048.3-4.864,30.176-5.911,46.13-1.24,18.881,1.48,42.044,3.467,58.957v.019c.779,6.639,1.452,12.37,1.706,16.382.662,10.487,1.481,18.572,1.8,21.561,3.468.255,21.473,1.53,35.328,1.531,7.64,0,12.737-.387,15.152-1.151,1.822-.578,2.19-1.131,2.177-1.3-.118-1.665-8.563-5.267-17.036-6.67C35.79,281.8,30.45,276.4,30.215,268.5c-.41-13.846,4.994-34.3,10.714-55.955l.008-.031c6.023-22.8,12.251-46.374,11.335-62.048-.483-8.276-.345-20.6.409-36.628.615-13.064,1.641-28.658,3.051-46.349C58.225,36.225,61.19,7.589,61.759,2.165Z" transform="translate(17.315 174.43)"/>
    <g id="Group" transform="translate(22.705 454.846)">
      <path id="Shape-17" data-name="Shape" d="M0,0H60.987V15.154H0Z" transform="translate(0 0)" fill="none"/>
      <g id="Group-2" data-name="Group" transform="translate(0 0)" clip-path="url(#clip-path)">
        <path id="Shape-18" data-name="Shape" d="M0,14.348.2,8.686l36.09.263s1.477-6.819,4.49-8.493,7.564,1.791,7.564,1.791L45.281,9.478s10.326.044,13.707,1.335,1.449,4.342,1.449,4.342Z" transform="translate(0 0)"/>
      </g>
    </g>
    <path id="Shape-19" data-name="Shape" d="M99.486.575C121.607,17.788,119.1,53.9,122.884,106.9s-1.841,105.15-1.841,105.15-46.762,3.99-79.509,2.684c-4.076-.161-9.815-28.31-9.815-28.31S19.706,213.3,15.511,212.741A67.3,67.3,0,0,1,0,208.458s5.21-50.3,11.187-91.525,3.024-61.292,12.723-73.4C32.338,33.021,92.176-5.112,99.486.575" transform="translate(0 141.171)" fill="#00b2b2"/>
    <path id="Shape-20" data-name="Shape" d="M1.782,20.2C-4,15.865,5.752,6.737,10.374,3.272,11.66,2.31,13.363-1.05,14.187.327,16.708,4.534,5.5,22.987,1.782,20.2" transform="translate(72.027 189.933)" fill="#ffd2e1"/>
    <path id="Shape-21" data-name="Shape" d="M1.781,20.195C-4,15.868,5.751,6.736,10.375,3.272,11.659,2.31,13.362-1.05,14.188.326,16.709,4.533,5.5,22.982,1.781,20.195" transform="translate(20.938 264.514)" fill="#ffd2e1"/>
    <path id="Shape-22" data-name="Shape" d="M1.782,20.2C-4,15.865,5.752,6.737,10.374,3.272,11.66,2.31,13.363-1.05,14.189.327,16.708,4.534,5.5,22.985,1.782,20.2" transform="translate(99.614 209.248)" fill="#ffd2e1"/>
    <path id="Shape-23" data-name="Shape" d="M1.783,20.195C-4,15.869,5.751,6.736,10.375,3.272c1.286-.961,2.989-4.321,3.811-2.945C16.708,4.533,5.5,22.982,1.783,20.195" transform="translate(97.934 259.674)" fill="#ffd2e1"/>
    <path id="Shape-24" data-name="Shape" d="M1.782,20.2C-4,15.861,5.751,6.738,10.374,3.276c1.286-.968,2.989-4.327,3.813-2.948C16.709,4.537,5.5,22.99,1.782,20.2" transform="translate(45.298 321.787)" fill="#ffd2e1"/>
    <path id="Shape-25" data-name="Shape" d="M3.187,18.38C-2.538,20.49.362-12.527,4.749,5.3,5.215,7.2,6.188,9.1,5.957,11.038c-.31,2.6-.313,6.435-2.77,7.342" transform="translate(39.604 225.56)" fill="#ffd2e1"/>
    <path id="Shape-26" data-name="Shape" d="M3.188,18.385C-2.539,20.5.363-12.524,4.749,5.3c.467,1.907,1.44,3.8,1.209,5.735-.31,2.6-.313,6.439-2.77,7.349" transform="translate(63.701 280.404)" fill="#ffd2e1"/>
    <path id="Shape-27" data-name="Shape" d="M3.187,18.383C-2.538,20.5.362-12.522,4.749,5.3c.466,1.907,1.438,3.8,1.208,5.735-.31,2.6-.313,6.439-2.77,7.349" transform="translate(18.912 304.897)" fill="#ffd2e1"/>
    <path id="Shape-28" data-name="Shape" d="M3.187,18.379C-2.538,20.491.362-12.528,4.749,5.3,5.215,7.2,6.188,9.1,5.957,11.037c-.31,2.6-.313,6.435-2.77,7.342" transform="translate(81.154 234.27)" fill="#ffd2e1"/>
    <path id="Shape-29" data-name="Shape" d="M3.188,18.377C-2.538,20.489.362-12.53,4.748,5.307c.467,1.892,1.44,3.784,1.208,5.735-.31,2.6-.311,6.425-2.768,7.334" transform="translate(102.88 321.067)" fill="#ffd2e1"/>
    <path id="Shape-30" data-name="Shape" d="M66.419,0c-4.071.16-7.955,2.485-12.111,2.649C48.2,2.888,41.8,1.3,35.83,6.142c-6.055,4.917-2.861,10.277-9.364,14.261-7.6,4.657-16.566-.747-21.818,7.981C-2.542,40.335,6.1,50.263,6.868,54.458,8.36,62.591,2.122,64.677.248,70.209c-.9,2.655.849,5.621,1.884,7.9,5.062,11.13,11.944,15.686,24.021,17.288,10.852,1.439,8.829-13.061,17.627-16.147,8.065-2.828,27.064-3.171,35.169-9.394,9.765-7.5,2.214-41.1.126-52.481C78.851,16.141,64.5,6.115,63.615,5.543" transform="translate(19.683 10.838)" fill="#ffbe00"/>
    <path id="Shape-31" data-name="Shape" d="M66.419,0c-4.071.16-7.955,2.485-12.111,2.649C48.2,2.888,41.8,1.3,35.83,6.142c-6.055,4.917-2.861,10.277-9.364,14.261-7.6,4.657-16.566-.747-21.818,7.981C-2.542,40.335,6.1,50.263,6.868,54.458,8.36,62.591,2.122,64.677.248,70.209c-.9,2.655.849,5.621,1.884,7.9,5.062,11.13,11.944,15.686,24.021,17.288,10.852,1.439,8.829-13.061,17.627-16.147,8.065-2.828,27.064-3.171,35.169-9.394,9.765-7.5,2.214-41.1.126-52.481C78.851,16.141,64.5,6.115,63.615,5.543" transform="translate(19.683 10.838)" fill="#ffbe00"/>
    <path id="Shape-32" data-name="Shape" d="M120.023,30.872c1.133-7.17-7.605-19.566-16.935-5.967-2.623,3.821-11.33,16.674-13.2,17.9C76.2,51.792,56.973,70.488,53.526,68.913c-14.577-6.658-14.02-29.024-16.3-43.313C34.319,7.345,11.1-9.375,1.907,6.1-6.944,21,16.4,99.626,43.461,101.1c29.214,1.594,49.42-42.387,61.369-52.827,3.985-3.481,14.251-11.438,15.192-17.4" transform="translate(82.634 72.265)" fill="#fff"/>
    <path id="Shape-33" data-name="Shape" d="M46,103.1c-.533,0-1.074-.015-1.607-.044C32.809,102.42,23.2,88.864,17.172,77.6,3.723,52.452-3.908,16.609,2.05,6.58a13.779,13.779,0,0,1,4.729-4.9A12.007,12.007,0,0,1,13.031,0a15.373,15.373,0,0,1,2.877.282c10.5,2,21.371,14.218,23.27,26.141.416,2.6.732,5.436,1.068,8.437l0,.03v.005C41.767,48.435,43.487,63.781,54.917,69a.679.679,0,0,0,.2.028c.917,0,3.108-1.3,6.7-3.976,3.093-2.305,6.671-5.215,9.828-7.782l.365-.3.061-.05c5.907-4.8,12.6-10.244,18.262-13.959,1.568-1.029,9.589-12.753,12.224-16.605l.706-1.032a17.769,17.769,0,0,1,5.111-5.2,8.192,8.192,0,0,1,4.3-1.306,7.051,7.051,0,0,1,2.608.5c4.681,1.858,7.393,8.228,6.691,12.681-.883,5.582-8.949,12.411-13.768,16.491-.631.535-1.24,1.051-1.749,1.495-3.21,2.8-7.111,8.2-11.628,14.455l-.013.018c-2.9,4.008-6.177,8.551-9.677,12.942A117.253,117.253,0,0,1,73.813,89.916a68.483,68.483,0,0,1-6.3,5.271,48.447,48.447,0,0,1-6.731,4.174,36.087,36.087,0,0,1-7.169,2.746A30.276,30.276,0,0,1,46,103.1ZM13.032,1.953A10.193,10.193,0,0,0,8.2,3.109,11.609,11.609,0,0,0,3.731,7.575c-5.574,9.381,2.221,44.9,15.165,69.107,8.181,15.293,17.273,23.966,25.6,24.421.494.027.995.04,1.489.04a28.413,28.413,0,0,0,7.27-.963A34.461,34.461,0,0,0,60.132,97.5a47.011,47.011,0,0,0,6.48-4.07A67.232,67.232,0,0,0,72.7,88.293a116.387,116.387,0,0,0,11-12.215c3.408-4.287,6.618-8.73,9.45-12.65l.08-.111c4.592-6.356,8.558-11.846,11.939-14.8.507-.444,1.121-.964,1.77-1.514,4.31-3.65,12.333-10.445,13.1-15.308.566-3.575-1.753-9.085-5.482-10.564a5.165,5.165,0,0,0-1.916-.375,6.6,6.6,0,0,0-3.873,1.432,17.373,17.373,0,0,0-3.892,4.243l-.705,1.03C98.525,35.717,93.069,43.507,91.41,44.6c-5.6,3.673-12.272,9.1-18.162,13.889l0,0c-5.47,4.448-9.2,7.416-12.063,9.426-3,2.1-4.909,3.04-6.2,3.04a2.051,2.051,0,0,1-.875-.179c-12.439-5.681-14.3-22.309-15.8-35.67-.333-2.979-.647-5.793-1.061-8.375C35.464,15.528,25.321,4.065,15.542,2.2A13.45,13.45,0,0,0,13.032,1.953Z" transform="translate(81.65 71.295)"/>
    <path id="Shape-34" data-name="Shape" d="M57.744,36.3c-1.847-5.477-1.865-8.582-2.189-12.7C54.848,14.624,53.8,5.043,53.8,5.043L43.5,0c-3.614,14.951-1.707,14.658-11.247,32.027C29.667,36.74,6.308,37.139,6.308,37.139S.966,51.84.641,53.345c-7.291,33.761,50,53.314,50,53.314l18.8-42.736s-9.85-22.145-11.7-27.623" transform="translate(34.347 30.313)" fill="#fff"/>
    <path id="Shape-35" data-name="Shape" d="M51.61,108.608a.981.981,0,0,1-.316-.051A133.089,133.089,0,0,1,23.325,94.443C5.42,82.283-2.421,68.338.651,54.114c.346-1.6,5.65-16.185,5.7-16.332a.971.971,0,0,1,.9-.644c8.812-.151,23.421-1.534,25.106-4.6,7.226-13.157,7.83-16.126,9.292-23.3.418-2.059.991-4.879,1.863-8.487a.973.973,0,0,1,.535-.654A.988.988,0,0,1,44.9.1L55.2,5.142a.972.972,0,0,1,.54.77l0,.019c.109,1.01,1.088,10.109,1.755,18.566l.112,1.5v0a38.356,38.356,0,0,0,2.028,10.966C61.3,41.916,69.612,60.7,71.261,64.418l.037.083a.966.966,0,0,1,0,.789l-18.8,42.737A.979.979,0,0,1,51.61,108.608ZM45.134,2.388c-.693,2.95-1.156,5.224-1.564,7.231l0,.011c-1.5,7.381-2.127,10.436-9.491,23.841-2.577,4.694-20.638,5.476-26.112,5.6C6.2,43.939,2.8,53.429,2.561,54.526a26.144,26.144,0,0,0-.082,10.826,30.568,30.568,0,0,0,3.916,9.7C9.7,80.5,14.863,85.818,21.736,90.861a115.952,115.952,0,0,0,17.885,10.607c5.454,2.648,9.832,4.335,11.462,4.937L69.337,64.9c-2.3-5.179-9.916-22.455-11.554-27.315a39.944,39.944,0,0,1-2.128-11.452l-.11-1.482c-.6-7.59-1.448-15.691-1.694-17.994L45.134,2.388Z" transform="translate(33.382 29.337)"/>
    <path id="Shape-36" data-name="Shape" d="M0,4.694C2.783,6.821,5.645,2.521,3.3.518A2.307,2.307,0,0,0,1.237.077" transform="translate(97.054 39.393)" fill="#fff"/>
    <path id="Shape-37" data-name="Shape" d="M2.547,7.219A3.561,3.561,0,0,1,.383,6.447.976.976,0,1,1,1.571,4.9,1.408,1.408,0,0,0,3.69,4.65a1.717,1.717,0,0,0-.047-2.413A1.335,1.335,0,0,0,2.462,2a.975.975,0,1,1-.5-1.886A3.255,3.255,0,0,1,4.914.755a3.63,3.63,0,0,1,.3,5.122A3.419,3.419,0,0,1,2.547,7.219" transform="translate(96.076 38.414)"/>
    <path id="Shape-38" data-name="Shape" d="M26.209,7.722c-.764,15.791-2.936,29.362-4.33,33.925C19.893,48.139,13.688,49.6,9.4,48.991,4.883,48.355-.445,44.723.03,37.713.578,29.576,2.895,11.875,4.076,8.841S8.4,2.588,12.748.7c5.8-2.521,13.691,2.252,13.462,7.025" transform="translate(75.099 12.305)" fill="#fff"/>
    <path id="Shape-39" data-name="Shape" d="M12.236,51.063a14.274,14.274,0,0,1-1.992-.139C4.975,50.181-.467,46.013.032,38.614c.531-7.866,2.85-25.92,4.11-29.16C5.5,5.974,9.02,2.646,13.337.769A9.67,9.67,0,0,1,17.216,0a12.555,12.555,0,0,1,7.038,2.244c2.558,1.762,4.02,4.189,3.91,6.492-.786,16.273-3.03,29.774-4.373,34.162a11.693,11.693,0,0,1-1.877,3.71,10.746,10.746,0,0,1-2.77,2.536A12.8,12.8,0,0,1,12.236,51.063ZM17.23,1.945a7.751,7.751,0,0,0-3.113.614c-3.856,1.675-6.979,4.588-8.152,7.6-1.1,2.817-3.415,20.148-3.984,28.585-.416,6.157,4.133,9.628,8.536,10.247a11.457,11.457,0,0,0,1.6.108,11.541,11.541,0,0,0,5.575-1.376,8.952,8.952,0,0,0,4.234-5.394c1.312-4.3,3.51-17.587,4.289-33.688.078-1.623-1.069-3.414-3.068-4.792A10.568,10.568,0,0,0,17.23,1.945Z" transform="translate(74.12 11.338)"/>
    <path id="Shape-40" data-name="Shape" d="M26.209,7.722c-.764,15.791-2.936,29.362-4.33,33.925C19.893,48.139,13.688,49.6,9.4,48.991,4.883,48.355-.445,44.723.03,37.713.578,29.576,2.895,11.875,4.076,8.841S8.4,2.588,12.748.7c5.8-2.521,13.691,2.252,13.462,7.025" transform="translate(75.099 12.305)" fill="#fff"/>
    <path id="Shape-41" data-name="Shape" d="M12.236,51.063a14.274,14.274,0,0,1-1.992-.139C4.975,50.181-.467,46.013.032,38.614c.531-7.866,2.85-25.92,4.11-29.16C5.5,5.974,9.02,2.646,13.337.769A9.67,9.67,0,0,1,17.216,0a12.555,12.555,0,0,1,7.038,2.244c2.558,1.762,4.02,4.189,3.91,6.492-.786,16.273-3.03,29.774-4.373,34.162a11.693,11.693,0,0,1-1.877,3.71,10.746,10.746,0,0,1-2.77,2.536A12.8,12.8,0,0,1,12.236,51.063ZM17.23,1.945a7.751,7.751,0,0,0-3.113.614c-3.856,1.675-6.979,4.588-8.152,7.6-1.1,2.817-3.415,20.148-3.984,28.585-.416,6.157,4.133,9.628,8.536,10.247a11.457,11.457,0,0,0,1.6.108,11.541,11.541,0,0,0,5.575-1.376,8.952,8.952,0,0,0,4.234-5.394c1.312-4.3,3.51-17.587,4.289-33.688.078-1.623-1.069-3.414-3.068-4.792A10.568,10.568,0,0,0,17.23,1.945Z" transform="translate(74.12 11.338)"/>
    <path id="Shape-42" data-name="Shape" d="M26.209,7.722c-.764,15.791-2.936,29.362-4.33,33.925C19.893,48.139,13.688,49.6,9.4,48.991,4.883,48.355-.445,44.723.03,37.713.578,29.576,2.895,11.875,4.076,8.841S8.4,2.588,12.748.7c5.8-2.521,13.691,2.252,13.462,7.025" transform="translate(75.099 12.305)" fill="#fff"/>
    <path id="Shape-43" data-name="Shape" d="M12.236,51.063a14.274,14.274,0,0,1-1.992-.139C4.975,50.181-.467,46.013.032,38.614c.531-7.866,2.85-25.92,4.11-29.16C5.5,5.974,9.02,2.646,13.337.769A9.67,9.67,0,0,1,17.216,0a12.555,12.555,0,0,1,7.038,2.244c2.558,1.762,4.02,4.189,3.91,6.492-.786,16.273-3.03,29.774-4.373,34.162a11.693,11.693,0,0,1-1.877,3.71,10.746,10.746,0,0,1-2.77,2.536A12.8,12.8,0,0,1,12.236,51.063ZM17.23,1.945a7.751,7.751,0,0,0-3.113.614c-3.856,1.675-6.979,4.588-8.152,7.6-1.1,2.817-3.415,20.148-3.984,28.585-.416,6.157,4.133,9.628,8.536,10.247a11.457,11.457,0,0,0,1.6.108,11.541,11.541,0,0,0,5.575-1.376,8.952,8.952,0,0,0,4.234-5.394c1.312-4.3,3.51-17.587,4.289-33.688.078-1.623-1.069-3.414-3.068-4.792A10.568,10.568,0,0,0,17.23,1.945Z" transform="translate(74.12 11.338)"/>
    <path id="Shape-44" data-name="Shape" d="M3.569,8.575A8.966,8.966,0,0,1,.627,7.827a.976.976,0,1,1,.7-1.822,7.79,7.79,0,0,0,2.189.62A12.168,12.168,0,0,0,3.15,4.662a30.584,30.584,0,0,1-.677-3.576A.977.977,0,0,1,4.415.864a28.485,28.485,0,0,0,.636,3.35c.428,1.816.736,3.127-.179,3.927a1.9,1.9,0,0,1-1.3.434" transform="translate(90.468 37.309)"/>
    <path id="Shape-45" data-name="Shape" d="M3.569,8.575A8.966,8.966,0,0,1,.627,7.827a.976.976,0,1,1,.7-1.822,7.79,7.79,0,0,0,2.189.62A12.168,12.168,0,0,0,3.15,4.662a30.584,30.584,0,0,1-.677-3.576A.977.977,0,0,1,4.415.864a28.485,28.485,0,0,0,.636,3.35c.428,1.816.736,3.127-.179,3.927a1.9,1.9,0,0,1-1.3.434" transform="translate(90.468 37.309)"/>
    <path id="Shape-46" data-name="Shape" d="M1.637,1.04A.879.879,0,0,0,.955.007a.88.88,0,0,0-.945.8A.879.879,0,0,0,.692,1.842a.88.88,0,0,0,.945-.8" transform="translate(88.028 36.66)"/>
    <path id="Shape-47" data-name="Shape" d="M1.636,1.04A.878.878,0,0,0,.954.007a.878.878,0,0,0-.943.8.877.877,0,0,0,.68,1.033.88.88,0,0,0,.945-.8" transform="translate(96.256 37.483)"/>
    <path id="Shape-48" data-name="Shape" d="M1.636,1.04A.878.878,0,0,0,.954.007a.878.878,0,0,0-.943.8.877.877,0,0,0,.68,1.033.88.88,0,0,0,.945-.8" transform="translate(96.256 37.483)"/>
    <path id="Shape-49" data-name="Shape" d="M3.557,5.077C.333,6.455-1.38,1.583,1.385.219A2.307,2.307,0,0,1,3.495.3" transform="translate(74.154 37.608)" fill="#fff"/>
    <path id="Shape-50" data-name="Shape" d="M3.437,7.267A3.34,3.34,0,0,1,.379,5.212,3.631,3.631,0,0,1,1.931.322a3.262,3.262,0,0,1,3.014.1A.976.976,0,1,1,4,2.13a1.321,1.321,0,0,0-1.2-.059,1.716,1.716,0,0,0-.642,2.323,1.411,1.411,0,0,0,2,.763.976.976,0,1,1,.77,1.794,3.782,3.782,0,0,1-1.483.315" transform="translate(73.176 36.631)"/>
    <path id="Shape-51" data-name="Shape" d="M1.081,1.233c.028-.136.053-.273.081-.409" transform="translate(93.98 44.14)" fill="#6294e5"/>
    <path id="Shape-52" data-name="Shape" d="M39.272,18.537c-.926,2.067-10.836,6.3-20.892-3.3S3.131,27.064,1.573,26.832c-3.938-.585.256-10.577,4.481-19.782,6.939-15.117,39.882-3.4,33.218,11.487" transform="translate(69.374 10.346)" fill="#ffbe00"/>
    <path id="Shape-53" data-name="Shape" d="M39.272,18.537c-.926,2.067-10.836,6.3-20.892-3.3S3.131,27.064,1.573,26.832c-3.938-.585.256-10.577,4.481-19.782,6.939-15.117,39.882-3.4,33.218,11.487" transform="translate(69.374 10.346)" fill="#ffbe00"/>
    <path id="Shape-54" data-name="Shape" d="M39.273,18.537c-.927,2.067-10.836,6.3-20.892-3.3S3.131,27.064,1.574,26.832c-3.939-.585.256-10.577,4.481-19.782C13-8.067,45.936,3.646,39.273,18.537" transform="translate(68.585 9.669)" fill="#ffbe00"/>
    <path id="Shape-55" data-name="Shape" d="M9.074,22.852C1.5,7.732,10.721,4.209,27.8.421,37.813-1.8,46.248,5.4,55.417,7.431c6.716,1.489,16.093,4.653,23.5,1,3.2-1.581,3.8-4.246,5.063-4.8,0,0,8.609,4.384,9.4,3.82.813-.579,10.957,45.435,10.957,45.435L95.9,84.294s-12.395,17.4-21.294,25.015c-5.9,5.046-13.063,10.061-20.6,12.151-57.326,15.9-56.92-54.324-51.961-93.935" transform="translate(10.664 66.145)" fill="#ffd2e1"/>
    <path id="Shape-56" data-name="Shape" d="M7.219,15.213A7.429,7.429,0,0,1,0,7.606,7.428,7.428,0,0,1,7.219,0a7.427,7.427,0,0,1,7.217,7.606A7.428,7.428,0,0,1,7.219,15.213Zm0-13.262A5.476,5.476,0,0,0,1.954,7.606a5.477,5.477,0,0,0,5.265,5.656,5.476,5.476,0,0,0,5.263-5.656A5.476,5.476,0,0,0,7.219,1.951Z" transform="translate(79.215 28.847)"/>
    <path id="Shape-57" data-name="Shape" d="M7.219,15.214A7.429,7.429,0,0,1,0,7.607,7.429,7.429,0,0,1,7.219,0a7.429,7.429,0,0,1,7.218,7.607A7.429,7.429,0,0,1,7.219,15.214Zm0-13.263A5.477,5.477,0,0,0,1.954,7.607a5.477,5.477,0,0,0,5.265,5.656,5.477,5.477,0,0,0,5.265-5.656A5.477,5.477,0,0,0,7.219,1.951Z" transform="translate(94.193 30.626)"/>
    <path id="Shape-58" data-name="Shape" d="M7.219,15.214A7.429,7.429,0,0,1,0,7.607,7.429,7.429,0,0,1,7.219,0a7.429,7.429,0,0,1,7.218,7.607A7.429,7.429,0,0,1,7.219,15.214Zm0-13.263A5.477,5.477,0,0,0,1.954,7.607a5.477,5.477,0,0,0,5.265,5.656,5.477,5.477,0,0,0,5.265-5.656A5.477,5.477,0,0,0,7.219,1.951Z" transform="translate(94.193 30.626)"/>
    <path id="Shape-59" data-name="Shape" d="M7.219,15.214A7.429,7.429,0,0,1,0,7.607,7.429,7.429,0,0,1,7.219,0a7.429,7.429,0,0,1,7.218,7.607A7.429,7.429,0,0,1,7.219,15.214Zm0-13.263A5.477,5.477,0,0,0,1.954,7.607a5.477,5.477,0,0,0,5.265,5.656,5.477,5.477,0,0,0,5.265-5.656A5.477,5.477,0,0,0,7.219,1.951Z" transform="translate(94.193 30.626)"/>
    <path id="Shape-60" data-name="Shape" d="M3.111,2.385a.967.967,0,0,1-.505-.142,2.47,2.47,0,0,0-1.168-.289.932.932,0,0,1-1.3-.329A1.015,1.015,0,0,1,.491.258c.974-.612,2.633.019,3.128.318a.975.975,0,0,1-.508,1.809" transform="translate(92.052 34.173)"/>
    <path id="Shape-61" data-name="Shape" d="M2.31,6.706a.976.976,0,0,1-.94-.713L.036,1.238A.975.975,0,0,1,1.082.006L8.045.763A.975.975,0,1,1,7.835,2.7L2.307,2.1l.945,3.368A.978.978,0,0,1,2.31,6.706" transform="translate(72.54 32.176)"/>
    <path id="Shape-62" data-name="Shape" d="M31.139,89.684a27.028,27.028,0,0,1-5.251-.518c-9.244-1.839-16.88-8.352-21.5-18.338C0,61.339-1.144,49.739,1.169,38.163S8.99,16.308,16.687,9.226A36.762,36.762,0,0,1,27.143,2.344,28.488,28.488,0,0,1,38.331,0a27.024,27.024,0,0,1,5.255.518c9.245,1.839,16.88,8.351,21.5,18.337,4.387,9.488,5.53,21.089,3.218,32.665s-7.82,21.855-15.517,28.938A36.762,36.762,0,0,1,42.328,87.34,28.5,28.5,0,0,1,31.139,89.684ZM38.392,9.308a19.525,19.525,0,0,0-7.852,1.718A27.52,27.52,0,0,0,23,16.064c-6.257,5.757-10.767,14.251-12.7,23.918S9.278,59.216,12.845,66.931C16.181,74.145,21.46,78.8,27.708,80.046a17.337,17.337,0,0,0,3.371.33,19.533,19.533,0,0,0,7.852-1.717,27.518,27.518,0,0,0,7.543-5.038C52.732,67.86,57.241,59.366,59.17,49.7S60.2,30.47,56.629,22.754c-3.339-7.215-8.618-11.873-14.865-13.115A17.267,17.267,0,0,0,38.392,9.308Z" transform="translate(104.343 0)"/>
    <path id="Shape-63" data-name="Shape" d="M4.476,2.47a.974.974,0,0,1-.638-.236,4.252,4.252,0,0,0-2.467-.188,1,1,0,0,1-.292.066A1.029,1.029,0,0,1,.054,1.461.98.98,0,0,1,.428.331C.815.066,3.742-.427,5.114.755A.975.975,0,0,1,4.476,2.47" transform="translate(112.793 33.318)"/>
    <path id="Shape-64" data-name="Shape" d="M.184,1.142h0Z" transform="translate(89.663 48.416)" fill="#ffbe00"/>
    <path id="Shape-65" data-name="Shape" d="M.979,14.858A.976.976,0,0,1,.54,13.009,110.288,110.288,0,0,0,20.9.213a.976.976,0,1,1,1.22,1.524A112.236,112.236,0,0,1,1.415,14.755a.971.971,0,0,1-.436.1" transform="translate(94.01 117.608)"/>
    <path id="Shape-66" data-name="Shape" d="M42.069,16.721c-15.31,0-34.408-9.053-41.71-14.99A.976.976,0,0,1,1.593.219C9.507,6.651,33.126,17.4,48.2,14.169c5.125-1.1,8.764-3.735,10.814-7.829a.977.977,0,0,1,1.748.873c-2.329,4.65-6.418,7.632-12.153,8.864a31.342,31.342,0,0,1-6.544.644" transform="translate(38.206 65.537)"/>
  </g>
  <path id="Shape-67" data-name="Shape" d="M4.833,0,0,37.8a4.639,4.639,0,0,0,1.963,1.31,3.921,3.921,0,0,0,2.221-.283L9.634.869Z" transform="translate(198.811 83.496)"/>
  <g id="Group_141" data-name="Group 141" transform="translate(181.257 4.95)">
    <g id="Group-3" data-name="Group" transform="translate(0 0)">
      <path id="Shape-68" data-name="Shape" d="M1.073,34.521C-3.306,56.55,6.115,77,22.116,80.2h0c16,3.2,32.527-12.071,36.909-34.1h0C63.4,24.069,53.98,3.621,37.979.424h0A21.737,21.737,0,0,0,33.7,0h0C19.13,0,5.063,14.456,1.073,34.521" transform="translate(0 0)" fill="none"/>
      <g id="Group-4" data-name="Group" clip-path="url(#clip-path-2)">
        <path id="Shape-69" data-name="Shape" d="M83.72,0C78.588.2,73.694,3.146,68.458,3.352c-7.7.3-15.769-1.713-23.294,4.421-7.632,6.221-3.605,13-11.8,18.047-9.577,5.891-20.882-.946-27.5,10.1-9.063,15.125,1.829,27.689,2.8,33C10.538,79.208,2.675,81.847.313,88.848c-1.132,3.359,1.07,7.112,2.374,9.992,6.381,14.085,15.056,19.849,30.28,21.877,13.677,1.821,11.127-16.527,22.219-20.432C65.35,96.706,89.3,96.269,99.516,88.4c12.31-9.488,2.791-52.014.159-66.412C99.392,20.426,81.3,7.739,80.187,7.015" transform="translate(-87.111 -2.606)" fill="#ffbe00"/>
      </g>
    </g>
    <g id="Group-5" data-name="Group" transform="translate(0 0)">
      <path id="Shape-70" data-name="Shape" d="M1.073,34.521C-3.306,56.55,6.115,77,22.116,80.2h0c16,3.2,32.527-12.071,36.909-34.1h0C63.4,24.069,53.98,3.621,37.979.424h0A21.737,21.737,0,0,0,33.7,0h0C19.13,0,5.063,14.456,1.073,34.521" transform="translate(0 0)" fill="none"/>
      <g id="Group-6" data-name="Group" clip-path="url(#clip-path-2)">
        <path id="Shape-71" data-name="Shape" d="M0,5.939C3.508,8.632,7.115,3.191,4.162.656A2.9,2.9,0,0,0,1.56.1" transform="translate(10.414 33.53)" fill="#fff"/>
      </g>
    </g>
    <g id="Group-7" data-name="Group" transform="translate(0 0)">
      <path id="Shape-72" data-name="Shape" d="M1.073,34.521C-3.306,56.55,6.115,77,22.116,80.2h0c16,3.2,32.527-12.071,36.909-34.1h0C63.4,24.069,53.98,3.621,37.979.424h0A21.737,21.737,0,0,0,33.7,0h0C19.13,0,5.063,14.456,1.073,34.521" transform="translate(0 0)" fill="none"/>
      <g id="Group-8" data-name="Group" clip-path="url(#clip-path-2)">
        <path id="Shape-73" data-name="Shape" d="M2.919,8.623A4.136,4.136,0,0,1,.382,7.7.978.978,0,0,1,1.57,6.144,2.037,2.037,0,0,0,4.6,5.789,2.43,2.43,0,0,0,4.5,2.38a1.928,1.928,0,0,0-1.718-.355.978.978,0,0,1-.5-1.892A3.838,3.838,0,0,1,5.773.894a4.353,4.353,0,0,1,.339,6.127,4.175,4.175,0,0,1-3.193,1.6" transform="translate(9.437 32.548)"/>
      </g>
    </g>
    <g id="Group-9" data-name="Group" transform="translate(0 0)">
      <path id="Shape-74" data-name="Shape" d="M1.073,34.521C-3.306,56.55,6.115,77,22.116,80.2h0c16,3.2,32.527-12.071,36.909-34.1h0C63.4,24.069,53.98,3.621,37.979.424h0A21.737,21.737,0,0,0,33.7,0h0C19.13,0,5.063,14.456,1.073,34.521" transform="translate(0 0)" fill="none"/>
      <g id="Group-10" data-name="Group" clip-path="url(#clip-path-2)">
        <path id="Shape-75" data-name="Shape" d="M33.037,9.772c-.962,19.983-3.7,37.156-5.459,42.933C25.078,60.919,17.254,62.762,11.851,62,6.156,61.191-.56,56.6.037,47.724c.691-10.3,3.613-32.7,5.1-36.536S10.586,3.274,16.067.882c7.313-3.19,17.259,2.85,16.97,8.89" transform="translate(-17.261 -0.749)" fill="#fff"/>
      </g>
    </g>
    <g id="Group-11" data-name="Group" transform="translate(0 0)">
      <path id="Shape-76" data-name="Shape" d="M1.073,34.521C-3.306,56.55,6.115,77,22.116,80.2h0c16,3.2,32.527-12.071,36.909-34.1h0C63.4,24.069,53.98,3.621,37.979.424h0A21.737,21.737,0,0,0,33.7,0h0C19.13,0,5.063,14.456,1.073,34.521Z" transform="translate(0 0)" fill="none"/>
      <g id="Group-12" data-name="Group" clip-path="url(#clip-path-6)">
        <path id="Shape-77" data-name="Shape" d="M15.167,64.109a17.929,17.929,0,0,1-2.473-.173C6.165,63.011-.58,57.826.04,48.626.707,38.687,3.623,15.887,5.205,11.8c1.682-4.345,6.07-8.5,11.45-10.85A11.9,11.9,0,0,1,21.446,0a15.515,15.515,0,0,1,8.727,2.8c3.153,2.179,4.953,5.166,4.816,7.989C34,31.361,31.176,48.419,29.488,53.96a14.537,14.537,0,0,1-2.325,4.611,13.326,13.326,0,0,1-3.432,3.152A15.84,15.84,0,0,1,15.167,64.109ZM21.457,1.95a10.011,10.011,0,0,0-4.022.8C12.516,4.894,8.528,8.635,7.026,12.512c-1.39,3.584-4.32,25.56-5.038,36.247C1.452,56.712,7.3,61.2,12.965,62a14.623,14.623,0,0,0,2.055.14,14.757,14.757,0,0,0,7.163-1.779,11.559,11.559,0,0,0,5.439-6.969c1.659-5.454,4.436-22.306,5.417-42.694.1-2.144-1.385-4.494-3.976-6.286A13.56,13.56,0,0,0,21.457,1.95Z" transform="translate(-18.238 -1.717)"/>
      </g>
    </g>
    <g id="Group-13" data-name="Group" transform="translate(0 0)">
      <path id="Shape-78" data-name="Shape" d="M1.073,34.521C-3.306,56.55,6.115,77,22.116,80.2h0c16,3.2,32.527-12.071,36.909-34.1h0C63.4,24.069,53.98,3.621,37.979.424h0A21.737,21.737,0,0,0,33.7,0h0C19.13,0,5.063,14.456,1.073,34.521" transform="translate(0 0)" fill="none"/>
      <g id="Group-14" data-name="Group" clip-path="url(#clip-path-2)">
        <path id="Shape-79" data-name="Shape" d="M4.238,10.342a11.106,11.106,0,0,1-3.611-.93.979.979,0,0,1,.7-1.829c2.487.956,3.049.814,3.139.774a13.028,13.028,0,0,0-.5-2.772,38.972,38.972,0,0,1-.848-4.5A.977.977,0,1,1,5.057.866a36.465,36.465,0,0,0,.807,4.271c.52,2.21.894,3.808-.145,4.717a2.161,2.161,0,0,1-1.481.488" transform="translate(2.368 31.149)"/>
      </g>
    </g>
    <g id="Group-15" data-name="Group" transform="translate(0 0)">
      <path id="Shape-80" data-name="Shape" d="M1.073,34.521C-3.306,56.55,6.115,77,22.116,80.2h0c16,3.2,32.527-12.071,36.909-34.1h0C63.4,24.069,53.98,3.621,37.979.424h0A21.737,21.737,0,0,0,33.7,0h0C19.13,0,5.063,14.456,1.073,34.521" transform="translate(0 0)" fill="none"/>
      <g id="Group-16" data-name="Group" clip-path="url(#clip-path-2)">
        <path id="Shape-81" data-name="Shape" d="M2.063,1.317A1.111,1.111,0,0,0,1.2.009,1.11,1.11,0,0,0,.013,1.024,1.112,1.112,0,0,0,.872,2.331,1.11,1.11,0,0,0,2.063,1.317" transform="translate(9.408 31.113)"/>
      </g>
    </g>
    <g id="Group-17" data-name="Group" transform="translate(0 0)">
      <path id="Shape-82" data-name="Shape" d="M1.073,34.521C-3.306,56.55,6.115,77,22.116,80.2h0c16,3.2,32.527-12.071,36.909-34.1h0C63.4,24.069,53.98,3.621,37.979.424h0A21.737,21.737,0,0,0,33.7,0h0C19.13,0,5.063,14.456,1.073,34.521" transform="translate(0 0)" fill="none"/>
      <g id="Group-18" data-name="Group" clip-path="url(#clip-path-2)">
        <path id="Shape-83" data-name="Shape" d="M49.5,23.459c-1.166,2.616-13.658,7.977-26.334-4.183S3.949,34.249,1.984,33.956c-4.966-.742.32-13.387,5.647-25.034C16.381-10.208,57.9,4.614,49.5,23.459" transform="translate(-24.477 -3.227)" fill="#ffbe00"/>
      </g>
    </g>
    <g id="Group-19" data-name="Group" transform="translate(0 0)">
      <path id="Shape-84" data-name="Shape" d="M22.116,80.2c16,3.2,32.527-12.071,36.909-34.1S53.98,3.621,37.979.424A21.737,21.737,0,0,0,33.7,0C19.13,0,5.063,14.456,1.073,34.521-3.306,56.55,6.115,77,22.116,80.2Z" transform="translate(0 0)" fill="none"/>
      <g id="Group-20" data-name="Group" clip-path="url(#clip-path-10)">
        <path id="Shape-85" data-name="Shape" d="M8.843,18.74A9.128,9.128,0,0,1,0,9.371,9.129,9.129,0,0,1,8.843,0a9.129,9.129,0,0,1,8.843,9.371A9.128,9.128,0,0,1,8.843,18.74Zm0-16.783A7.175,7.175,0,0,0,1.953,9.371a7.174,7.174,0,0,0,6.891,7.412,7.174,7.174,0,0,0,6.89-7.412A7.175,7.175,0,0,0,8.843,1.957Z" transform="translate(7.065 22.693)"/>
      </g>
    </g>
  </g>
  <path id="Shape-86" data-name="Shape" d="M30.959,89.914a26.242,26.242,0,0,1-5.117-.5C7.356,85.715-3.722,62.769,1.148,38.259A58.247,58.247,0,0,1,6.48,22.9a49.84,49.84,0,0,1,8.671-12.109A38.357,38.357,0,0,1,26.136,2.85,28.711,28.711,0,0,1,38.4,0a26.172,26.172,0,0,1,5.114.505c18.487,3.694,29.566,26.64,24.7,51.15A58.2,58.2,0,0,1,62.882,67.02a49.837,49.837,0,0,1-8.672,12.108,38.353,38.353,0,0,1-10.984,7.936A28.714,28.714,0,0,1,30.959,89.914Zm7.322-80.6h0c-6,0-12.147,3.09-17.3,8.7a41.273,41.273,0,0,0-6.571,9.741,50.086,50.086,0,0,0-4.137,12.326C6.405,59.548,14.206,77.573,27.662,80.262a17.515,17.515,0,0,0,3.419.337c6.011,0,12.156-3.09,17.305-8.7a41.256,41.256,0,0,0,6.567-9.741,50.142,50.142,0,0,0,4.135-12.326C62.957,30.366,55.156,12.341,41.7,9.652a17.465,17.465,0,0,0-3.417-.338Z" transform="translate(176.179 0.806)"/>
  <g id="Group-21" data-name="Group" transform="translate(73.051 70.832)">
    <path id="Shape-87" data-name="Shape" d="M136.1,60.411c1.259-8.792-8.077-32.08-18.452-15.406-2.916,4.687-3.383,10.582-6.043,15.418a17.857,17.857,0,0,1-5.44,5.457C90.941,76.9,49.236,97.821,45.4,95.891c-16.212-8.165-5.3-49.057-4.039-66.743C42.7,10.429,22.639-11.724,12.414,7.254,2.57,25.522.725,49.692.069,69.894c-.758,23.274,4.353,63.819,34.456,65.629,32.491,1.956,64.308-42.464,86.591-58.4,9.486-6.786,13.941-9.392,14.988-16.708" transform="translate(0.971 0.968)" fill="#fff"/>
    <path id="Shape-88" data-name="Shape" d="M37.627,137.53c-.744,0-1.48-.022-2.189-.066-13.7-.823-23.683-9.368-29.657-25.4C-.075,96.352-.168,77.995.064,70.832.748,49.81,2.763,25.877,12.525,7.759a16.152,16.152,0,0,1,5.41-6.221A9.857,9.857,0,0,1,23.231,0,10.956,10.956,0,0,1,26.29.446C35.929,3.246,44.2,17.7,43.307,30.185c-.28,3.912-1.033,8.994-1.829,14.375v.007c-2.832,19.14-6.712,45.353,5.336,51.42a1.353,1.353,0,0,0,.443.06c1.339,0,4.594-1.064,9.411-3.078,4.6-1.922,10.277-4.56,16.424-7.629,6.348-3.169,12.688-6.549,18.335-9.773a173.2,173.2,0,0,0,15.144-9.508,17.017,17.017,0,0,0,5.156-5.139,37.421,37.421,0,0,0,2.709-7.123,34.476,34.476,0,0,1,3.361-8.34,16.634,16.634,0,0,1,4.44-5.011,6.837,6.837,0,0,1,3.882-1.311,6.1,6.1,0,0,1,2.09.377c6.364,2.319,10.778,15.419,9.834,22-1.025,7.156-5.11,10.058-13.247,15.839l-2.14,1.524c-6.416,4.59-13.75,11.678-21.513,19.182l-.009.008C91.4,107.477,81.338,117.2,70.694,124.751a81.507,81.507,0,0,1-16.273,9.22,50.716,50.716,0,0,1-8.34,2.624A39.923,39.923,0,0,1,37.627,137.53ZM23.219,1.944a8.048,8.048,0,0,0-4.9,1.7,15.213,15.213,0,0,0-4.072,5.04C4.672,26.448,2.69,50.1,2.014,70.895c-.339,10.434-.314,62.587,33.542,64.623.682.041,1.378.062,2.067.062a38.084,38.084,0,0,0,8.181-.921,49.124,49.124,0,0,0,8.105-2.584,80.338,80.338,0,0,0,15.9-9.082c10.429-7.435,20.343-17.019,29.93-26.286l.047-.046.07-.068c7.792-7.528,15.152-14.639,21.668-19.3l2.145-1.527c7.923-5.628,11.539-8.2,12.445-14.524.818-5.714-3.188-17.935-8.572-19.9a4.165,4.165,0,0,0-1.419-.255c-2.2,0-4.438,1.817-6.667,5.4a32.515,32.515,0,0,0-3.151,7.874,38.668,38.668,0,0,1-2.865,7.5,18.778,18.778,0,0,1-5.722,5.778c-3.218,2.328-8.076,5.377-14.051,8.815C87.9,79.772,81.517,83.212,75.215,86.4c-6.573,3.326-12.592,6.138-17.405,8.131C52.415,96.765,48.74,97.9,46.885,97.9a2.163,2.163,0,0,1-.952-.17c-13.3-6.7-9.306-33.716-6.387-53.444l0-.011.009-.062c.789-5.328,1.534-10.36,1.806-14.166.817-11.466-6.918-25.2-15.616-27.728A9.08,9.08,0,0,0,23.219,1.944Z" transform="translate(0 0)"/>
    <path id="Shape-89" data-name="Shape" d="M4.241,4.626a4.63,4.63,0,0,1-.609-.04,4.352,4.352,0,0,1-3.581-3.2A.975.975,0,0,1,1.9.772,2.44,2.44,0,0,0,3.891,2.653,5.031,5.031,0,0,0,8.181.434.975.975,0,1,1,9.8,1.516a7.129,7.129,0,0,1-5.564,3.11" transform="translate(123.709 48.794)"/>
    <path id="Shape-90" data-name="Shape" d="M.975,5.67A.976.976,0,0,1,.284,4a12.891,12.891,0,0,1,1.008-.882c.936-.757,1.35-1.135,1.35-2.148a.976.976,0,0,1,1.951,0A4.345,4.345,0,0,1,2.521,4.639a10.314,10.314,0,0,0-.855.745.975.975,0,0,1-.691.286" transform="translate(132.071 50.563)"/>
    <path id="Shape-91" data-name="Shape" d="M.977,3.614A.976.976,0,0,1,.436,1.826c.191-.126.377-.239.556-.348C1.57,1.13,1.859.944,2.06.539a.976.976,0,0,1,1.746.871A4.183,4.183,0,0,1,2,3.151c-.156.094-.318.191-.483.3a.972.972,0,0,1-.538.163" transform="translate(133.734 57.414)"/>
    <path id="Shape-92" data-name="Shape" d="M.974,2.734A.976.976,0,0,1,.879.788L1.624.707,2.045.286A.976.976,0,0,1,3.427,1.665l-.489.489a.966.966,0,0,1-.148.12l-.293.2a.976.976,0,0,1-.446.161l-.978.1c-.032,0-.066,0-.1,0" transform="translate(133.245 63.385)"/>
  </g>
  <g id="Group-22" data-name="Group" transform="translate(4.615 159.756)">
    <path id="Shape-93" data-name="Shape" d="M0,17.938A18.061,18.061,0,1,1,18.061,35.874,18,18,0,0,1,0,17.938" transform="translate(0 0)" fill="#00b2b2"/>
    <path id="Shape-94" data-name="Shape" d="M0,0,38.614,10.044s-11.7,16.837-24.835,13.7C.111,20.483,0,0,0,0" transform="translate(217.652 147.199)" fill="#ff0e11"/>
  </g>
  <path id="Shape-95" data-name="Shape" d="M0,4.511V80.28l53.306-4.741L52.79,0Z" transform="translate(1.284 218.773)" fill="#fff"/>
  <g id="Group-23" data-name="Group" transform="translate(0 65.772)">
    <path id="Shape-96" data-name="Shape" d="M.977,82.4A.975.975,0,0,1,0,81.42V5.495a.97.97,0,0,1,.893-.973L53.859,0c.026,0,.053,0,.08,0A.991.991,0,0,1,54.6.254a.982.982,0,0,1,.319.714l.518,75.694a.969.969,0,0,1-.89.978L1.064,82.391C1.033,82.394,1,82.4.977,82.4Zm52-80.359L1.954,6.39V80.355l51.524-4.578Z" transform="translate(0 154.467)"/>
    <path id="Shape-97" data-name="Shape" d="M7.847,15.24A7.746,7.746,0,0,1,0,7.619,7.744,7.744,0,0,1,7.847,0a7.745,7.745,0,0,1,7.848,7.619A7.746,7.746,0,0,1,7.847,15.24Zm0-13.29A5.79,5.79,0,0,0,1.954,7.619a5.791,5.791,0,0,0,5.893,5.669,5.791,5.791,0,0,0,5.893-5.669A5.791,5.791,0,0,0,7.847,1.951Z" transform="translate(7.086 166.704)"/>
    <path id="Shape-98" data-name="Shape" d="M.976,3.383A.976.976,0,0,1,.9,1.435L18.134,0a1,1,0,0,1,1.055.892A.98.98,0,0,1,18.3,1.947L1.058,3.38l-.082,0" transform="translate(25.406 168.416)"/>
    <path id="Shape-99" data-name="Shape" d="M.976,3.383A.976.976,0,0,1,.9,1.435L18.133,0a1,1,0,0,1,1.055.892.98.98,0,0,1-.893,1.055L1.058,3.38l-.082,0" transform="translate(25.436 174.877)"/>
    <path id="Shape-100" data-name="Shape" d="M.976,5.512A.976.976,0,0,1,.882,3.566L36.954,0a.991.991,0,0,1,1.068.876.975.975,0,0,1-.876,1.066L1.073,5.508q-.048,0-.1,0" transform="translate(7.461 185.944)"/>
    <path id="Shape-101" data-name="Shape" d="M.976,5.514A.976.976,0,0,1,.882,3.567L36.955,0a.976.976,0,1,1,.192,1.942L1.073,5.51q-.048,0-.1,0" transform="translate(7.998 193.894)"/>
    <path id="Shape-102" data-name="Shape" d="M.976,5.514A.976.976,0,0,1,.882,3.567L36.954,0a.976.976,0,1,1,.192,1.942L1.073,5.509q-.048,0-.1,0" transform="translate(8.536 201.846)"/>
    <path id="Shape-103" data-name="Shape" d="M.976,5.515A.976.976,0,0,1,.882,3.569L36.955,0a.976.976,0,1,1,.192,1.942L1.073,5.511q-.048,0-.1,0" transform="translate(9.073 209.801)"/>
    <path id="Shape-104" data-name="Shape" d="M.976,5.515A.976.976,0,0,1,.882,3.568L36.954,0a.976.976,0,1,1,.192,1.942L1.073,5.51q-.048,0-.1,0" transform="translate(9.613 217.752)"/>
    <path id="Shape-105" data-name="Shape" d="M.552,3.409,40.506,0,40.2,56.957,0,60.286Z" transform="translate(252.793 154.45)" fill="#ffd2e1"/>
    <path id="Shape-106" data-name="Shape" d="M6.16,11.975A6.083,6.083,0,0,1,0,5.988,6.083,6.083,0,0,1,6.16,0a6.082,6.082,0,0,1,6.158,5.988A6.082,6.082,0,0,1,6.16,11.975Zm0-10.024A4.129,4.129,0,0,0,1.954,5.988,4.129,4.129,0,0,0,6.16,10.024a4.128,4.128,0,0,0,4.2-4.037A4.128,4.128,0,0,0,6.16,1.951Z" transform="translate(257.714 162.705)"/>
    <path id="Shape-107" data-name="Shape" d="M.976,3.034A.976.976,0,0,1,.9,1.086L13.9,0a.962.962,0,0,1,1.056.89.977.977,0,0,1-.893,1.053l-13,1.083-.084,0" transform="translate(271.535 163.994)"/>
    <path id="Shape-108" data-name="Shape" d="M.976,3.031A.976.976,0,0,1,.9,1.083L13.9,0a.983.983,0,0,1,1.056.89.981.981,0,0,1-.893,1.055l-13,1.081-.084,0" transform="translate(271.555 168.87)"/>
    <path id="Shape-109" data-name="Shape" d="M.976,4.639A.976.976,0,0,1,.882,2.692L28.093,0a.985.985,0,0,1,1.07.874.978.978,0,0,1-.877,1.068L1.073,4.634q-.048,0-.1,0" transform="translate(257.996 177.217)"/>
    <path id="Shape-110" data-name="Shape" d="M.975,4.43A.975.975,0,0,1,.887,2.483L28.208,0a.976.976,0,1,1,.178,1.944L1.066,4.425c-.031,0-.06,0-.091,0" transform="translate(257.438 183.352)"/>
    <path id="Shape-111" data-name="Shape" d="M.975,4.823a.975.975,0,0,1-.1-1.945C1.135,2.85,26.7.267,28.487.012a.975.975,0,1,1,.275,1.93C26.934,2.2,2.13,4.712,1.075,4.817a.776.776,0,0,1-.1.006" transform="translate(257.373 188.963)"/>
    <path id="Shape-112" data-name="Shape" d="M.976,4.692A.976.976,0,0,1,.882,2.745L28.661,0A.985.985,0,0,1,29.73.878a.977.977,0,0,1-.876,1.068L1.073,4.687q-.048,0-.1,0" transform="translate(257.306 195.228)"/>
    <path id="Shape-113" data-name="Shape" d="M.976,4.689A.976.976,0,0,1,.882,2.743L28.79,0a.976.976,0,1,1,.192,1.942L1.073,4.685c-.032,0-.066,0-.1,0" transform="translate(257.372 201.168)"/>
    <path id="Shape-114" data-name="Shape" d="M0,6.7,78.481,0l.768,112.153L0,119.2Z" transform="translate(229.79 0)" fill="#ffbe00"/>
    <path id="Shape-115" data-name="Shape" d="M11.156,21.642A11,11,0,0,1,0,10.821,11,11,0,0,1,11.156,0,11.006,11.006,0,0,1,22.314,10.821,11.006,11.006,0,0,1,11.156,21.642Zm0-19.691a9.051,9.051,0,0,0-9.2,8.87,9.051,9.051,0,0,0,9.2,8.87,9.052,9.052,0,0,0,9.2-8.87A9.052,9.052,0,0,0,11.156,1.951Z" transform="translate(239.715 17.156)"/>
    <path id="Shape-116" data-name="Shape" d="M.976,4.073A.976.976,0,0,1,.9,2.125L26.437,0a.975.975,0,1,1,.16,1.944L1.058,4.07l-.082,0" transform="translate(266.46 19.691)"/>
    <path id="Shape-117" data-name="Shape" d="M.976,4.074A.976.976,0,0,1,.9,2.126L26.438,0a.975.975,0,1,1,.16,1.944L1.058,4.071l-.082,0" transform="translate(266.501 29.263)"/>
    <path id="Shape-118" data-name="Shape" d="M.976,7.23A.976.976,0,0,1,.882,5.284L54.331.006a.975.975,0,1,1,.192,1.941L1.073,7.226q-.048,0-.1,0" transform="translate(239.868 45.663)"/>
    <path id="Shape-119" data-name="Shape" d="M.976,7.231A.976.976,0,0,1,.882,5.284L54.331.007a.975.975,0,1,1,.192,1.941L1.073,7.227q-.048,0-.1,0" transform="translate(240.666 57.445)"/>
    <path id="Shape-120" data-name="Shape" d="M.976,7.229A.976.976,0,0,1,.882,5.283L54.332.005a.975.975,0,1,1,.192,1.941L1.073,7.225q-.048,0-.1,0" transform="translate(241.462 69.228)"/>
    <path id="Shape-121" data-name="Shape" d="M.976,7.229A.976.976,0,0,1,.882,5.282L54.332.006a.975.975,0,1,1,.192,1.941L1.073,7.225q-.048,0-.1,0" transform="translate(242.26 81.01)"/>
    <path id="Shape-122" data-name="Shape" d="M.976,7.232A.976.976,0,0,1,.882,5.286L54.331.007a.975.975,0,1,1,.192,1.941L1.073,7.228q-.048,0-.1,0" transform="translate(243.058 92.79)"/>
  </g>
  <g id="Group-24" data-name="Group" transform="translate(297.007 75.709)">
    <path id="Shape-123" data-name="Shape" d="M1.576,7.471,13.374.456a3.224,3.224,0,1,1,3.314,5.531L4.889,13A3.225,3.225,0,1,1,1.576,7.471" transform="translate(0.98 0.974)" fill="#fff"/>
    <path id="Shape-124" data-name="Shape" d="M4.22,15.41A4.227,4.227,0,0,1,.6,13.363,4.2,4.2,0,0,1,2.052,7.607L13.851.593A4.209,4.209,0,0,1,16,0a4.261,4.261,0,0,1,2.055.53,4.205,4.205,0,0,1,1.57,1.515A4.194,4.194,0,0,1,18.17,7.8l-11.8,7.015A4.208,4.208,0,0,1,4.22,15.41ZM16.007,1.952a2.249,2.249,0,0,0-1.151.317L3.058,9.284a2.244,2.244,0,0,0,.6,4.106,2.239,2.239,0,0,0,1.7-.25l11.8-7.015a2.24,2.24,0,0,0,.779-3.078A2.267,2.267,0,0,0,16.007,1.952Z" transform="translate(0 0)"/>
    <path id="Shape-125" data-name="Shape" d="M1.577,7.471,13.376.456a3.224,3.224,0,1,1,3.314,5.531L4.891,13A3.225,3.225,0,1,1,1.577,7.471" transform="translate(2.758 7.671)" fill="#fff"/>
    <path id="Shape-126" data-name="Shape" d="M4.222,15.411a4.26,4.26,0,0,1-1.039-.129A4.192,4.192,0,0,1,2.056,7.608L13.855.592A4.216,4.216,0,0,1,16.007,0a4.263,4.263,0,0,1,2.055.529A4.19,4.19,0,0,1,18.173,7.8l-11.8,7.015A4.214,4.214,0,0,1,4.222,15.411ZM16.01,1.953a2.252,2.252,0,0,0-1.15.316L3.061,9.284a2.245,2.245,0,0,0,.6,4.106,2.3,2.3,0,0,0,.555.068,2.244,2.244,0,0,0,1.151-.318l11.8-7.017a2.24,2.24,0,0,0,.779-3.078A2.263,2.263,0,0,0,16.01,1.953Z" transform="translate(1.777 6.697)"/>
    <path id="Shape-127" data-name="Shape" d="M1.577,7.471,13.376.456a3.224,3.224,0,1,1,3.314,5.531L4.891,13A3.225,3.225,0,1,1,1.577,7.471" transform="translate(3.747 14.565)" fill="#fff"/>
    <path id="Shape-128" data-name="Shape" d="M4.222,15.409h0a4.254,4.254,0,0,1-2.054-.53A4.2,4.2,0,0,1,.6,13.364,4.189,4.189,0,0,1,2.056,7.608L13.855.592A4.21,4.21,0,0,1,16.006,0,4.261,4.261,0,0,1,18.06.529a4.2,4.2,0,0,1,1.57,1.515A4.193,4.193,0,0,1,18.173,7.8l-11.8,7.015A4.216,4.216,0,0,1,4.222,15.409ZM16.009,1.953a2.249,2.249,0,0,0-1.149.316L3.061,9.284a2.24,2.24,0,0,0-.779,3.079,2.258,2.258,0,0,0,3.088.778l11.8-7.017a2.239,2.239,0,0,0,.779-3.079A2.27,2.27,0,0,0,16.009,1.953Z" transform="translate(2.765 13.59)"/>
  </g>
</svg>
